<?xml version="1.0" encoding="utf-8"?>
<!-- Generator: Adobe Illustrator 24.0.1, SVG Export Plug-In . SVG Version: 6.00 Build 0)  -->
<svg version="1.1" id="Calque_1" xmlns="http://www.w3.org/2000/svg" xmlns:xlink="http://www.w3.org/1999/xlink" x="0px" y="0px"
	 viewBox="0 0 841.89 595.28" style="enable-background:new 0 0 841.89 595.28;" xml:space="preserve">
<style type="text/css">
	.st0{fill-rule:evenodd;clip-rule:evenodd;fill:#047B5F;}
	.st1{fill-rule:evenodd;clip-rule:evenodd;fill:#CE1327;}
	.st2{fill-rule:evenodd;clip-rule:evenodd;fill:#E52329;}
	.st3{fill-rule:evenodd;clip-rule:evenodd;fill:#FAEB4B;}
	.st4{fill:#CE1327;}
	.st5{fill:#047B5F;}
	.st6{fill-rule:evenodd;clip-rule:evenodd;fill:#FDD218;}
	.st7{fill:none;}
	.st8{font-family:'MyriadPro-Regular';}
	.st9{font-size:18px;}
	.st10{fill:#FDD218;}
</style>
<path class="st0" d="M253.99,233.87c0.3-1.93,0.38-3.75,0.88-5.45c1.25-4.31,4.15-7.2,8.39-8.58c1.22-0.4,1.66-1,1.97-2.14
	c2.07-7.58,9.12-11.61,16.73-9.64c4.96,1.28,8.3,5.72,8.46,11.96c0.24,9.36,0.24,18.73,0.27,28.09c0.07,22.34,0.1,44.67,0.12,67.01
	c0,1.65-0.13,3.31-0.31,4.95c-0.52,4.72-2.4,6.89-6.51,7.63c-3.94,0.71-8-1.22-9.84-4.72c-0.33-0.62-0.6-1.28-0.88-1.91
	c-9.39,2.73-15.56-4.64-14.13-12.33c-5.24,1.33-9.94,0.58-13.49-3.74c-3.49-4.25-3.47-8.93-1.08-13.87
	c-3.57,0.21-6.5-0.65-8.57-3.49c-2.4-3.3-2.33-7.41,0.34-10.56c0.88-1.04,0.94-1.8,0.41-3.02c-3.57-8.11-1.53-16.88,5.11-22.76
	c0.56-0.5,1.06-1.53,0.98-2.24C241.95,240.89,245.87,235.47,253.99,233.87z M267.65,267.01c0.17-0.18,0.33-0.36,0.5-0.54
	c4.86,5.71,11.39,6.77,18.55,6.96c0-2.73,0.15-5.25-0.06-7.73c-0.12-1.42-0.55-2.98-1.32-4.15c-3.14-4.75-7.72-7.4-13.25-8.53
	c-0.4-0.08-0.76-0.29-1.15-0.44c0.04-0.18,0.08-0.35,0.12-0.53c2.53,0.15,5.06,0.29,7.38,0.42c-0.57-1.82-1.17-3.74-1.94-6.23
	c3.46,4.52,6.5,8.5,9.55,12.48c0.22-0.12,0.44-0.23,0.65-0.35c0-3-0.09-6.01,0.04-9.01c0.06-1.55-0.42-2.45-1.75-3.3
	c-3.61-2.31-5.46-5.78-6.03-9.97c2.14,2.91,3.79,6.26,7.56,7.8c0-8.38,0.31-16.52-0.11-24.62c-0.29-5.62-4.09-8.36-9.36-7.7
	c-3.85,0.48-6.45,2.65-7.73,6.33c-1.27,3.64-0.84,7.18,0.62,10.74c-1.16-1.39-2.2-2.82-2.97-4.38c-0.5-1-1-1.18-2-0.91
	c-4.13,1.11-7.11,5.17-6.65,9.43c0.18,1.69,0.77,3.33,1.22,5.17c-0.78-0.54-1.42-0.98-1.67-1.15c-1.59,0.44-2.78,0.88-4.02,1.11
	c-4.16,0.75-7.11,4.25-7.16,8.49c-0.04,3.11,1.31,5.59,3.14,8.07c-1.09-0.6-2.17-1.2-3.23-1.79c-9.64,7.96-10.25,16.36-1.63,26.05
	c-1.01-0.3-1.74-0.38-2.32-0.71c-1.11-0.65-1.79-0.22-2.61,0.57c-1.78,1.73-2.04,3.77-1.34,5.96c0.72,2.24,2.51,3.45,4.73,3.5
	c2.62,0.06,5.25-0.33,7.44-0.49c-1.01,1.99-2.52,4.29-3.38,6.8c-1.7,4.98,0.71,9.54,5.38,10.72c3.1,0.78,6,0.18,8.66-1.54
	c1.18-0.76,2.3-1.62,3.7-2.61c-0.64,1.85-1.3,3.35-1.67,4.91c-0.38,1.6-0.71,3.26-0.68,4.89c0.12,5.28,4.09,8.11,8.92,6.38
	c0.71-0.25,1.32-1.1,1.72-1.81c0.77-1.35,1.35-2.81,2.02-4.22c0.22,0.08,0.44,0.17,0.66,0.25c0,1.2-0.14,2.43,0.03,3.61
	c0.27,1.83,0.57,3.71,1.2,5.44c0.98,2.66,3.12,3.74,5.83,3.31c2.31-0.37,3.36-1.56,3.48-4.68c0.16-4.17,0.06-8.36,0.07-12.54
	c0-1.12,0-2.24,0-3.49c-4.11,0.44-4.83,3.61-6.27,6.81c-0.11-3.51,0.79-6.31,2.81-8.18c3.37-3.11,3.85-6.78,3.42-10.91
	c-0.05-0.5-0.01-1.01-0.01-1.51c0-3.23-0.56-3.62-3.83-3.08c-3.36,0.56-5.66,2.71-8.12,4.87c0.64-1.2,1.28-2.4,1.82-3.41
	c-3.21,0-6.38,0-9.55,0c1.21-0.3,2.5-0.19,3.62-0.57c5.08-1.74,10.13-3.6,15.16-5.5c0.4-0.15,0.8-0.83,0.84-1.29
	c0.11-1.49,0.04-2.98,0.04-4.57c-6.28-0.46-12.32-0.91-18.43-1.36c1.16-0.55,2.35-1.1,3.47-1.63
	C270.37,270.76,269.01,268.88,267.65,267.01z"/>
<path class="st1" d="M300.43,257.53c1.68-10.39,5.51-19.92,10.81-28.96c-1.1,4.3-2.26,8.59-3.29,12.91
	c-1.05,4.38-1.97,8.8-2.66,13.4c4.8-4.38,9.99-7.73,16.8-9.25c-0.62,0.48-0.83,0.7-1.07,0.83c-10.6,5.37-16.93,13.98-19.36,25.55
	c-0.77,3.69-1.56,7.37-2.15,11.14c5.7-12.75,14.77-22.06,27.49-27.81c-13.12,8.96-20.51,21.53-23.73,37
	c6.77-3.18,9.39-5.41,14.61-12.33c0.3,3.52-1.61,7.28-5.12,10c-1.59,1.24-3.18,2.48-4.84,3.63c-6.09,4.22-7.32,10.22-6.6,17.12
	c0.62,5.86,2.03,11.42,5.43,16.61c-4.94,0-9.53,0-14.34,0c2.46-3.37,2.35-7.18,2.35-10.98c0-11.39-0.05-22.77,0.05-34.16
	c0.02-2.63,0.29-5.32,0.91-7.87c1.41-5.73,0.99-11.39,0.34-17.16c-0.75-6.71-1.09-13.47-1.23-20.26
	C298.52,243.34,296.51,251.18,300.43,257.53z"/>
<g>
	<path class="st0" d="M562.97,262.54c-0.34,0.98-1,1.57-1.89,2.04c0.28,0.03,0.47,0.05,0.66,0.08c2.41,0.45,3.79,2.8,3.03,5.17
		c-0.38,1.19-1.08,2.19-1.92,3.1c-1.71,1.86-3.68,3.39-6.04,4.35c-3.27,1.34-6.58,1.59-9.9,0.2c-2.7-1.14-4.72-3.08-6.15-5.62
		c-2.03-3.63-2.63-7.49-1.67-11.56c0.01-0.04,0.02-0.08,0.02-0.12c0-0.01-0.01-0.02-0.03-0.06c-1.26,0.65-2.56,0.59-3.92,0.17
		c-0.13,0.57-0.26,1.1-0.37,1.64c-0.62,2.8-1.24,5.6-1.87,8.4c-0.3,1.33-0.57,2.66-0.9,3.98c-0.35,1.38-1.12,2.49-2.45,3.1
		c-2.45,1.14-5.28-0.32-5.84-2.98c-0.16-0.75-0.16-1.5-0.02-2.25c0.02-0.09,0.02-0.18-0.02-0.29c-0.11,0.25-0.21,0.5-0.33,0.74
		c-1.14,2.32-2.99,3.87-5.34,4.85c-2.94,1.22-5.96,1.3-9.02,0.46c-0.89-0.24-1.74-0.6-2.5-1.14c-1.43-1.02-1.97-2.51-1.54-4.22
		c0.24-0.95,0.65-1.8,1.44-2.4c0.91-0.7,1.97-0.89,3.07-0.71c1,0.17,1.97,0.46,2.96,0.7c0.91,0.22,1.81,0.21,2.69-0.12
		c0.1-0.04,0.2-0.07,0.29-0.12c0.26-0.15,0.51-0.33,0.47-0.68c-0.04-0.32-0.33-0.37-0.56-0.41c-1.07-0.21-2.14-0.4-3.21-0.57
		c-1.93-0.3-3.84-0.66-5.57-1.63c-1.86-1.03-3.06-2.57-3.55-4.65c-0.02-0.08-0.04-0.16-0.07-0.24c-0.02-0.05-0.05-0.09-0.1-0.19
		c0.07,1.23,0.13,2.39,0.19,3.56c0.14,2.69,0.29,5.38,0.42,8.06c0.06,1.32-0.29,2.51-1.13,3.57c-1.43,1.79-5.27,2.24-6.85-0.86
		c-0.44-0.86-0.55-1.77-0.6-2.71c-0.24-4.81-0.48-9.62-0.71-14.44c-0.02-0.42-0.05-0.85-0.14-1.29c-0.06,0.16-0.1,0.32-0.17,0.47
		c-0.48,1.05-0.96,2.09-1.45,3.13c-2.18,4.57-4.36,9.15-6.53,13.72c-0.41,0.87-0.9,1.67-1.61,2.34c-1.69,1.58-5.33,1.48-6.78-1.26
		c-0.54-1.01-0.78-2.12-1.09-3.2c-1.42-5.02-2.84-10.05-4.25-15.07c-0.1-0.34-0.19-0.68-0.35-1c0.02,0.51,0.04,1.02,0.07,1.52
		c0.24,4.55,0.49,9.1,0.73,13.65c0.05,0.98,0.15,1.96-0.05,2.94c-0.58,2.75-3.54,4.28-6,3.05c-1.47-0.73-2.22-2.03-2.37-3.62
		c-0.15-1.56-0.19-3.14-0.27-4.7c-0.16-3.21-0.32-6.42-0.48-9.63c-0.04-0.8-0.08-1.61-0.17-2.42c-0.02,0.06-0.04,0.11-0.06,0.17
		c-0.31,1.34-0.96,2.42-2.35,2.86c-0.94,0.3-1.9,0.25-2.85-0.01c-0.12-0.03-0.24-0.06-0.39-0.1c-0.16,0.71-0.31,1.4-0.47,2.08
		c-0.59,2.64-1.17,5.27-1.76,7.91c-0.3,1.34-0.57,2.68-0.91,4.01c-0.37,1.42-1.16,2.56-2.55,3.16c-2.21,0.96-4.73-0.14-5.56-2.41
		c-0.05-0.13-0.1-0.27-0.16-0.45c-0.15,0.18-0.26,0.32-0.38,0.46c-0.74,0.85-1.69,1.43-2.68,1.95c-3.36,1.74-6.81,1.92-10.31,0.48
		c-2.25-0.93-3.96-2.57-5.3-4.57c-1.94-2.89-2.63-6.11-2.41-9.54c0.25-3.98,1.88-7.33,4.87-9.97c2.49-2.2,5.47-2.99,8.75-2.7
		c1.45,0.13,2.84,0.5,4.17,1.1c1.31,0.6,2.44,1.38,2.96,2.84c0.08-0.5,0.13-0.98,0.24-1.45c0.51-2.11,2.5-3.33,4.61-2.82
		c0.25,0.06,0.3-0.03,0.35-0.24c0.25-1.06,0.44-2.14,0.78-3.17c0.45-1.36,1.33-2.4,2.73-2.87c1.88-0.63,4.8,0.27,5.38,3.24
		c0.22,1.1,0.06,2.17-0.21,3.23c-0.13,0.54-0.24,1.08-0.38,1.62c-0.06,0.24,0.03,0.3,0.25,0.35c0.52,0.13,1.04,0.25,1.53,0.46
		c1.07,0.46,1.6,1.1,2.02,2.28c0.39-2.56,1.65-4.24,4.37-4.26c2.16-0.02,3.35,1.32,4.05,3.32c0.04-0.16,0.06-0.24,0.07-0.32
		c0.23-2.14,1.89-3.4,3.76-3.61c0.67-0.07,1.34-0.01,1.98,0.21c1.42,0.5,2.16,1.59,2.48,2.97c0.71,3.11,1.38,6.23,2.06,9.35
		c0.09,0.43,0.19,0.86,0.3,1.36c0.07-0.13,0.11-0.2,0.14-0.26c1.24-3.22,2.46-6.45,3.71-9.67c0.37-0.95,0.9-1.77,1.82-2.29
		c1.63-0.91,4.9-0.5,6.03,2.25c0.03,0.08,0.07,0.16,0.1,0.24c0.19-0.47,0.32-0.95,0.56-1.37c0.92-1.65,2.36-2.37,4.21-2.17
		c1.73,0.19,2.81,1.26,3.39,2.84c0.19,0.52,0.27,1.1,0.32,1.66c0.08,0.87,0.09,1.76,0.14,2.64c0.01,0.15,0.03,0.3,0.11,0.45
		c0.06-0.29,0.1-0.59,0.17-0.88c0.51-2.11,1.76-3.69,3.5-4.93c2.43-1.73,5.15-2.33,8.09-2.07c1.53,0.13,2.96,0.55,4.26,1.37
		c2.67,1.67,2.35,5.33,0.22,6.86c-0.85,0.61-1.79,0.65-2.77,0.47c-0.96-0.18-1.91-0.37-2.87-0.53c-0.59-0.1-1.19-0.1-1.77,0.11
		c-0.15,0.05-0.29,0.13-0.41,0.22c-0.35,0.28-0.3,0.73,0.12,0.85c0.66,0.19,1.34,0.35,2.02,0.44c1.97,0.28,3.94,0.55,5.82,1.26
		c2.16,0.82,3.77,2.23,4.55,4.46c0.4,1.15,0.56,2.34,0.45,3.56c-0.01,0.11-0.02,0.23,0.03,0.35c0.19-0.85,0.38-1.7,0.57-2.55
		c0.68-3.01,1.35-6.03,2.03-9.04c0.05-0.23,0.01-0.29-0.23-0.35c-1.29-0.3-2.38-0.9-2.81-2.23c-0.51-1.6-0.32-3.13,0.78-4.43
		c0.97-1.15,2.27-1.47,3.72-1.19c0.09,0.02,0.18,0.04,0.31,0.07c0.12-0.5,0.21-0.99,0.34-1.47c0.21-0.81,0.37-1.64,0.69-2.41
		c0.58-1.35,1.56-2.3,3.06-2.57c1.87-0.33,4.31,0.65,4.87,3.32c0.23,1.1,0.07,2.17-0.19,3.23c-0.13,0.54-0.24,1.08-0.38,1.62
		c-0.06,0.25-0.01,0.33,0.26,0.4c0.57,0.15,1.16,0.3,1.69,0.55c1.18,0.55,1.8,1.53,1.93,2.81c0.01,0.08,0.02,0.16,0.02,0.24
		c0.03,0.02,0.05,0.04,0.08,0.06c0.03-0.06,0.05-0.13,0.09-0.18c2.81-3.89,6.62-5.59,11.38-5.06c2.3,0.25,4.29,1.29,6.09,2.71
		c1.73,1.37,3.1,3.02,3.96,5.07c0.02,0.05,0.05,0.09,0.11,0.22c0.07-0.37,0.11-0.66,0.17-0.94c0.36-1.87,1.33-3.37,2.76-4.59
		c2.51-2.14,5.44-2.96,8.69-2.72c1.58,0.11,3.06,0.52,4.43,1.36c2.7,1.67,2.4,5.34,0.27,6.88c-0.86,0.62-1.8,0.66-2.79,0.47
		c-0.96-0.18-1.91-0.37-2.87-0.52c-0.58-0.1-1.17-0.09-1.74,0.11c-0.15,0.05-0.29,0.12-0.41,0.22c-0.37,0.28-0.32,0.74,0.12,0.86
		c0.66,0.19,1.34,0.34,2.02,0.44c1.97,0.28,3.94,0.55,5.81,1.27c2.19,0.84,3.86,2.27,4.57,4.56c1.09,3.49,0.26,6.54-2.4,9.05
		c-1.94,1.83-4.3,2.75-6.93,3.02c-1.81,0.19-3.6,0.07-5.35-0.45c-0.88-0.26-1.73-0.59-2.48-1.12c-1.47-1.03-2.02-2.49-1.6-4.23
		c0.16-0.69,0.44-1.33,0.89-1.88c0.94-1.15,2.21-1.45,3.59-1.26c1.01,0.14,2,0.46,2.99,0.7c0.91,0.22,1.81,0.21,2.69-0.12
		c0.06-0.02,0.12-0.04,0.17-0.07c0.3-0.15,0.6-0.31,0.58-0.7c-0.02-0.39-0.39-0.42-0.66-0.47c-1.04-0.2-2.08-0.38-3.12-0.54
		c-1.93-0.3-3.84-0.66-5.57-1.63c-1.57-0.87-2.7-2.12-3.31-3.83C563.07,262.74,563.04,262.68,562.97,262.54z M445.98,255.75
		c-0.01,0.06-0.03,0.11-0.03,0.17c-0.01,0.69-0.19,1.35-0.49,1.96c-0.46,0.92-1.09,1.66-2.12,1.97c-0.74,0.23-1.47,0.1-2.2-0.09
		c-0.87-0.23-1.73-0.52-2.6-0.71c-1.72-0.38-3.28,0.35-4.15,1.88c-0.51,0.89-0.75,1.86-0.79,2.88c-0.08,1.81,0.29,3.48,1.49,4.9
		c0.93,1.1,2.12,1.58,3.54,1.22c0.7-0.18,1.36-0.54,2.04-0.8c0.64-0.24,1.28-0.58,1.95-0.67c1.61-0.22,2.77,0.57,3.62,1.88
		c0.06,0.09,0.12,0.17,0.21,0.3c0.12-0.55,0.23-1.03,0.34-1.51c0.79-3.52,1.58-7.05,2.38-10.57c0.06-0.24-0.01-0.3-0.23-0.34
		c-0.74-0.16-1.41-0.45-1.98-0.96C446.49,256.83,446.2,256.32,445.98,255.75z M559.11,265.38c-0.01-0.02-0.02-0.04-0.03-0.06
		c-3.34,1.2-6.67,2.41-10.05,3.63c0.57,0.6,1.2,0.95,1.94,1.09c1.78,0.33,3.4-0.1,4.74-1.28
		C556.9,267.7,557.98,266.51,559.11,265.38z M553.6,260.22c-0.64-1.37-2.73-1.99-4.38-1.37c-1.76,0.66-2.6,2.3-2.43,3.8
		C549.05,261.84,551.32,261.03,553.6,260.22z"/>
	<path class="st0" d="M399.8,253.8c0.63-1.78,1.83-2.88,3.69-3.04c1.75-0.15,3.34,0.25,4.35,1.93c1.22-1.27,2.74-1.58,4.39-1.35
		c1.74,0.24,2.81,1.31,3.38,2.97c0.17-0.4,0.29-0.78,0.48-1.12c0.88-1.61,2.46-2.4,4.31-2.18c1.53,0.18,2.95,1.44,3.39,3.07
		c0.15,0.56,0.23,1.15,0.26,1.73c0.21,3.71,0.4,7.43,0.6,11.14c0.11,2.1,0.23,4.2,0.32,6.31c0.05,1.3-0.31,2.46-1.14,3.5
		c-1.42,1.77-5.26,2.24-6.85-0.89c-0.37-0.73-0.53-1.52-0.57-2.33c-0.15-3.12-0.31-6.23-0.46-9.35c-0.11-2.22-0.22-4.44-0.34-6.65
		c0-0.05-0.02-0.09-0.05-0.2c-0.45,0.98-1.16,1.62-2.1,1.99c-0.67,0.27-1.36,0.49-2.03,0.74c-0.69,0.26-1.41,0.49-2.06,0.83
		c-1.11,0.57-1.67,1.5-1.74,2.78c-0.12,2.42-0.3,4.83-0.47,7.24c-0.06,0.96-0.09,1.93-0.22,2.88c-0.24,1.71-1.04,3.09-2.69,3.78
		c-2.3,0.96-4.88-0.35-5.59-2.76c-0.29-0.98-0.22-1.97-0.15-2.96c0.2-2.99,0.4-5.98,0.6-8.97c0.1-1.44,0.2-2.88,0.29-4.33
		c0.01-0.13,0.02-0.27,0.03-0.44c-0.06,0.03-0.11,0.03-0.13,0.06c-0.91,1.12-2.13,1.49-3.52,1.47c-0.31-0.01-0.63-0.02-0.94-0.04
		c-0.2-0.01-0.28,0.04-0.29,0.25c-0.2,3-0.4,6-0.62,9c-0.13,1.84-0.23,3.68-0.43,5.51c-0.19,1.74-1.52,3.27-3.09,3.64
		c-1.92,0.45-3.99-0.21-4.94-2.45c-0.04-0.09-0.07-0.17-0.14-0.34c-0.07,0.33-0.11,0.58-0.18,0.83c-0.55,2.08-2.56,3.37-4.68,3.02
		c-2-0.33-3.11-1.42-3.63-3.56c-0.25-1.04-0.5-2.08-0.72-3.12c-0.06-0.3-0.18-0.43-0.5-0.46c-1.4-0.11-2.8-0.25-4.19-0.37
		c-1.91-0.17-3.82-0.34-5.73-0.52c-0.24-0.02-0.35,0.04-0.44,0.26c-0.48,1.16-0.95,2.33-1.47,3.47c-0.52,1.13-1.33,1.98-2.56,2.33
		c-2.47,0.71-5.08-0.85-5.59-3.37c-0.2-1-0.03-1.98,0.39-2.91c2.5-5.52,5-11.04,7.5-16.56c1.16-2.57,2.31-5.13,3.48-7.69
		c0.69-1.51,1.73-2.72,3.23-3.48c2.78-1.41,6.22-0.17,7.6,2.7c0.5,1.05,0.74,2.18,1.02,3.29c1.25,4.9,2.5,9.79,3.75,14.69
		c0.78,3.05,1.55,6.11,2.33,9.16c0.01,0.05,0.03,0.09,0.12,0.14c0.01-0.1,0.04-0.2,0.04-0.31c0.15-2.31,0.31-4.62,0.46-6.93
		c0.14-2.16,0.28-4.33,0.43-6.49c0.02-0.29-0.05-0.38-0.35-0.41c-2.21-0.21-3.53-1.7-3.52-3.92c0-1.47,0.53-2.67,1.77-3.51
		c0.7-0.47,1.49-0.67,2.33-0.59c0.28,0.02,0.34-0.06,0.36-0.31c0.11-1.2,0.18-2.4,0.37-3.59c0.26-1.61,0.93-3.06,2.08-4.25
		c1.43-1.5,3.21-2.19,5.27-2.18c1.18,0.01,2.34,0.14,3.45,0.56c1.79,0.67,2.71,2.13,2.5,4.03c-0.05,0.5-0.13,1-0.29,1.47
		c-0.46,1.38-1.48,2.1-2.96,2.14c-0.27,0.01-0.54-0.01-0.82-0.01c-0.44,0.01-0.79,0.21-0.87,0.63c-0.12,0.66-0.14,1.33-0.19,1.99
		c0,0.05,0.14,0.14,0.22,0.15c0.53,0.08,1.06,0.11,1.59,0.2C398.31,252,398.89,252.43,399.8,253.8z M368.78,262.68
		c1.76,0.15,3.51,0.3,5.3,0.45c-0.68-3.06-1.34-6.03-2.01-9.06C370.96,256.98,369.88,259.8,368.78,262.68z"/>
</g>
<path class="st2" d="M419.33,241.07c2.52,0.04,4.7,2.28,4.62,4.88c-0.06,1.96-0.92,3.52-2.69,4.4c-1.72,0.86-3.83,0.65-5.37-1.14
	c-2.67-3.11-0.86-6.8,1.94-7.82C418.31,241.21,418.83,241.17,419.33,241.07z"/>
<path class="st3" d="M466.99,241.06c2.66,0.04,4.87,2.53,4.6,5.23c-0.19,1.82-1.03,3.24-2.68,4.06c-1.68,0.84-3.77,0.65-5.31-1.08
	c-2.67-3.01-1.06-6.78,1.86-7.88C465.95,241.21,466.48,241.17,466.99,241.06z"/>
<path class="st2" d="M497.8,241.06c2.66,0.05,4.87,2.55,4.59,5.24c-0.19,1.82-1.04,3.24-2.69,4.05c-1.64,0.81-3.71,0.67-5.26-1.05
	c-2.74-3.02-1.1-6.83,1.84-7.92C496.76,241.21,497.29,241.17,497.8,241.06z"/>
<g>
	<path class="st4" d="M380.4,314.9c-0.02,0.15-0.06,0.56-0.13,1.23c-0.07,0.67-0.14,1.41-0.21,2.2c-0.13,0-0.27,0-0.43,0
		s-0.3,0-0.43,0c-3.96,0-7.48-0.5-10.57-1.5c-3.08-1-5.62-2.45-7.6-4.35c-1.38-1.32-2.47-2.89-3.28-4.72
		c-0.8-1.83-1.21-3.93-1.21-6.28c0-2.11,0.4-4.04,1.19-5.78c0.8-1.74,1.83-3.27,3.12-4.57c1.87-1.88,4.37-3.38,7.52-4.48
		c3.15-1.1,6.52-1.66,10.11-1.66c0.18,0,0.38,0,0.61,0c0.23,0,0.39,0,0.49,0c0.02,0.29,0.05,0.76,0.1,1.4
		c0.05,0.64,0.11,1.34,0.17,2.08c-0.16,0-0.3,0-0.41,0c-0.11,0-0.25,0-0.41,0c-2.03,0-4.14,0.22-6.32,0.67
		c-2.18,0.45-4.06,1.12-5.63,2.01c-2.05,1.17-3.62,2.67-4.73,4.49c-1.11,1.83-1.66,3.79-1.66,5.91c0,2.19,0.5,4.19,1.49,5.98
		c0.99,1.79,2.56,3.3,4.71,4.52c1.76,1.01,3.72,1.74,5.89,2.19c2.17,0.45,4.33,0.68,6.47,0.68c0.1,0,0.25,0,0.46,0
		C379.93,314.93,380.15,314.92,380.4,314.9z"/>
	<path class="st4" d="M390.7,288.53h-4.29v-4.19h4.29V288.53z M390.48,317.9h-3.85c0.02-0.26,0.04-1.86,0.06-4.8
		c0.02-2.94,0.04-5.37,0.04-7.28c0-1.67,0-3.51-0.01-5.52c-0.01-2.01-0.04-4.35-0.09-7.05h3.85c-0.03,2.34-0.06,4.53-0.09,6.56
		c-0.02,2.04-0.04,3.85-0.04,5.44c0,3.78,0.02,6.82,0.06,9.11C390.46,316.66,390.48,317.83,390.48,317.9z"/>
	<path class="st4" d="M413.03,314.88l-0.44,3.09c-0.11,0.02-0.39,0.03-0.84,0.05c-0.45,0.02-0.83,0.02-1.16,0.02
		c-3.33,0-5.84-0.69-7.55-2.08c-1.7-1.39-2.56-3.52-2.56-6.39c0-1.8,0.01-3.73,0.04-5.8c0.02-2.06,0.04-4.62,0.04-7.67h-4.09v-2.85
		h4.31v-5.77h3.53v5.77h8.72v2.85h-8.72c0,0.34-0.01,1.36-0.04,3.04c-0.02,1.69-0.04,2.94-0.04,3.75c0,0.68,0,1.52,0,2.51
		c0,0.99,0,2.17,0,3.53c0,2.11,0.57,3.63,1.7,4.57c1.14,0.93,2.89,1.4,5.26,1.4c0.29,0,0.64,0,1.05-0.01
		C412.65,314.88,412.91,314.88,413.03,314.88z"/>
	<path class="st4" d="M423.52,288.53h-4.29v-4.19h4.29V288.53z M423.3,317.9h-3.85c0.02-0.26,0.04-1.86,0.06-4.8
		c0.02-2.94,0.04-5.37,0.04-7.28c0-1.67,0-3.51-0.01-5.52c-0.01-2.01-0.04-4.35-0.09-7.05h3.85c-0.03,2.34-0.06,4.53-0.09,6.56
		c-0.02,2.04-0.04,3.85-0.04,5.44c0,3.78,0.02,6.82,0.06,9.11C423.28,316.66,423.3,317.83,423.3,317.9z"/>
	<path class="st4" d="M450.19,317.75c-0.08,0-1.45,0-4.1-0.01c-2.65-0.01-4.61-0.01-5.88-0.01c-1.62,0-3.58,0-5.88,0.01
		c-2.3,0.01-3.5,0.01-3.62,0.01l-0.8-2.29c1.61-2.06,3.75-4.83,6.44-8.29c2.69-3.47,5.42-7.01,8.19-10.63l-0.02-0.05
		c-0.7,0-1.41,0-2.13-0.01c-0.72-0.01-1.42-0.01-2.08-0.01c-1.56,0-3.54,0.01-5.95,0.04c-2.41,0.02-3.68,0.04-3.81,0.04v-3.04
		c0.15,0,1.47,0,3.97,0.01c2.5,0.01,4.03,0.01,4.6,0.01c1.14,0,2.9,0,5.3-0.01c2.39-0.01,3.7-0.01,3.91-0.01l1.24,2.29
		c-2.78,3.46-5.76,7.29-8.96,11.48c-3.2,4.2-5.07,6.64-5.63,7.34l0.02,0.05c0.62,0,1.42,0,2.42,0.01c1,0.01,2.07,0.01,3.23,0.01
		c3.28,0,5.67-0.01,7.16-0.04c1.49-0.02,2.29-0.04,2.39-0.04V317.75z"/>
	<path class="st4" d="M475.25,304.68h-17.61c0.02,1.72,0.38,3.3,1.1,4.74c0.71,1.44,1.81,2.63,3.29,3.57
		c0.94,0.6,2.01,1.05,3.21,1.35c1.2,0.3,2.65,0.45,4.33,0.45c0.93,0,1.77-0.02,2.54-0.07c0.77-0.05,1.25-0.08,1.42-0.1l-0.44,3.24
		c-0.13,0.02-0.56,0.04-1.29,0.09c-0.73,0.04-1.59,0.06-2.58,0.06c-2.6,0-4.86-0.34-6.78-1.01c-1.92-0.67-3.5-1.6-4.74-2.79
		c-1.06-0.99-1.95-2.26-2.69-3.8c-0.74-1.54-1.11-3.25-1.11-5.14c0-1.85,0.28-3.52,0.83-5.02c0.55-1.49,1.38-2.88,2.48-4.16
		c0.96-1.1,2.15-1.96,3.57-2.56c1.42-0.6,2.89-0.9,4.42-0.9c1.51,0,2.85,0.23,4.02,0.68c1.17,0.45,2.18,1.14,3.04,2.07
		c0.96,1.04,1.69,2.32,2.19,3.84C474.97,300.73,475.23,302.55,475.25,304.68z M471.47,301.95c-0.26-2.01-0.95-3.59-2.06-4.74
		c-1.11-1.14-2.58-1.72-4.4-1.72c-1.82,0-3.34,0.58-4.55,1.74c-1.22,1.16-2.06,2.73-2.53,4.71H471.47z"/>
	<path class="st4" d="M501.89,317.9h-3.85c0.02-0.45,0.04-1.96,0.06-4.5c0.02-2.55,0.04-4.12,0.04-4.72c0-0.84,0-2.09-0.01-3.74
		c-0.01-1.65-0.02-2.85-0.04-3.62c-0.05-1.87-0.41-3.21-1.07-4.02c-0.67-0.81-1.82-1.22-3.46-1.22c-0.99,0-2.22,0.29-3.68,0.88
		c-1.46,0.58-2.94,1.33-4.43,2.24c0,0.18-0.01,1.14-0.02,2.9c-0.02,1.75-0.02,3.35-0.02,4.8c0,1.88,0.02,4.16,0.06,6.82
		c0.04,2.66,0.06,4.06,0.06,4.19h-3.85c0-0.11,0.02-1.11,0.05-2.98c0.03-1.88,0.05-4.66,0.05-8.36c0-1.7,0-3.7-0.01-5.99
		c-0.01-2.29-0.04-4.72-0.08-7.31h3.8l-0.02,2.8l0.02,0.05c2.27-1.3,4.17-2.2,5.69-2.71c1.52-0.51,2.78-0.77,3.79-0.77
		c2.08,0,3.75,0.65,5,1.96c1.26,1.31,1.89,3.1,1.89,5.37c0,2.05-0.01,3.81-0.04,5.3c-0.02,1.49-0.04,2.69-0.04,3.62
		c0,1.48,0.02,3.32,0.06,5.54C501.87,316.62,501.89,317.79,501.89,317.9z"/>
</g>
<g>
	<path class="st5" d="M531.84,317.85c-0.19,0-1.22-0.01-3.08-0.02c-1.86-0.02-4.23-0.02-7.12-0.02c-1.9,0-3.71,0.01-5.42,0.02
		c-1.71,0.02-3.16,0.02-4.35,0.02c0.03-2.79,0.06-5.62,0.08-8.49c0.02-2.87,0.04-5.68,0.04-8.44c0-4.61-0.02-8.13-0.05-10.54
		c-0.03-2.42-0.06-4.12-0.07-5.09h4.02c-0.03,2.09-0.06,4.51-0.07,7.25c-0.02,2.74-0.02,4.99-0.02,6.74c0,4.27,0.01,7.83,0.02,10.68
		c0.02,2.85,0.02,4.36,0.02,4.53c0.67,0,1.47,0,2.41,0.01c0.94,0.01,1.79,0.01,2.56,0.01c2.91,0,5.43-0.01,7.59-0.04
		c2.15-0.02,3.3-0.04,3.45-0.04V317.85z"/>
	<path class="st5" d="M554.46,304.02c0,4.03-0.01,7.31-0.02,9.84c-0.02,2.53-0.02,3.9-0.02,4.09c-0.16,0.02-0.92,0.08-2.26,0.18
		c-1.35,0.11-3.08,0.16-5.21,0.16c-1.33,0-2.67-0.12-4.02-0.37c-1.35-0.24-2.51-0.59-3.48-1.05c-1.3-0.6-2.35-1.42-3.15-2.46
		c-0.8-1.04-1.21-2.29-1.21-3.75c0-1.54,0.47-2.88,1.42-4.01c0.95-1.13,2.27-2.04,3.96-2.74c1.06-0.44,2.46-0.83,4.22-1.18
		c1.76-0.35,3.77-0.61,6.03-0.79c-0.1-1.27-0.41-2.31-0.95-3.12c-0.54-0.81-1.32-1.43-2.36-1.85c-0.71-0.29-1.51-0.5-2.39-0.62
		c-0.88-0.12-1.9-0.18-3.07-0.18c-0.73,0-1.35,0.02-1.86,0.05c-0.51,0.03-1.21,0.07-2.08,0.12l0.39-3.24
		c0.24-0.02,0.73-0.04,1.45-0.09c0.72-0.04,1.71-0.06,2.96-0.06c1.92,0,3.62,0.2,5.13,0.6c1.5,0.4,2.75,1.04,3.74,1.94
		c0.93,0.84,1.62,1.89,2.09,3.13C554.23,299.87,554.46,301.66,554.46,304.02z M550.74,309.89c0-0.55,0-1.25,0-2.09
		c0-0.84-0.01-1.82-0.02-2.92c-0.71,0.03-1.96,0.17-3.75,0.43c-1.79,0.25-3.29,0.61-4.51,1.08c-0.91,0.34-1.72,0.85-2.42,1.53
		c-0.71,0.68-1.06,1.53-1.06,2.53c0,1.1,0.3,1.99,0.9,2.67c0.6,0.67,1.42,1.19,2.46,1.55c0.8,0.28,1.68,0.47,2.64,0.6
		c0.97,0.12,1.99,0.18,3.06,0.18c0.32,0,0.72-0.01,1.19-0.02c0.47-0.02,0.97-0.03,1.49-0.05c0-0.11,0-0.65,0.01-1.61
		C550.73,312.8,550.74,311.51,550.74,309.89z"/>
	<path class="st5" d="M584.2,305.37c0,2.66-0.65,4.95-1.96,6.86c-1.31,1.91-3.07,3.34-5.3,4.28c-1.45,0.62-3.09,1.07-4.94,1.35
		c-1.85,0.28-4.08,0.43-6.67,0.43c-0.36,0-0.72,0-1.1,0c-0.37,0-0.73,0-1.07,0c0.02-1.25,0.04-3.57,0.06-6.96
		c0.02-3.39,0.04-7.47,0.04-12.24c0-2.92-0.01-5.75-0.02-8.49c-0.02-2.74-0.04-5.54-0.07-8.4H567l-0.07,11.23
		c3.33,0.03,5.99,0.33,8,0.89c2.01,0.56,3.67,1.32,5,2.27c1.38,0.99,2.44,2.23,3.17,3.71C583.83,301.78,584.2,303.47,584.2,305.37z
		 M580.3,305.47c0-1.96-0.56-3.61-1.67-4.94c-1.11-1.33-2.54-2.29-4.3-2.89c-0.91-0.31-1.89-0.55-2.95-0.72
		c-1.06-0.17-2.14-0.26-3.26-0.26c-0.21,0-0.43,0-0.65,0c-0.22,0-0.4,0-0.55,0c0,0.36,0,1.65-0.01,3.88
		c-0.01,2.23-0.01,4.07-0.01,5.51c0,2.71,0.01,4.62,0.02,5.74c0.02,1.12,0.02,2.25,0.02,3.4c1.79,0,3.42-0.13,4.89-0.4
		c1.48-0.27,2.75-0.68,3.82-1.25c1.56-0.83,2.72-1.92,3.48-3.27S580.3,307.32,580.3,305.47z"/>
</g>
<g>
	<g>
		<path class="st6" d="M294.03,226.23c0.17-0.01,0.17-0.01,0.38-0.79c0.21-0.03,0.42-0.06,0.64-0.09c0.26,0.55,0.73,0.44,1.21,0.36
			c0.18,0.72,0.74,0.56,1.24,0.5c0.06,0.85,0.82,0.86,1.53,0.52c-0.25,0.8-0.49,1.59-0.74,2.39c-0.02,0.07-0.16,0.16-0.24,0.16
			c-1.14,0.01-2.28,0.01-3.31,0.01c-0.31-0.48-0.54-0.87-0.79-1.25c-0.38-0.56-0.79-1.11-1.15-1.68c-0.47-0.76,0.01-1.75,0.89-1.91
			c0.27-0.05,0.54,0.16,0.53,0.48C294.2,225.35,294.1,225.78,294.03,226.23z"/>
		<path class="st6" d="M297.64,224.45c0,0.26-0.01,0.52,0,0.77c0.01,0.38-0.22,0.5-0.54,0.5c-0.33,0-0.54-0.13-0.53-0.51
			c0.02-0.52,0.01-1.03,0-1.55c-0.01-0.36,0.18-0.47,0.51-0.47c0.34,0,0.56,0.1,0.55,0.48C297.64,223.94,297.64,224.2,297.64,224.45
			z"/>
		<path class="st6" d="M296.39,223.98c0,0.27,0,0.54,0,0.81c0,0.35-0.23,0.43-0.51,0.44c-0.3,0-0.54-0.08-0.54-0.45
			c0-0.55,0-1.11,0-1.67c0-0.35,0.25-0.42,0.53-0.41c0.27,0.01,0.52,0.07,0.52,0.42C296.4,223.41,296.39,223.7,296.39,223.98z"/>
		<path class="st6" d="M297.83,225.11c0-0.29,0-0.57,0-0.86c0-0.28,0.16-0.39,0.41-0.39c0.26,0,0.57-0.05,0.59,0.33
			c0.03,0.61,0.06,1.22,0.04,1.83c-0.01,0.33-0.32,0.37-0.59,0.35c-0.25-0.02-0.46-0.09-0.45-0.41
			C297.83,225.68,297.83,225.4,297.83,225.11z"/>
		<path class="st6" d="M293.79,224.1c0.07-0.34,0.09-0.62,0.18-0.89c0.12-0.36,0.4-0.55,0.77-0.56c0.26-0.01,0.44,0.08,0.42,0.4
			c-0.02,0.43,0,0.87,0,1.31c0,0.45-0.12,0.55-0.64,0.49C294.5,224.44,294.45,224.04,293.79,224.1z"/>
	</g>
	<g>
		<path class="st6" d="M312.23,206.47c0.17,0.03,0.17,0.03,0.55-0.68c0.21,0.02,0.42,0.04,0.65,0.06c0.12,0.59,0.61,0.6,1.1,0.63
			c0.01,0.74,0.59,0.71,1.09,0.77c-0.14,0.84,0.6,1.03,1.37,0.87c-0.42,0.72-0.84,1.44-1.28,2.15c-0.04,0.07-0.19,0.11-0.27,0.1
			c-1.11-0.26-2.22-0.53-3.22-0.77c-0.19-0.54-0.32-0.97-0.48-1.4c-0.24-0.64-0.51-1.26-0.72-1.91c-0.28-0.84,0.42-1.7,1.31-1.65
			c0.27,0.02,0.49,0.28,0.4,0.59C312.6,205.66,312.4,206.05,312.23,206.47z"/>
		<path class="st6" d="M316.16,205.58c-0.06,0.25-0.13,0.5-0.18,0.75c-0.08,0.37-0.33,0.43-0.65,0.36
			c-0.33-0.08-0.49-0.25-0.39-0.62c0.14-0.5,0.25-1,0.36-1.5c0.08-0.35,0.29-0.41,0.61-0.34c0.33,0.08,0.52,0.22,0.43,0.59
			C316.28,205.08,316.22,205.33,316.16,205.58z"/>
		<path class="st6" d="M315.05,204.84c-0.06,0.26-0.13,0.53-0.19,0.79c-0.08,0.34-0.32,0.37-0.6,0.31c-0.29-0.07-0.51-0.2-0.42-0.56
			c0.13-0.54,0.26-1.08,0.39-1.62c0.08-0.34,0.34-0.35,0.61-0.28c0.27,0.07,0.49,0.19,0.41,0.53
			C315.19,204.28,315.12,204.56,315.05,204.84z"/>
		<path class="st6" d="M316.18,206.27c0.07-0.28,0.14-0.56,0.2-0.83c0.06-0.27,0.24-0.34,0.49-0.29c0.25,0.06,0.56,0.08,0.5,0.45
			c-0.11,0.6-0.23,1.21-0.39,1.79c-0.09,0.32-0.39,0.29-0.65,0.21c-0.24-0.07-0.42-0.2-0.34-0.5
			C316.05,206.82,316.12,206.54,316.18,206.27z"/>
		<path class="st6" d="M312.49,204.34c0.14-0.31,0.24-0.58,0.38-0.82c0.2-0.32,0.51-0.44,0.88-0.36c0.25,0.05,0.41,0.18,0.32,0.49
			c-0.12,0.42-0.2,0.85-0.31,1.27c-0.11,0.44-0.25,0.5-0.73,0.33C313.11,204.84,313.14,204.44,312.49,204.34z"/>
	</g>
	<g>
		<path class="st6" d="M320.94,209.33c0.15,0.08,0.15,0.08,0.72-0.5c0.2,0.08,0.39,0.15,0.61,0.24c-0.04,0.6,0.42,0.74,0.88,0.91
			c-0.19,0.71,0.37,0.85,0.84,1.04c-0.37,0.77,0.29,1.15,1.08,1.21c-0.61,0.57-1.21,1.15-1.82,1.71c-0.06,0.05-0.21,0.06-0.29,0.02
			c-1-0.55-1.99-1.12-2.88-1.62c-0.03-0.57-0.04-1.02-0.08-1.48c-0.05-0.68-0.14-1.35-0.17-2.03c-0.04-0.89,0.87-1.52,1.72-1.23
			c0.26,0.09,0.39,0.41,0.22,0.68C321.52,208.65,321.23,208.97,320.94,209.33z"/>
		<path class="st6" d="M324.96,209.56c-0.13,0.22-0.26,0.45-0.38,0.68c-0.18,0.34-0.43,0.33-0.72,0.17c-0.29-0.16-0.4-0.37-0.21-0.7
			c0.27-0.44,0.52-0.89,0.76-1.35c0.17-0.32,0.39-0.32,0.68-0.16c0.29,0.16,0.44,0.36,0.25,0.69
			C325.21,209.1,325.09,209.33,324.96,209.56z"/>
		<path class="st6" d="M324.11,208.53c-0.13,0.24-0.27,0.47-0.4,0.71c-0.17,0.31-0.41,0.27-0.66,0.13
			c-0.26-0.14-0.43-0.34-0.25-0.66c0.27-0.48,0.54-0.97,0.82-1.45c0.18-0.31,0.42-0.24,0.66-0.1c0.24,0.14,0.42,0.32,0.25,0.63
			C324.39,208.04,324.25,208.28,324.11,208.53z"/>
		<path class="st6" d="M324.8,210.22c0.14-0.25,0.28-0.5,0.42-0.75c0.13-0.25,0.33-0.26,0.55-0.14c0.23,0.12,0.52,0.24,0.35,0.57
			c-0.27,0.55-0.55,1.1-0.87,1.62c-0.18,0.28-0.46,0.17-0.69,0.02c-0.21-0.13-0.35-0.31-0.19-0.58
			C324.52,210.72,324.66,210.47,324.8,210.22z"/>
		<path class="st6" d="M321.78,207.35c0.22-0.26,0.39-0.49,0.59-0.68c0.28-0.26,0.61-0.28,0.95-0.11c0.23,0.12,0.34,0.28,0.17,0.55
			c-0.23,0.37-0.43,0.76-0.65,1.14c-0.23,0.39-0.38,0.42-0.79,0.11C322.23,208,322.38,207.63,321.78,207.35z"/>
	</g>
	<g>
		<path class="st6" d="M329.64,214.67c0.14,0.1,0.14,0.1,0.78-0.39c0.18,0.1,0.37,0.21,0.57,0.32c-0.13,0.59,0.31,0.8,0.74,1.03
			c-0.29,0.68,0.24,0.89,0.68,1.15c-0.48,0.71,0.12,1.18,0.89,1.35c-0.68,0.48-1.36,0.96-2.05,1.43c-0.06,0.04-0.22,0.03-0.29-0.02
			c-0.91-0.69-1.81-1.39-2.62-2.02c0.05-0.57,0.11-1.02,0.14-1.47c0.05-0.68,0.06-1.36,0.13-2.03c0.09-0.89,1.08-1.38,1.88-0.96
			c0.24,0.13,0.33,0.46,0.12,0.7C330.32,214.08,329.97,214.36,329.64,214.67z"/>
		<path class="st6" d="M333.59,215.48c-0.16,0.2-0.32,0.4-0.47,0.61c-0.22,0.31-0.47,0.26-0.73,0.06c-0.26-0.2-0.35-0.43-0.1-0.72
			c0.33-0.4,0.64-0.81,0.95-1.22c0.22-0.29,0.43-0.26,0.69-0.06c0.27,0.21,0.38,0.42,0.14,0.72
			C333.9,215.07,333.74,215.28,333.59,215.48z"/>
		<path class="st6" d="M332.89,214.35c-0.17,0.21-0.33,0.43-0.5,0.64c-0.21,0.28-0.45,0.2-0.67,0.03c-0.24-0.18-0.38-0.39-0.15-0.69
			c0.34-0.44,0.68-0.88,1.02-1.32c0.22-0.28,0.45-0.18,0.67,0c0.21,0.17,0.36,0.38,0.15,0.65
			C333.24,213.9,333.06,214.12,332.89,214.35z"/>
		<path class="st6" d="M333.33,216.11c0.18-0.23,0.35-0.45,0.53-0.68c0.17-0.22,0.36-0.21,0.56-0.06c0.21,0.15,0.48,0.31,0.26,0.62
			c-0.35,0.5-0.7,1.01-1.09,1.47c-0.21,0.26-0.48,0.1-0.68-0.08c-0.19-0.16-0.3-0.35-0.11-0.6
			C332.98,216.57,333.15,216.34,333.33,216.11z"/>
		<path class="st6" d="M330.76,212.84c0.26-0.23,0.45-0.43,0.68-0.59c0.31-0.21,0.65-0.19,0.95,0.03c0.21,0.15,0.3,0.33,0.09,0.57
			c-0.28,0.33-0.53,0.69-0.8,1.03c-0.28,0.36-0.43,0.36-0.8,0C331.11,213.55,331.31,213.2,330.76,212.84z"/>
	</g>
	<g>
		<path class="st6" d="M335.96,222.48c0.14,0.1,0.14,0.1,0.78-0.39c0.18,0.1,0.37,0.21,0.57,0.32c-0.13,0.59,0.31,0.8,0.74,1.03
			c-0.29,0.68,0.24,0.89,0.68,1.15c-0.48,0.71,0.12,1.18,0.89,1.35c-0.68,0.48-1.36,0.96-2.05,1.43c-0.06,0.04-0.22,0.03-0.29-0.02
			c-0.91-0.69-1.81-1.39-2.62-2.02c0.05-0.57,0.1-1.02,0.14-1.47c0.05-0.68,0.06-1.36,0.13-2.03c0.09-0.89,1.08-1.38,1.88-0.96
			c0.24,0.13,0.33,0.46,0.12,0.7C336.64,221.89,336.29,222.17,335.96,222.48z"/>
		<path class="st6" d="M339.91,223.29c-0.16,0.2-0.32,0.4-0.47,0.61c-0.22,0.31-0.47,0.26-0.73,0.06c-0.26-0.2-0.35-0.43-0.1-0.72
			c0.33-0.4,0.64-0.81,0.95-1.22c0.22-0.29,0.43-0.26,0.69-0.06c0.27,0.21,0.38,0.42,0.14,0.72
			C340.22,222.88,340.06,223.09,339.91,223.29z"/>
		<path class="st6" d="M339.21,222.15c-0.17,0.21-0.33,0.43-0.5,0.64c-0.21,0.28-0.45,0.2-0.67,0.03c-0.24-0.18-0.38-0.39-0.15-0.69
			c0.34-0.44,0.68-0.88,1.02-1.32c0.22-0.28,0.45-0.18,0.67,0c0.21,0.17,0.36,0.38,0.15,0.65
			C339.56,221.7,339.38,221.93,339.21,222.15z"/>
		<path class="st6" d="M339.65,223.92c0.18-0.23,0.35-0.45,0.53-0.68c0.17-0.22,0.36-0.21,0.56-0.06c0.21,0.15,0.48,0.31,0.26,0.62
			c-0.35,0.5-0.7,1.01-1.09,1.47c-0.21,0.26-0.48,0.1-0.68-0.08c-0.19-0.16-0.3-0.35-0.11-0.6
			C339.3,224.38,339.47,224.15,339.65,223.92z"/>
		<path class="st6" d="M337.08,220.65c0.26-0.23,0.45-0.43,0.68-0.59c0.31-0.21,0.65-0.19,0.95,0.03c0.21,0.15,0.3,0.33,0.09,0.57
			c-0.28,0.33-0.53,0.69-0.8,1.03c-0.28,0.36-0.43,0.36-0.8,0C337.43,221.36,337.63,221,337.08,220.65z"/>
	</g>
	<g>
		<g>
			<path class="st6" d="M342.91,236.72c0.11,0.13,0.11,0.13,0.86-0.18c0.15,0.15,0.3,0.29,0.47,0.45c-0.27,0.54,0.1,0.85,0.46,1.18
				c-0.45,0.58,0.01,0.92,0.37,1.29c-0.64,0.57-0.18,1.18,0.52,1.53c-0.78,0.29-1.56,0.59-2.34,0.87c-0.07,0.03-0.22-0.03-0.27-0.1
				c-0.71-0.9-1.4-1.8-2.03-2.61c0.19-0.54,0.36-0.96,0.5-1.39c0.22-0.64,0.39-1.3,0.63-1.94c0.31-0.83,1.39-1.07,2.06-0.46
				c0.2,0.18,0.2,0.53-0.06,0.71C343.71,236.32,343.31,236.5,342.91,236.72z"/>
			<path class="st6" d="M346.53,238.49c-0.2,0.16-0.41,0.31-0.61,0.47c-0.29,0.24-0.52,0.13-0.73-0.13
				c-0.21-0.26-0.23-0.5,0.08-0.73c0.42-0.3,0.82-0.62,1.23-0.94c0.28-0.22,0.49-0.14,0.68,0.12c0.21,0.27,0.27,0.5-0.04,0.73
				C346.94,238.17,346.73,238.33,346.53,238.49z"/>
			<path class="st6" d="M346.14,237.21c-0.21,0.17-0.43,0.33-0.64,0.5c-0.27,0.22-0.48,0.08-0.66-0.14
				c-0.18-0.23-0.27-0.48,0.02-0.7c0.44-0.34,0.88-0.68,1.32-1.02c0.28-0.21,0.48-0.06,0.65,0.16c0.16,0.22,0.26,0.46-0.02,0.67
				C346.59,236.87,346.36,237.04,346.14,237.21z"/>
			<path class="st6" d="M346.12,239.04c0.23-0.17,0.45-0.35,0.68-0.53c0.22-0.18,0.4-0.11,0.56,0.08c0.16,0.2,0.39,0.42,0.1,0.67
				c-0.46,0.4-0.93,0.8-1.43,1.15c-0.27,0.19-0.49-0.02-0.64-0.25c-0.14-0.2-0.21-0.42,0.05-0.6
				C345.67,239.39,345.89,239.21,346.12,239.04z"/>
			<path class="st6" d="M344.45,235.22c0.31-0.15,0.55-0.31,0.81-0.4c0.36-0.13,0.67-0.02,0.91,0.27c0.17,0.2,0.2,0.39-0.06,0.58
				c-0.36,0.25-0.69,0.53-1.04,0.8c-0.36,0.27-0.51,0.24-0.78-0.2C344.62,236,344.9,235.71,344.45,235.22z"/>
		</g>
	</g>
	<g>
		<g>
			<path class="st6" d="M342.12,255.12c0.04,0.16,0.04,0.16,0.85,0.22c0.07,0.2,0.14,0.4,0.22,0.61c-0.49,0.36-0.29,0.8-0.12,1.26
				c-0.67,0.32-0.4,0.83-0.24,1.31c-0.82,0.22-0.68,0.97-0.22,1.61c-0.83-0.09-1.66-0.17-2.49-0.27c-0.08-0.01-0.18-0.12-0.2-0.21
				c-0.23-1.12-0.45-2.24-0.65-3.24c0.41-0.39,0.75-0.7,1.07-1.02c0.48-0.48,0.93-0.99,1.43-1.45c0.65-0.61,1.72-0.33,2.05,0.5
				c0.1,0.25-0.05,0.56-0.37,0.61C343.01,255.12,342.57,255.1,342.12,255.12z"/>
			<path class="st6" d="M344.57,258.32c-0.25,0.05-0.51,0.1-0.76,0.15c-0.37,0.08-0.53-0.11-0.59-0.44
				c-0.07-0.33,0.02-0.55,0.4-0.61c0.51-0.08,1.01-0.19,1.52-0.3c0.35-0.08,0.5,0.09,0.56,0.41c0.07,0.33,0.01,0.57-0.36,0.64
				C345.07,258.22,344.82,258.27,344.57,258.32z"/>
			<path class="st6" d="M344.78,257c-0.27,0.05-0.53,0.1-0.8,0.16c-0.34,0.07-0.47-0.14-0.53-0.41c-0.06-0.29-0.03-0.55,0.33-0.62
				c0.54-0.11,1.09-0.22,1.63-0.32c0.35-0.07,0.46,0.16,0.51,0.44c0.05,0.27,0.03,0.52-0.31,0.59
				C345.34,256.89,345.06,256.95,344.78,257z"/>
			<path class="st6" d="M343.96,258.63c0.28-0.06,0.56-0.11,0.84-0.17c0.27-0.06,0.41,0.08,0.46,0.33c0.05,0.25,0.16,0.55-0.21,0.64
				c-0.59,0.15-1.19,0.3-1.79,0.39c-0.33,0.05-0.43-0.24-0.46-0.51c-0.03-0.24,0-0.47,0.31-0.52
				C343.4,258.74,343.68,258.68,343.96,258.63z"/>
			<path class="st6" d="M344.16,254.47c0.34,0,0.63-0.03,0.9,0c0.38,0.04,0.61,0.28,0.7,0.65c0.06,0.25,0.01,0.44-0.31,0.49
				c-0.43,0.07-0.86,0.17-1.28,0.25c-0.45,0.08-0.56-0.01-0.6-0.53C343.96,255.24,344.35,255.1,344.16,254.47z"/>
		</g>
	</g>
	<g>
		<path class="st6" d="M336.01,230.92c0.12,0.12,0.12,0.12,0.83-0.27c0.17,0.13,0.33,0.26,0.51,0.4c-0.22,0.56,0.18,0.83,0.58,1.13
			c-0.39,0.63,0.11,0.92,0.5,1.24c-0.57,0.63-0.05,1.19,0.68,1.47c-0.75,0.37-1.49,0.75-2.24,1.11c-0.07,0.03-0.22-0.01-0.28-0.07
			c-0.8-0.82-1.58-1.65-2.29-2.39c0.14-0.55,0.25-0.99,0.35-1.44c0.15-0.66,0.26-1.34,0.42-1.99c0.22-0.86,1.27-1.2,2-0.68
			c0.22,0.16,0.26,0.5,0.02,0.71C336.77,230.44,336.39,230.66,336.01,230.92z"/>
		<path class="st6" d="M339.79,232.31c-0.19,0.18-0.38,0.35-0.56,0.54c-0.27,0.27-0.51,0.19-0.74-0.05c-0.23-0.24-0.28-0.48,0-0.73
			c0.38-0.34,0.75-0.71,1.12-1.07c0.26-0.25,0.47-0.19,0.69,0.05c0.23,0.24,0.32,0.47,0.04,0.73
			C340.17,231.95,339.98,232.13,339.79,232.31z"/>
		<path class="st6" d="M339.27,231.08c-0.2,0.19-0.39,0.37-0.59,0.56c-0.25,0.24-0.47,0.13-0.67-0.07c-0.21-0.21-0.32-0.45-0.05-0.7
			c0.4-0.38,0.8-0.77,1.21-1.15c0.26-0.24,0.47-0.11,0.66,0.1c0.19,0.2,0.3,0.43,0.05,0.67
			C339.68,230.69,339.48,230.88,339.27,231.08z"/>
		<path class="st6" d="M339.44,232.89c0.21-0.2,0.42-0.39,0.62-0.59c0.2-0.2,0.39-0.16,0.57,0.03c0.18,0.18,0.43,0.38,0.17,0.65
			c-0.42,0.45-0.84,0.89-1.3,1.29c-0.25,0.22-0.49,0.03-0.66-0.18c-0.16-0.19-0.25-0.39-0.02-0.61
			C339.03,233.29,339.24,233.09,339.44,232.89z"/>
		<path class="st6" d="M337.39,229.28c0.29-0.19,0.51-0.36,0.76-0.48c0.34-0.17,0.67-0.09,0.94,0.17c0.19,0.18,0.24,0.37,0,0.58
			c-0.33,0.29-0.63,0.6-0.95,0.9c-0.33,0.31-0.48,0.29-0.79-0.12C337.63,230.03,337.88,229.71,337.39,229.28z"/>
	</g>
	<g>
		<path class="st6" d="M327.32,238.92c0.12,0.12,0.12,0.12,0.83-0.27c0.17,0.13,0.33,0.26,0.51,0.4c-0.22,0.56,0.18,0.83,0.58,1.13
			c-0.39,0.63,0.11,0.92,0.5,1.24c-0.57,0.63-0.05,1.19,0.68,1.47c-0.75,0.37-1.49,0.75-2.24,1.11c-0.07,0.03-0.22-0.01-0.28-0.07
			c-0.8-0.82-1.58-1.65-2.29-2.39c0.14-0.55,0.25-0.99,0.35-1.44c0.15-0.66,0.26-1.34,0.42-1.99c0.22-0.86,1.27-1.2,2-0.68
			c0.22,0.16,0.26,0.5,0.02,0.71C328.07,238.44,327.69,238.66,327.32,238.92z"/>
		<path class="st6" d="M331.1,240.3c-0.19,0.18-0.38,0.35-0.56,0.54c-0.27,0.27-0.51,0.19-0.74-0.05c-0.23-0.24-0.28-0.48,0-0.73
			c0.38-0.34,0.75-0.71,1.12-1.07c0.26-0.25,0.47-0.19,0.69,0.05c0.23,0.24,0.32,0.47,0.04,0.73
			C331.47,239.95,331.29,240.13,331.1,240.3z"/>
		<path class="st6" d="M330.58,239.07c-0.2,0.19-0.39,0.37-0.59,0.56c-0.25,0.24-0.47,0.13-0.67-0.07c-0.21-0.21-0.32-0.45-0.05-0.7
			c0.4-0.38,0.8-0.77,1.21-1.15c0.26-0.24,0.47-0.11,0.66,0.1c0.19,0.2,0.3,0.43,0.05,0.67
			C330.99,238.68,330.78,238.88,330.58,239.07z"/>
		<path class="st6" d="M330.75,240.89c0.21-0.2,0.42-0.39,0.62-0.59c0.2-0.2,0.39-0.16,0.57,0.03c0.18,0.18,0.43,0.38,0.17,0.65
			c-0.42,0.45-0.84,0.89-1.3,1.29c-0.25,0.22-0.49,0.03-0.66-0.18c-0.16-0.19-0.25-0.39-0.02-0.61
			C330.34,241.29,330.55,241.09,330.75,240.89z"/>
		<path class="st6" d="M328.7,237.27c0.29-0.19,0.51-0.36,0.76-0.48c0.34-0.17,0.67-0.09,0.94,0.17c0.19,0.18,0.24,0.37,0,0.58
			c-0.33,0.29-0.63,0.6-0.95,0.9c-0.33,0.31-0.48,0.29-0.79-0.12C328.94,238.03,329.19,237.71,328.7,237.27z"/>
	</g>
	<g>
		<path class="st6" d="M342.92,246.3c0.07,0.11,0.07,0.11,0.68-0.02c0.1,0.13,0.19,0.27,0.3,0.41c-0.28,0.38-0.04,0.66,0.19,0.97
			c-0.43,0.39-0.11,0.71,0.11,1.03c-0.56,0.35-0.29,0.88,0.2,1.25c-0.64,0.12-1.27,0.24-1.91,0.36c-0.06,0.01-0.16-0.05-0.2-0.11
			c-0.42-0.78-0.83-1.57-1.21-2.27c0.22-0.39,0.4-0.69,0.57-1c0.25-0.47,0.48-0.95,0.74-1.4c0.35-0.6,1.21-0.63,1.64-0.08
			c0.13,0.17,0.09,0.43-0.14,0.54C343.59,246.1,343.26,246.19,342.92,246.3z"/>
		<path class="st6" d="M345.46,248.15c-0.18,0.09-0.36,0.18-0.53,0.28c-0.26,0.15-0.42,0.03-0.54-0.19
			c-0.12-0.23-0.11-0.42,0.16-0.55c0.36-0.18,0.71-0.37,1.07-0.56c0.25-0.13,0.39-0.04,0.51,0.18c0.12,0.23,0.14,0.42-0.13,0.56
			C345.81,247.96,345.64,248.05,345.46,248.15z"/>
		<path class="st6" d="M345.33,247.11c-0.19,0.1-0.37,0.19-0.56,0.3c-0.24,0.13-0.38,0-0.48-0.19c-0.11-0.2-0.14-0.4,0.11-0.54
			c0.38-0.2,0.76-0.4,1.15-0.6c0.24-0.13,0.38,0.02,0.47,0.21c0.1,0.19,0.14,0.38-0.1,0.51
			C345.72,246.91,345.52,247.01,345.33,247.11z"/>
		<path class="st6" d="M345.07,248.51c0.2-0.1,0.4-0.21,0.59-0.31c0.19-0.1,0.32-0.03,0.42,0.14c0.1,0.18,0.24,0.37-0.01,0.52
			c-0.41,0.25-0.82,0.49-1.25,0.69c-0.23,0.11-0.37-0.08-0.46-0.28c-0.08-0.18-0.1-0.35,0.12-0.46
			C344.68,248.72,344.88,248.61,345.07,248.51z"/>
		<path class="st6" d="M344.3,245.36c0.26-0.08,0.46-0.16,0.67-0.2c0.29-0.05,0.52,0.07,0.67,0.33c0.1,0.18,0.1,0.33-0.12,0.44
			c-0.31,0.15-0.6,0.32-0.9,0.47c-0.31,0.16-0.42,0.11-0.57-0.26C344.32,245.98,344.58,245.79,344.3,245.36z"/>
	</g>
	<g>
		<path class="st6" d="M339.27,263.91c0.03,0.13,0.03,0.13,0.66,0.19c0.05,0.15,0.1,0.31,0.16,0.48c-0.38,0.27-0.24,0.62-0.11,0.98
			c-0.52,0.24-0.33,0.64-0.21,1.02c-0.64,0.16-0.55,0.75-0.2,1.25c-0.64-0.08-1.29-0.16-1.93-0.25c-0.06-0.01-0.14-0.1-0.15-0.16
			c-0.16-0.87-0.31-1.75-0.45-2.53c0.33-0.3,0.59-0.53,0.85-0.78c0.38-0.37,0.74-0.75,1.14-1.11c0.52-0.46,1.35-0.23,1.59,0.43
			c0.07,0.2-0.05,0.44-0.3,0.47C339.97,263.93,339.63,263.91,339.27,263.91z"/>
		<path class="st6" d="M341.12,266.45c-0.2,0.03-0.4,0.07-0.59,0.11c-0.29,0.06-0.41-0.1-0.45-0.35c-0.05-0.26,0.02-0.43,0.32-0.47
			c0.4-0.06,0.79-0.13,1.19-0.21c0.28-0.05,0.39,0.08,0.43,0.33c0.05,0.26,0,0.44-0.29,0.49
			C341.52,266.37,341.32,266.41,341.12,266.45z"/>
		<path class="st6" d="M341.31,265.42c-0.21,0.04-0.42,0.07-0.62,0.11c-0.27,0.05-0.36-0.12-0.4-0.33
			c-0.04-0.23-0.01-0.43,0.27-0.48c0.43-0.07,0.85-0.15,1.28-0.22c0.27-0.05,0.35,0.13,0.39,0.35c0.03,0.21,0.01,0.41-0.26,0.46
			C341.75,265.35,341.53,265.39,341.31,265.42z"/>
		<path class="st6" d="M340.64,266.67c0.22-0.04,0.44-0.07,0.66-0.12c0.21-0.04,0.32,0.07,0.36,0.26c0.04,0.2,0.11,0.43-0.17,0.5
			c-0.46,0.11-0.93,0.21-1.4,0.28c-0.26,0.04-0.33-0.19-0.35-0.4c-0.02-0.19,0.01-0.36,0.25-0.4
			C340.2,266.76,340.42,266.71,340.64,266.67z"/>
		<path class="st6" d="M340.87,263.44c0.27,0,0.49-0.01,0.7,0.02c0.29,0.04,0.47,0.23,0.53,0.52c0.04,0.2,0,0.34-0.25,0.38
			c-0.34,0.04-0.67,0.12-1,0.17c-0.35,0.06-0.44-0.02-0.46-0.42C340.71,264.04,341,263.94,340.87,263.44z"/>
	</g>
	<g>
		<path class="st6" d="M332.43,279.69c-0.03,0.13-0.03,0.13,0.51,0.45c-0.02,0.16-0.04,0.33-0.07,0.5
			c-0.46,0.08-0.48,0.45-0.53,0.83c-0.57-0.01-0.57,0.43-0.63,0.83c-0.65-0.14-0.82,0.44-0.72,1.04c-0.55-0.35-1.09-0.7-1.63-1.06
			c-0.05-0.03-0.08-0.15-0.07-0.21c0.23-0.86,0.48-1.71,0.69-2.48c0.43-0.13,0.77-0.22,1.1-0.33c0.5-0.16,1-0.36,1.5-0.51
			c0.67-0.19,1.31,0.38,1.25,1.07c-0.02,0.21-0.23,0.37-0.47,0.29C333.06,280,332.76,279.84,332.43,279.69z"/>
		<path class="st6" d="M333.01,282.77c-0.19-0.05-0.39-0.11-0.58-0.16c-0.29-0.07-0.33-0.27-0.26-0.51
			c0.07-0.25,0.21-0.38,0.49-0.29c0.38,0.12,0.77,0.22,1.16,0.33c0.27,0.07,0.31,0.24,0.24,0.48c-0.07,0.25-0.19,0.4-0.48,0.31
			C333.39,282.88,333.2,282.83,333.01,282.77z"/>
		<path class="st6" d="M333.62,281.94c-0.2-0.06-0.41-0.12-0.61-0.17c-0.26-0.07-0.28-0.26-0.22-0.47c0.06-0.22,0.17-0.39,0.45-0.31
			c0.42,0.12,0.83,0.23,1.25,0.35c0.26,0.08,0.26,0.27,0.2,0.48c-0.06,0.2-0.17,0.37-0.43,0.3
			C334.05,282.06,333.84,282,333.62,281.94z"/>
		<path class="st6" d="M332.47,282.77c0.21,0.06,0.43,0.12,0.64,0.18c0.21,0.06,0.26,0.2,0.21,0.39c-0.05,0.19-0.08,0.44-0.37,0.37
			c-0.47-0.1-0.93-0.21-1.38-0.36c-0.25-0.08-0.21-0.32-0.14-0.52c0.06-0.18,0.17-0.32,0.4-0.25
			C332.05,282.66,332.26,282.71,332.47,282.77z"/>
		<path class="st6" d="M334.08,279.96c0.24,0.12,0.45,0.2,0.63,0.32c0.25,0.16,0.33,0.41,0.26,0.7c-0.05,0.2-0.15,0.31-0.39,0.23
			c-0.32-0.1-0.65-0.18-0.98-0.28c-0.34-0.1-0.38-0.21-0.23-0.58C333.68,280.42,333.99,280.46,334.08,279.96z"/>
	</g>
	<g>
		<path class="st6" d="M336.74,271.71c-0.03,0.13-0.03,0.13,0.51,0.45c-0.02,0.16-0.04,0.33-0.07,0.5
			c-0.46,0.08-0.48,0.45-0.53,0.83c-0.57-0.01-0.57,0.43-0.63,0.83c-0.65-0.14-0.82,0.44-0.72,1.04c-0.55-0.35-1.09-0.7-1.63-1.06
			c-0.05-0.03-0.08-0.15-0.07-0.21c0.23-0.86,0.48-1.71,0.69-2.48c0.43-0.13,0.77-0.22,1.1-0.33c0.5-0.16,1-0.36,1.5-0.51
			c0.67-0.19,1.31,0.38,1.25,1.07c-0.02,0.21-0.23,0.37-0.47,0.29C337.36,272.03,337.06,271.86,336.74,271.71z"/>
		<path class="st6" d="M337.31,274.79c-0.19-0.05-0.39-0.11-0.58-0.16c-0.29-0.07-0.33-0.27-0.26-0.51
			c0.07-0.25,0.21-0.38,0.49-0.29c0.38,0.12,0.77,0.22,1.16,0.33c0.27,0.07,0.31,0.24,0.24,0.48c-0.07,0.25-0.19,0.4-0.48,0.31
			C337.7,274.9,337.5,274.85,337.31,274.79z"/>
		<path class="st6" d="M337.92,273.96c-0.2-0.06-0.41-0.12-0.61-0.17c-0.26-0.07-0.28-0.26-0.22-0.47c0.06-0.22,0.17-0.39,0.45-0.31
			c0.42,0.12,0.83,0.23,1.25,0.35c0.26,0.08,0.26,0.27,0.2,0.48c-0.06,0.2-0.16,0.37-0.43,0.3
			C338.35,274.08,338.14,274.02,337.92,273.96z"/>
		<path class="st6" d="M336.78,274.79c0.22,0.06,0.43,0.12,0.64,0.18c0.21,0.06,0.26,0.2,0.21,0.39c-0.05,0.19-0.08,0.44-0.37,0.37
			c-0.47-0.1-0.93-0.21-1.38-0.36c-0.25-0.08-0.21-0.32-0.14-0.52c0.06-0.18,0.17-0.32,0.4-0.25
			C336.35,274.68,336.56,274.73,336.78,274.79z"/>
		<path class="st6" d="M338.39,271.98c0.24,0.12,0.45,0.2,0.63,0.32c0.25,0.16,0.33,0.41,0.26,0.7c-0.05,0.2-0.15,0.31-0.39,0.23
			c-0.32-0.1-0.65-0.18-0.98-0.28c-0.34-0.1-0.38-0.21-0.23-0.58C337.98,272.44,338.29,272.48,338.39,271.98z"/>
	</g>
	<g>
		<path class="st6" d="M334.66,251.49c0.06,0.09,0.06,0.09,0.57-0.02c0.08,0.11,0.16,0.22,0.25,0.34c-0.23,0.31-0.03,0.55,0.16,0.8
			c-0.35,0.32-0.1,0.59,0.09,0.86c-0.47,0.29-0.24,0.73,0.16,1.04c-0.53,0.1-1.06,0.2-1.59,0.3c-0.05,0.01-0.14-0.04-0.16-0.09
			c-0.35-0.65-0.69-1.3-1-1.89c0.18-0.32,0.33-0.57,0.47-0.83c0.21-0.39,0.4-0.79,0.62-1.17c0.29-0.5,1.01-0.52,1.37-0.07
			c0.11,0.14,0.07,0.36-0.12,0.45C335.21,251.33,334.94,251.4,334.66,251.49z"/>
		<path class="st6" d="M336.77,253.02c-0.15,0.08-0.3,0.15-0.44,0.23c-0.21,0.12-0.35,0.03-0.45-0.16c-0.1-0.19-0.09-0.35,0.13-0.45
			c0.3-0.15,0.59-0.31,0.89-0.47c0.2-0.11,0.32-0.04,0.42,0.15c0.1,0.19,0.11,0.35-0.11,0.46
			C337.06,252.87,336.92,252.95,336.77,253.02z"/>
		<path class="st6" d="M336.66,252.17c-0.15,0.08-0.31,0.16-0.46,0.25c-0.2,0.11-0.32,0-0.4-0.16c-0.09-0.17-0.12-0.33,0.09-0.45
			c0.32-0.17,0.63-0.34,0.95-0.5c0.2-0.11,0.31,0.02,0.39,0.18c0.08,0.16,0.11,0.32-0.08,0.43
			C336.99,252,336.82,252.08,336.66,252.17z"/>
		<path class="st6" d="M336.45,253.33c0.16-0.09,0.33-0.17,0.49-0.26c0.16-0.09,0.27-0.03,0.35,0.12c0.08,0.15,0.2,0.31-0.01,0.44
			c-0.34,0.2-0.68,0.41-1.04,0.58c-0.19,0.09-0.31-0.07-0.38-0.23c-0.07-0.15-0.09-0.29,0.1-0.38
			C336.12,253.5,336.28,253.41,336.45,253.33z"/>
		<path class="st6" d="M335.81,250.71c0.21-0.06,0.38-0.13,0.56-0.17c0.24-0.04,0.43,0.06,0.55,0.27c0.08,0.15,0.09,0.27-0.1,0.36
			c-0.25,0.12-0.5,0.26-0.75,0.39c-0.26,0.13-0.35,0.09-0.47-0.22C335.82,251.22,336.04,251.07,335.81,250.71z"/>
	</g>
	<g>
		<path class="st6" d="M323.37,218.81c0.09,0.09,0.09,0.09,0.64-0.19c0.12,0.1,0.25,0.2,0.38,0.31c-0.17,0.43,0.13,0.64,0.42,0.86
			c-0.31,0.47,0.07,0.7,0.36,0.95c-0.45,0.47-0.06,0.9,0.5,1.13c-0.57,0.27-1.14,0.55-1.72,0.81c-0.05,0.02-0.17-0.01-0.21-0.05
			c-0.59-0.63-1.18-1.27-1.71-1.85c0.11-0.42,0.21-0.75,0.29-1.09c0.12-0.5,0.21-1.01,0.35-1.51c0.18-0.65,0.99-0.9,1.53-0.49
			c0.16,0.12,0.19,0.39,0,0.54C323.95,218.46,323.66,218.62,323.37,218.81z"/>
		<path class="st6" d="M326.23,219.92c-0.14,0.13-0.29,0.26-0.43,0.4c-0.21,0.2-0.39,0.14-0.56-0.05c-0.17-0.19-0.21-0.37,0.01-0.55
			c0.3-0.26,0.58-0.53,0.87-0.8c0.2-0.19,0.36-0.14,0.53,0.04c0.17,0.19,0.23,0.36,0.02,0.56
			C326.51,219.65,326.37,219.79,326.23,219.92z"/>
		<path class="st6" d="M325.85,218.98c-0.15,0.14-0.3,0.28-0.45,0.42c-0.19,0.18-0.36,0.1-0.51-0.06c-0.15-0.16-0.24-0.34-0.03-0.53
			c0.31-0.29,0.62-0.57,0.93-0.86c0.2-0.18,0.36-0.08,0.5,0.08c0.14,0.16,0.23,0.33,0.03,0.51
			C326.17,218.69,326.01,218.83,325.85,218.98z"/>
		<path class="st6" d="M325.95,220.36c0.16-0.15,0.32-0.29,0.48-0.44c0.15-0.15,0.3-0.11,0.43,0.03c0.13,0.14,0.32,0.29,0.12,0.5
			c-0.32,0.33-0.65,0.66-1.01,0.97c-0.19,0.16-0.37,0.01-0.5-0.15c-0.12-0.15-0.18-0.3,0-0.46
			C325.64,220.66,325.79,220.51,325.95,220.36z"/>
		<path class="st6" d="M324.44,217.58c0.22-0.14,0.4-0.27,0.59-0.36c0.26-0.12,0.51-0.06,0.71,0.14c0.14,0.14,0.18,0.28,0,0.44
			c-0.25,0.21-0.49,0.45-0.73,0.67c-0.26,0.23-0.37,0.21-0.6-0.1C324.62,218.16,324.81,217.92,324.44,217.58z"/>
	</g>
	<g>
		<path class="st6" d="M335.8,243.35c0.07,0.11,0.07,0.11,0.68-0.02c0.1,0.13,0.19,0.27,0.3,0.41c-0.28,0.38-0.04,0.66,0.19,0.97
			c-0.43,0.39-0.11,0.71,0.11,1.03c-0.56,0.35-0.29,0.88,0.2,1.25c-0.64,0.12-1.27,0.24-1.91,0.36c-0.06,0.01-0.16-0.05-0.2-0.11
			c-0.42-0.78-0.83-1.57-1.21-2.27c0.22-0.39,0.4-0.69,0.57-1c0.25-0.47,0.48-0.95,0.74-1.4c0.35-0.6,1.21-0.63,1.64-0.08
			c0.13,0.17,0.09,0.43-0.14,0.54C336.47,243.15,336.14,243.24,335.8,243.35z"/>
		<path class="st6" d="M338.34,245.19c-0.18,0.09-0.36,0.18-0.53,0.28c-0.26,0.15-0.42,0.03-0.54-0.19
			c-0.12-0.23-0.11-0.42,0.16-0.55c0.36-0.18,0.71-0.37,1.07-0.56c0.25-0.13,0.39-0.04,0.51,0.18c0.12,0.23,0.14,0.42-0.13,0.56
			C338.69,245.01,338.51,245.1,338.34,245.19z"/>
		<path class="st6" d="M338.21,244.16c-0.19,0.1-0.37,0.19-0.56,0.3c-0.24,0.13-0.38,0-0.48-0.19c-0.11-0.2-0.14-0.4,0.11-0.54
			c0.38-0.2,0.76-0.4,1.15-0.6c0.24-0.13,0.38,0.02,0.47,0.21c0.1,0.19,0.14,0.38-0.1,0.51C338.6,243.96,338.4,244.06,338.21,244.16
			z"/>
		<path class="st6" d="M337.95,245.56c0.2-0.1,0.4-0.21,0.59-0.31c0.19-0.1,0.32-0.03,0.42,0.14c0.1,0.18,0.24,0.37-0.01,0.52
			c-0.41,0.25-0.82,0.49-1.25,0.69c-0.23,0.11-0.37-0.08-0.46-0.28c-0.08-0.18-0.1-0.35,0.12-0.46
			C337.56,245.77,337.75,245.66,337.95,245.56z"/>
		<path class="st6" d="M337.18,242.41c0.26-0.08,0.46-0.16,0.67-0.2c0.29-0.05,0.52,0.07,0.67,0.33c0.1,0.18,0.1,0.33-0.12,0.44
			c-0.31,0.15-0.6,0.32-0.9,0.47c-0.31,0.16-0.42,0.11-0.57-0.26C337.2,243.03,337.46,242.84,337.18,242.41z"/>
	</g>
	<g>
		<path class="st6" d="M327.61,248.23c0.07,0.11,0.07,0.11,0.68-0.02c0.1,0.13,0.19,0.27,0.3,0.41c-0.28,0.38-0.04,0.66,0.19,0.97
			c-0.43,0.39-0.11,0.71,0.11,1.03c-0.56,0.35-0.29,0.88,0.2,1.25c-0.64,0.12-1.27,0.24-1.91,0.36c-0.06,0.01-0.16-0.05-0.2-0.11
			c-0.42-0.78-0.83-1.57-1.21-2.27c0.22-0.39,0.4-0.69,0.57-1c0.25-0.47,0.48-0.95,0.74-1.4c0.35-0.6,1.21-0.63,1.64-0.08
			c0.13,0.17,0.09,0.43-0.14,0.54C328.28,248.03,327.95,248.11,327.61,248.23z"/>
		<path class="st6" d="M330.15,250.07c-0.18,0.09-0.36,0.18-0.53,0.28c-0.26,0.15-0.42,0.03-0.54-0.19
			c-0.12-0.23-0.11-0.42,0.16-0.55c0.36-0.18,0.71-0.37,1.07-0.56c0.25-0.13,0.39-0.04,0.51,0.18c0.12,0.23,0.14,0.42-0.13,0.56
			C330.51,249.88,330.33,249.98,330.15,250.07z"/>
		<path class="st6" d="M330.02,249.04c-0.19,0.1-0.37,0.19-0.56,0.3c-0.24,0.13-0.38,0-0.48-0.19c-0.11-0.2-0.14-0.4,0.11-0.54
			c0.38-0.2,0.76-0.4,1.15-0.6c0.24-0.13,0.38,0.02,0.47,0.21c0.1,0.19,0.14,0.38-0.1,0.51
			C330.41,248.83,330.22,248.94,330.02,249.04z"/>
		<path class="st6" d="M329.77,250.43c0.2-0.1,0.4-0.21,0.59-0.31c0.19-0.1,0.32-0.03,0.42,0.14c0.1,0.18,0.24,0.37-0.01,0.52
			c-0.41,0.25-0.82,0.49-1.25,0.69c-0.23,0.11-0.37-0.08-0.46-0.28c-0.08-0.18-0.1-0.35,0.12-0.46
			C329.37,250.65,329.57,250.54,329.77,250.43z"/>
		<path class="st6" d="M329,247.29c0.26-0.08,0.46-0.16,0.67-0.2c0.29-0.05,0.52,0.07,0.67,0.33c0.1,0.18,0.1,0.33-0.12,0.44
			c-0.31,0.15-0.6,0.32-0.9,0.47c-0.31,0.16-0.42,0.11-0.57-0.26C329.02,247.9,329.27,247.72,329,247.29z"/>
	</g>
	<g>
		<path class="st6" d="M320.76,263.98c0.03,0.13,0.03,0.13,0.66,0.19c0.05,0.15,0.1,0.31,0.16,0.48c-0.38,0.27-0.24,0.62-0.11,0.98
			c-0.52,0.24-0.33,0.64-0.21,1.02c-0.64,0.16-0.55,0.75-0.19,1.25c-0.64-0.08-1.29-0.16-1.93-0.25c-0.06-0.01-0.14-0.1-0.15-0.16
			c-0.16-0.87-0.31-1.75-0.45-2.53c0.33-0.3,0.59-0.53,0.85-0.78c0.38-0.37,0.74-0.76,1.14-1.11c0.52-0.46,1.35-0.23,1.59,0.42
			c0.07,0.2-0.05,0.44-0.3,0.47C321.46,263.99,321.12,263.97,320.76,263.98z"/>
		<path class="st6" d="M322.62,266.51c-0.2,0.03-0.4,0.07-0.59,0.11c-0.29,0.06-0.41-0.1-0.45-0.35c-0.05-0.26,0.02-0.43,0.32-0.47
			c0.4-0.06,0.79-0.13,1.19-0.21c0.28-0.05,0.39,0.08,0.43,0.33c0.05,0.26,0,0.44-0.29,0.49
			C323.01,266.44,322.82,266.48,322.62,266.51z"/>
		<path class="st6" d="M322.81,265.49c-0.21,0.04-0.42,0.07-0.62,0.11c-0.27,0.05-0.36-0.12-0.4-0.33
			c-0.04-0.23-0.01-0.43,0.27-0.48c0.43-0.07,0.85-0.15,1.28-0.22c0.27-0.05,0.35,0.13,0.39,0.35c0.03,0.21,0.01,0.41-0.25,0.46
			C323.24,265.41,323.03,265.45,322.81,265.49z"/>
		<path class="st6" d="M322.14,266.74c0.22-0.04,0.44-0.08,0.66-0.12c0.21-0.04,0.32,0.07,0.36,0.26c0.04,0.2,0.11,0.43-0.17,0.5
			c-0.46,0.11-0.93,0.21-1.4,0.28c-0.26,0.04-0.33-0.19-0.35-0.4c-0.02-0.19,0.01-0.36,0.25-0.4
			C321.7,266.82,321.92,266.78,322.14,266.74z"/>
		<path class="st6" d="M322.37,263.51c0.27,0,0.49-0.01,0.7,0.02c0.29,0.04,0.47,0.23,0.53,0.52c0.04,0.2,0,0.34-0.25,0.38
			c-0.34,0.05-0.67,0.12-1,0.17c-0.35,0.06-0.44-0.02-0.46-0.42C322.2,264.1,322.5,264,322.37,263.51z"/>
	</g>
	<g>
		<path class="st6" d="M311.99,279.2c0.02,0.11,0.02,0.11,0.55,0.16c0.04,0.13,0.09,0.26,0.13,0.4c-0.32,0.23-0.2,0.52-0.09,0.82
			c-0.44,0.2-0.27,0.53-0.18,0.85c-0.54,0.13-0.46,0.62-0.16,1.04c-0.54-0.07-1.08-0.13-1.61-0.21c-0.05-0.01-0.12-0.08-0.13-0.14
			c-0.14-0.73-0.26-1.46-0.38-2.12c0.27-0.25,0.5-0.45,0.71-0.65c0.32-0.31,0.62-0.63,0.95-0.93c0.43-0.39,1.12-0.19,1.33,0.36
			c0.06,0.17-0.04,0.37-0.25,0.39C312.57,279.21,312.29,279.2,311.99,279.2z"/>
		<path class="st6" d="M313.54,281.32c-0.16,0.03-0.33,0.05-0.5,0.09c-0.24,0.05-0.34-0.08-0.38-0.29
			c-0.04-0.21,0.02-0.36,0.27-0.39c0.33-0.05,0.66-0.11,0.99-0.17c0.23-0.04,0.32,0.07,0.36,0.27c0.04,0.21,0,0.37-0.24,0.41
			C313.87,281.26,313.7,281.29,313.54,281.32z"/>
		<path class="st6" d="M313.7,280.46c-0.17,0.03-0.35,0.06-0.52,0.09c-0.22,0.04-0.3-0.1-0.34-0.28c-0.04-0.19-0.01-0.36,0.23-0.4
			c0.36-0.06,0.71-0.13,1.07-0.19c0.23-0.04,0.3,0.11,0.32,0.29c0.03,0.18,0.01,0.34-0.21,0.38
			C314.06,280.4,313.88,280.43,313.7,280.46z"/>
		<path class="st6" d="M313.14,281.51c0.18-0.03,0.37-0.06,0.55-0.1c0.18-0.03,0.27,0.06,0.3,0.22c0.03,0.16,0.1,0.36-0.14,0.41
			c-0.39,0.09-0.78,0.18-1.17,0.23c-0.22,0.03-0.27-0.16-0.29-0.34c-0.02-0.16,0.01-0.3,0.21-0.33
			C312.77,281.58,312.96,281.54,313.14,281.51z"/>
		<path class="st6" d="M313.33,278.81c0.22,0,0.41-0.01,0.59,0.01c0.24,0.03,0.39,0.19,0.45,0.43c0.04,0.17,0,0.29-0.21,0.32
			c-0.28,0.04-0.56,0.1-0.84,0.15c-0.29,0.05-0.36-0.02-0.39-0.35C313.19,279.3,313.44,279.22,313.33,278.81z"/>
	</g>
	<g>
		<path class="st6" d="M328.44,267.07c0.02,0.13,0.02,0.13,0.64,0.24c0.04,0.16,0.08,0.32,0.12,0.49c-0.41,0.24-0.29,0.6-0.2,0.97
			c-0.54,0.19-0.38,0.61-0.3,1c-0.66,0.1-0.61,0.7-0.3,1.22c-0.63-0.14-1.27-0.27-1.9-0.42c-0.06-0.01-0.13-0.11-0.14-0.18
			c-0.08-0.89-0.16-1.77-0.23-2.56c0.35-0.27,0.64-0.48,0.91-0.7c0.41-0.33,0.81-0.69,1.23-1c0.55-0.41,1.36-0.11,1.54,0.56
			c0.06,0.2-0.09,0.43-0.34,0.44C329.14,267.14,328.8,267.09,328.44,267.07z"/>
		<path class="st6" d="M330.07,269.75c-0.2,0.02-0.4,0.03-0.6,0.05c-0.29,0.03-0.4-0.13-0.42-0.39c-0.02-0.26,0.06-0.42,0.36-0.44
			c0.4-0.02,0.8-0.06,1.2-0.1c0.28-0.03,0.38,0.11,0.4,0.37c0.02,0.26-0.04,0.44-0.33,0.46
			C330.47,269.71,330.27,269.73,330.07,269.75z"/>
		<path class="st6" d="M330.35,268.75c-0.21,0.02-0.42,0.03-0.63,0.06c-0.27,0.03-0.35-0.15-0.37-0.36
			c-0.02-0.23,0.02-0.43,0.31-0.45c0.43-0.04,0.86-0.08,1.29-0.11c0.27-0.02,0.34,0.16,0.35,0.38c0.01,0.21-0.02,0.41-0.29,0.43
			C330.79,268.71,330.57,268.73,330.35,268.75z"/>
		<path class="st6" d="M329.57,269.94c0.22-0.02,0.44-0.04,0.67-0.06c0.22-0.02,0.31,0.09,0.33,0.29c0.02,0.2,0.08,0.44-0.21,0.48
			c-0.47,0.07-0.95,0.13-1.42,0.15c-0.26,0.01-0.31-0.22-0.31-0.43c0-0.19,0.04-0.36,0.29-0.38
			C329.13,269.98,329.35,269.95,329.57,269.94z"/>
		<path class="st6" d="M330.08,266.74c0.27,0.03,0.49,0.03,0.7,0.08c0.29,0.07,0.45,0.27,0.49,0.56c0.02,0.2-0.03,0.34-0.28,0.35
			c-0.34,0.02-0.68,0.06-1.01,0.08c-0.35,0.03-0.43-0.06-0.42-0.46C329.86,267.31,330.17,267.24,330.08,266.74z"/>
	</g>
	<g>
		<path class="st6" d="M327.16,273.97c0.02,0.13,0.02,0.13,0.64,0.24c0.04,0.16,0.08,0.32,0.12,0.49c-0.41,0.24-0.29,0.6-0.2,0.97
			c-0.54,0.19-0.38,0.61-0.3,1c-0.66,0.1-0.61,0.7-0.3,1.22c-0.63-0.14-1.27-0.27-1.9-0.42c-0.06-0.01-0.13-0.11-0.14-0.18
			c-0.08-0.89-0.16-1.77-0.23-2.56c0.35-0.27,0.64-0.48,0.91-0.7c0.41-0.33,0.81-0.69,1.23-1c0.55-0.41,1.36-0.11,1.54,0.56
			c0.06,0.2-0.09,0.43-0.34,0.44C327.86,274.04,327.52,273.99,327.16,273.97z"/>
		<path class="st6" d="M328.78,276.65c-0.2,0.02-0.4,0.03-0.6,0.05c-0.29,0.03-0.4-0.13-0.42-0.39c-0.02-0.26,0.06-0.42,0.36-0.44
			c0.4-0.02,0.8-0.06,1.2-0.1c0.28-0.03,0.38,0.11,0.4,0.37c0.02,0.26-0.04,0.44-0.33,0.46
			C329.18,276.61,328.98,276.63,328.78,276.65z"/>
		<path class="st6" d="M329.06,275.65c-0.21,0.02-0.42,0.03-0.63,0.06c-0.27,0.03-0.35-0.15-0.37-0.36
			c-0.02-0.23,0.02-0.43,0.31-0.45c0.43-0.04,0.86-0.08,1.29-0.11c0.27-0.02,0.34,0.16,0.35,0.38c0.01,0.21-0.02,0.41-0.29,0.43
			C329.51,275.61,329.29,275.63,329.06,275.65z"/>
		<path class="st6" d="M328.29,276.83c0.22-0.02,0.44-0.04,0.67-0.06c0.22-0.02,0.31,0.09,0.33,0.29c0.02,0.2,0.08,0.44-0.21,0.48
			c-0.47,0.07-0.95,0.13-1.42,0.15c-0.26,0.01-0.31-0.22-0.31-0.43c0-0.19,0.04-0.36,0.29-0.38
			C327.84,276.88,328.07,276.85,328.29,276.83z"/>
		<path class="st6" d="M328.8,273.63c0.27,0.03,0.49,0.03,0.7,0.08c0.29,0.07,0.45,0.27,0.49,0.56c0.02,0.2-0.03,0.34-0.28,0.35
			c-0.34,0.02-0.68,0.06-1.01,0.08c-0.35,0.03-0.43-0.06-0.42-0.46C328.58,274.21,328.89,274.14,328.8,273.63z"/>
	</g>
	<g>
		<path class="st6" d="M319.14,288.65c-0.03,0.13-0.03,0.13,0.52,0.45c-0.02,0.16-0.04,0.33-0.06,0.5
			c-0.46,0.08-0.48,0.46-0.52,0.84c-0.58-0.01-0.57,0.44-0.62,0.83c-0.65-0.13-0.81,0.45-0.7,1.05c-0.55-0.35-1.1-0.69-1.65-1.04
			c-0.05-0.03-0.09-0.15-0.07-0.21c0.22-0.86,0.45-1.72,0.66-2.49c0.42-0.13,0.76-0.23,1.1-0.35c0.5-0.17,0.99-0.37,1.5-0.52
			c0.66-0.2,1.32,0.36,1.26,1.06c-0.02,0.21-0.23,0.38-0.47,0.3C319.76,288.96,319.46,288.79,319.14,288.65z"/>
		<path class="st6" d="M319.75,291.73c-0.19-0.05-0.39-0.11-0.58-0.15c-0.29-0.07-0.33-0.26-0.26-0.51c0.07-0.25,0.2-0.38,0.49-0.29
			c0.38,0.12,0.77,0.22,1.16,0.31c0.27,0.07,0.32,0.23,0.25,0.48c-0.07,0.25-0.19,0.4-0.47,0.32
			C320.14,291.83,319.94,291.78,319.75,291.73z"/>
		<path class="st6" d="M320.35,290.88c-0.2-0.05-0.41-0.11-0.61-0.16c-0.26-0.07-0.28-0.26-0.23-0.47c0.06-0.22,0.17-0.39,0.45-0.32
			c0.42,0.11,0.84,0.22,1.25,0.34c0.26,0.07,0.26,0.27,0.2,0.48c-0.06,0.2-0.16,0.38-0.42,0.31
			C320.78,291,320.57,290.94,320.35,290.88z"/>
		<path class="st6" d="M319.22,291.73c0.22,0.06,0.43,0.12,0.65,0.17c0.21,0.05,0.26,0.2,0.21,0.39c-0.05,0.19-0.08,0.44-0.36,0.38
			c-0.47-0.1-0.93-0.2-1.39-0.34c-0.25-0.08-0.22-0.31-0.15-0.51c0.06-0.18,0.16-0.33,0.4-0.26
			C318.78,291.62,319,291.67,319.22,291.73z"/>
		<path class="st6" d="M320.79,288.9c0.24,0.12,0.45,0.2,0.63,0.31c0.25,0.16,0.33,0.41,0.27,0.69c-0.05,0.2-0.15,0.31-0.38,0.24
			c-0.32-0.1-0.66-0.18-0.98-0.27c-0.34-0.1-0.39-0.2-0.24-0.58C320.39,289.37,320.7,289.4,320.79,288.9z"/>
	</g>
	<g>
		<path class="st6" d="M313.42,294.17c-0.03,0.13-0.03,0.13,0.52,0.45c-0.02,0.16-0.04,0.33-0.06,0.5
			c-0.46,0.08-0.48,0.46-0.52,0.84c-0.58-0.01-0.57,0.44-0.62,0.83c-0.65-0.13-0.81,0.45-0.7,1.05c-0.55-0.35-1.1-0.69-1.65-1.04
			c-0.05-0.03-0.09-0.15-0.07-0.21c0.22-0.86,0.45-1.72,0.66-2.49c0.42-0.13,0.76-0.23,1.1-0.35c0.5-0.17,0.99-0.37,1.5-0.52
			c0.66-0.2,1.32,0.36,1.26,1.06c-0.02,0.21-0.23,0.38-0.47,0.3C314.05,294.48,313.74,294.31,313.42,294.17z"/>
		<path class="st6" d="M314.03,297.25c-0.19-0.05-0.39-0.11-0.58-0.15c-0.29-0.07-0.33-0.26-0.26-0.51c0.07-0.25,0.2-0.38,0.49-0.29
			c0.38,0.12,0.77,0.22,1.16,0.31c0.27,0.07,0.32,0.23,0.25,0.48c-0.07,0.25-0.19,0.4-0.47,0.32
			C314.42,297.35,314.22,297.3,314.03,297.25z"/>
		<path class="st6" d="M314.63,296.4c-0.2-0.05-0.41-0.11-0.61-0.16c-0.26-0.07-0.28-0.26-0.23-0.47c0.06-0.22,0.17-0.39,0.45-0.32
			c0.42,0.11,0.84,0.22,1.25,0.34c0.26,0.07,0.26,0.27,0.2,0.48c-0.06,0.2-0.16,0.38-0.42,0.31
			C315.06,296.52,314.85,296.46,314.63,296.4z"/>
		<path class="st6" d="M313.5,297.25c0.22,0.06,0.43,0.12,0.65,0.17c0.21,0.05,0.26,0.2,0.21,0.39c-0.05,0.19-0.08,0.44-0.36,0.38
			c-0.47-0.1-0.93-0.2-1.39-0.34c-0.25-0.08-0.22-0.31-0.15-0.51c0.06-0.18,0.16-0.33,0.4-0.26
			C313.07,297.14,313.28,297.19,313.5,297.25z"/>
		<path class="st6" d="M315.07,294.42c0.24,0.12,0.45,0.2,0.63,0.31c0.25,0.16,0.33,0.41,0.27,0.69c-0.05,0.2-0.15,0.31-0.38,0.24
			c-0.32-0.1-0.66-0.18-0.98-0.27c-0.34-0.1-0.39-0.2-0.24-0.58C314.67,294.88,314.98,294.92,315.07,294.42z"/>
	</g>
	<g>
		<path class="st6" d="M323.97,282.04c-0.02,0.13-0.02,0.13,0.56,0.39c0,0.16-0.01,0.33-0.01,0.51c-0.45,0.13-0.43,0.51-0.43,0.89
			c-0.57,0.05-0.52,0.5-0.54,0.89c-0.66-0.06-0.76,0.52-0.59,1.11c-0.58-0.29-1.16-0.57-1.74-0.87c-0.05-0.03-0.1-0.14-0.09-0.21
			c0.13-0.88,0.28-1.76,0.41-2.54c0.41-0.18,0.74-0.31,1.06-0.46c0.48-0.22,0.95-0.47,1.44-0.67c0.64-0.27,1.35,0.23,1.36,0.92
			c0,0.21-0.19,0.4-0.43,0.34C324.63,282.28,324.31,282.15,323.97,282.04z"/>
		<path class="st6" d="M324.89,285.04c-0.2-0.03-0.4-0.07-0.6-0.1c-0.29-0.04-0.36-0.23-0.31-0.48c0.04-0.26,0.16-0.4,0.45-0.34
			c0.39,0.08,0.79,0.14,1.19,0.19c0.28,0.04,0.34,0.2,0.3,0.45c-0.04,0.26-0.14,0.42-0.44,0.37
			C325.29,285.1,325.09,285.07,324.89,285.04z"/>
		<path class="st6" d="M325.41,284.14c-0.21-0.03-0.42-0.07-0.62-0.1c-0.27-0.04-0.3-0.23-0.27-0.44c0.03-0.23,0.13-0.41,0.41-0.36
			c0.43,0.07,0.85,0.14,1.28,0.21c0.27,0.05,0.29,0.24,0.25,0.46c-0.04,0.21-0.12,0.39-0.39,0.35
			C325.84,284.21,325.63,284.17,325.41,284.14z"/>
		<path class="st6" d="M324.36,285.1c0.22,0.04,0.44,0.07,0.66,0.11c0.22,0.03,0.28,0.17,0.25,0.36c-0.03,0.2-0.03,0.44-0.32,0.41
			c-0.47-0.05-0.95-0.11-1.42-0.2c-0.26-0.05-0.25-0.29-0.2-0.5c0.04-0.19,0.13-0.34,0.37-0.29
			C323.92,285.03,324.14,285.06,324.36,285.1z"/>
		<path class="st6" d="M325.64,282.12c0.25,0.09,0.47,0.15,0.66,0.25c0.26,0.13,0.37,0.37,0.33,0.66c-0.03,0.2-0.12,0.33-0.36,0.28
			c-0.33-0.07-0.67-0.11-1-0.17c-0.35-0.06-0.4-0.16-0.3-0.55C325.29,282.62,325.6,282.63,325.64,282.12z"/>
	</g>
	<g>
		<path class="st6" d="M318.64,273.04c0.02,0.13,0.02,0.13,0.64,0.24c0.04,0.16,0.08,0.32,0.12,0.49c-0.41,0.24-0.29,0.6-0.2,0.97
			c-0.54,0.19-0.38,0.61-0.3,1c-0.66,0.1-0.61,0.7-0.3,1.22c-0.63-0.14-1.27-0.27-1.9-0.42c-0.06-0.01-0.13-0.11-0.14-0.18
			c-0.08-0.89-0.16-1.77-0.23-2.56c0.35-0.27,0.64-0.48,0.91-0.7c0.41-0.33,0.81-0.69,1.23-1c0.55-0.41,1.36-0.11,1.54,0.56
			c0.06,0.2-0.09,0.43-0.34,0.44C319.34,273.11,319,273.06,318.64,273.04z"/>
		<path class="st6" d="M320.27,275.72c-0.2,0.02-0.4,0.03-0.6,0.05c-0.29,0.03-0.4-0.13-0.42-0.39c-0.02-0.26,0.06-0.42,0.36-0.44
			c0.4-0.02,0.8-0.06,1.2-0.1c0.28-0.03,0.38,0.11,0.4,0.37c0.02,0.26-0.04,0.44-0.33,0.46
			C320.67,275.68,320.47,275.7,320.27,275.72z"/>
		<path class="st6" d="M320.55,274.72c-0.21,0.02-0.42,0.03-0.63,0.06c-0.27,0.03-0.35-0.15-0.37-0.36
			c-0.02-0.23,0.02-0.43,0.31-0.45c0.43-0.04,0.86-0.08,1.29-0.11c0.27-0.02,0.34,0.16,0.35,0.38c0.01,0.21-0.02,0.41-0.29,0.43
			C320.99,274.68,320.77,274.7,320.55,274.72z"/>
		<path class="st6" d="M319.77,275.9c0.22-0.02,0.44-0.04,0.67-0.06c0.22-0.02,0.31,0.09,0.33,0.29c0.02,0.2,0.08,0.44-0.21,0.48
			c-0.47,0.07-0.95,0.13-1.42,0.15c-0.26,0.01-0.31-0.22-0.31-0.43c0-0.19,0.04-0.36,0.29-0.38
			C319.33,275.95,319.55,275.92,319.77,275.9z"/>
		<path class="st6" d="M320.28,272.7c0.27,0.03,0.49,0.03,0.7,0.08c0.29,0.07,0.45,0.27,0.49,0.56c0.02,0.2-0.03,0.34-0.28,0.35
			c-0.34,0.02-0.68,0.06-1.01,0.08c-0.35,0.03-0.43-0.06-0.42-0.46C320.06,273.28,320.37,273.21,320.28,272.7z"/>
	</g>
	<g>
		<path class="st6" d="M329.69,258.53c0.05,0.15,0.05,0.15,0.79,0.13c0.08,0.17,0.16,0.35,0.25,0.54c-0.41,0.37-0.2,0.75-0.01,1.16
			c-0.58,0.34-0.3,0.79-0.12,1.22c-0.73,0.27-0.54,0.94-0.07,1.48c-0.76-0.01-1.52-0.02-2.28-0.04c-0.07,0-0.18-0.1-0.2-0.17
			c-0.3-1-0.59-2-0.85-2.9c0.34-0.39,0.63-0.7,0.89-1.02c0.4-0.48,0.77-0.98,1.18-1.44c0.54-0.61,1.54-0.44,1.91,0.29
			c0.11,0.22,0,0.52-0.29,0.58C330.51,258.45,330.1,258.47,329.69,258.53z"/>
		<path class="st6" d="M332.18,261.24c-0.23,0.07-0.45,0.13-0.68,0.2c-0.33,0.11-0.49-0.06-0.58-0.35c-0.09-0.29-0.03-0.5,0.31-0.59
			c0.46-0.12,0.91-0.26,1.36-0.39c0.31-0.1,0.46,0.04,0.54,0.33c0.09,0.29,0.06,0.52-0.28,0.61
			C332.63,261.11,332.4,261.18,332.18,261.24z"/>
		<path class="st6" d="M332.27,260.02c-0.24,0.07-0.48,0.14-0.71,0.21c-0.31,0.09-0.44-0.09-0.51-0.33
			c-0.08-0.26-0.07-0.5,0.25-0.59c0.49-0.14,0.97-0.29,1.46-0.42c0.31-0.09,0.43,0.11,0.5,0.36c0.07,0.24,0.07,0.47-0.24,0.57
			C332.77,259.88,332.52,259.95,332.27,260.02z"/>
		<path class="st6" d="M331.64,261.57c0.25-0.07,0.5-0.14,0.75-0.22c0.25-0.08,0.38,0.04,0.45,0.26c0.07,0.22,0.19,0.48-0.14,0.6
			c-0.53,0.19-1.06,0.37-1.6,0.5c-0.3,0.07-0.41-0.18-0.46-0.43c-0.05-0.22-0.04-0.43,0.24-0.5
			C331.14,261.72,331.39,261.64,331.64,261.57z"/>
		<path class="st6" d="M331.5,257.77c0.31-0.03,0.57-0.08,0.82-0.07c0.35,0.01,0.58,0.21,0.69,0.53c0.07,0.23,0.04,0.4-0.24,0.47
			c-0.39,0.1-0.77,0.22-1.15,0.33c-0.4,0.11-0.51,0.03-0.59-0.43C331.38,258.48,331.72,258.33,331.5,257.77z"/>
	</g>
	<g>
		<path class="st6" d="M320.18,251.06c0.09,0.1,0.09,0.1,0.66-0.17c0.12,0.11,0.25,0.22,0.38,0.34c-0.2,0.43,0.1,0.66,0.39,0.9
			c-0.33,0.47,0.04,0.72,0.33,0.99c-0.48,0.46-0.1,0.92,0.45,1.18c-0.6,0.25-1.19,0.51-1.8,0.75c-0.06,0.02-0.17-0.02-0.21-0.07
			c-0.58-0.68-1.15-1.36-1.66-1.97c0.13-0.42,0.25-0.76,0.35-1.1c0.15-0.51,0.27-1.03,0.43-1.53c0.22-0.66,1.05-0.87,1.59-0.43
			c0.16,0.14,0.18,0.4-0.02,0.55C320.79,250.72,320.48,250.88,320.18,251.06z"/>
		<path class="st6" d="M323.05,252.32c-0.15,0.13-0.31,0.26-0.46,0.39c-0.22,0.2-0.4,0.12-0.57-0.08c-0.17-0.2-0.19-0.38,0.04-0.57
			c0.32-0.25,0.62-0.51,0.92-0.77c0.21-0.18,0.37-0.13,0.54,0.07c0.17,0.2,0.22,0.38-0.01,0.57
			C323.36,252.06,323.2,252.2,323.05,252.32z"/>
		<path class="st6" d="M322.7,251.34c-0.16,0.14-0.32,0.27-0.48,0.41c-0.21,0.18-0.37,0.08-0.51-0.08c-0.15-0.17-0.23-0.36,0-0.55
			c0.33-0.28,0.66-0.56,0.99-0.83c0.21-0.18,0.37-0.06,0.51,0.11c0.13,0.17,0.22,0.35,0.01,0.52
			C323.04,251.06,322.87,251.2,322.7,251.34z"/>
		<path class="st6" d="M322.75,252.76c0.17-0.14,0.34-0.28,0.51-0.43c0.17-0.14,0.31-0.1,0.44,0.05c0.13,0.15,0.31,0.31,0.1,0.51
			c-0.35,0.33-0.7,0.65-1.08,0.94c-0.21,0.16-0.38,0-0.51-0.17c-0.11-0.15-0.17-0.32,0.02-0.47
			C322.41,253.05,322.58,252.91,322.75,252.76z"/>
		<path class="st6" d="M321.33,249.85c0.23-0.13,0.42-0.25,0.62-0.34c0.27-0.11,0.52-0.04,0.72,0.18c0.14,0.15,0.17,0.3-0.03,0.45
			c-0.27,0.21-0.52,0.44-0.78,0.65c-0.27,0.22-0.39,0.2-0.61-0.13C321.48,250.45,321.69,250.21,321.33,249.85z"/>
	</g>
	<g>
		<path class="st6" d="M313.82,255.91c0.09,0.1,0.09,0.1,0.66-0.17c0.12,0.11,0.25,0.22,0.38,0.34c-0.2,0.43,0.1,0.66,0.39,0.9
			c-0.33,0.47,0.04,0.72,0.33,0.99c-0.48,0.46-0.1,0.92,0.45,1.18c-0.6,0.25-1.19,0.51-1.8,0.75c-0.06,0.02-0.17-0.02-0.21-0.07
			c-0.58-0.68-1.15-1.36-1.66-1.97c0.13-0.42,0.25-0.76,0.35-1.1c0.15-0.51,0.27-1.03,0.43-1.53c0.22-0.66,1.05-0.87,1.59-0.43
			c0.16,0.14,0.18,0.4-0.02,0.55C314.43,255.57,314.12,255.73,313.82,255.91z"/>
		<path class="st6" d="M316.69,257.17c-0.15,0.13-0.31,0.26-0.46,0.39c-0.22,0.2-0.4,0.12-0.57-0.08c-0.17-0.2-0.19-0.38,0.04-0.57
			c0.32-0.25,0.62-0.51,0.92-0.77c0.21-0.18,0.37-0.13,0.54,0.07c0.17,0.2,0.22,0.38-0.01,0.57
			C316.99,256.91,316.84,257.04,316.69,257.17z"/>
		<path class="st6" d="M316.34,256.19c-0.16,0.14-0.32,0.27-0.48,0.41c-0.21,0.18-0.37,0.08-0.51-0.08c-0.15-0.17-0.23-0.36,0-0.55
			c0.33-0.28,0.66-0.56,0.99-0.83c0.21-0.18,0.37-0.06,0.51,0.11c0.13,0.17,0.22,0.35,0.01,0.52
			C316.68,255.91,316.51,256.05,316.34,256.19z"/>
		<path class="st6" d="M316.39,257.61c0.17-0.14,0.34-0.28,0.51-0.43c0.17-0.14,0.31-0.1,0.44,0.05c0.13,0.15,0.31,0.31,0.1,0.51
			c-0.35,0.33-0.7,0.65-1.08,0.94c-0.21,0.16-0.38,0-0.51-0.17c-0.11-0.15-0.17-0.32,0.02-0.47
			C316.05,257.9,316.22,257.75,316.39,257.61z"/>
		<path class="st6" d="M314.97,254.7c0.23-0.13,0.42-0.25,0.62-0.34c0.27-0.11,0.52-0.04,0.72,0.18c0.14,0.15,0.17,0.3-0.03,0.45
			c-0.27,0.21-0.52,0.44-0.78,0.65c-0.27,0.22-0.39,0.2-0.61-0.13C315.12,255.29,315.33,255.06,314.97,254.7z"/>
	</g>
	<g>
		<path class="st6" d="M318.77,235.41c0.12,0.12,0.12,0.12,0.83-0.27c0.17,0.13,0.33,0.26,0.51,0.4c-0.22,0.56,0.18,0.83,0.58,1.13
			c-0.39,0.63,0.11,0.92,0.5,1.24c-0.57,0.63-0.05,1.19,0.68,1.47c-0.75,0.37-1.49,0.75-2.24,1.11c-0.07,0.03-0.22-0.01-0.28-0.07
			c-0.8-0.82-1.58-1.65-2.29-2.39c0.14-0.55,0.25-0.99,0.35-1.44c0.15-0.66,0.26-1.34,0.42-1.99c0.22-0.86,1.27-1.2,2-0.68
			c0.22,0.16,0.26,0.5,0.02,0.71C319.53,234.93,319.15,235.15,318.77,235.41z"/>
		<path class="st6" d="M322.55,236.8c-0.19,0.18-0.38,0.35-0.56,0.54c-0.27,0.27-0.51,0.19-0.74-0.05c-0.23-0.24-0.28-0.48,0-0.73
			c0.38-0.34,0.75-0.71,1.12-1.07c0.26-0.25,0.47-0.19,0.69,0.05c0.23,0.24,0.32,0.47,0.04,0.73
			C322.93,236.44,322.74,236.62,322.55,236.8z"/>
		<path class="st6" d="M322.03,235.57c-0.2,0.19-0.39,0.37-0.59,0.56c-0.25,0.24-0.47,0.13-0.67-0.07c-0.21-0.21-0.32-0.45-0.05-0.7
			c0.4-0.38,0.8-0.77,1.21-1.15c0.26-0.24,0.47-0.11,0.66,0.1c0.19,0.2,0.3,0.43,0.05,0.67
			C322.44,235.18,322.24,235.37,322.03,235.57z"/>
		<path class="st6" d="M322.2,237.38c0.21-0.2,0.42-0.39,0.62-0.59c0.2-0.2,0.39-0.16,0.57,0.03c0.18,0.18,0.43,0.38,0.17,0.65
			c-0.42,0.45-0.84,0.89-1.3,1.29c-0.25,0.22-0.49,0.03-0.66-0.18c-0.16-0.19-0.25-0.39-0.02-0.61
			C321.79,237.78,322,237.58,322.2,237.38z"/>
		<path class="st6" d="M320.15,233.77c0.29-0.19,0.51-0.36,0.76-0.48c0.34-0.17,0.67-0.09,0.94,0.17c0.19,0.18,0.24,0.37,0,0.58
			c-0.33,0.29-0.63,0.6-0.95,0.9c-0.33,0.31-0.48,0.29-0.79-0.12C320.39,234.52,320.64,234.2,320.15,233.77z"/>
	</g>
	<g>
		<path class="st6" d="M311.33,241.75c0.12,0.12,0.12,0.12,0.83-0.27c0.17,0.13,0.33,0.26,0.51,0.4c-0.22,0.56,0.18,0.83,0.58,1.13
			c-0.39,0.63,0.11,0.92,0.5,1.24c-0.57,0.63-0.05,1.19,0.68,1.47c-0.75,0.37-1.49,0.75-2.24,1.11c-0.07,0.03-0.22-0.01-0.28-0.07
			c-0.8-0.82-1.58-1.65-2.29-2.39c0.14-0.55,0.25-0.99,0.35-1.44c0.15-0.66,0.26-1.34,0.42-1.99c0.22-0.86,1.27-1.2,2-0.68
			c0.22,0.16,0.26,0.5,0.02,0.71C312.09,241.27,311.71,241.49,311.33,241.75z"/>
		<path class="st6" d="M315.12,243.13c-0.19,0.18-0.38,0.35-0.56,0.54c-0.27,0.27-0.51,0.19-0.74-0.05c-0.23-0.24-0.28-0.48,0-0.73
			c0.38-0.34,0.75-0.71,1.12-1.07c0.26-0.25,0.47-0.19,0.69,0.05c0.23,0.24,0.32,0.47,0.04,0.73
			C315.49,242.78,315.3,242.96,315.12,243.13z"/>
		<path class="st6" d="M314.59,241.91c-0.2,0.19-0.39,0.37-0.59,0.56c-0.25,0.24-0.47,0.13-0.67-0.07c-0.21-0.21-0.32-0.45-0.05-0.7
			c0.4-0.38,0.8-0.77,1.21-1.15c0.26-0.24,0.47-0.11,0.66,0.1c0.19,0.2,0.3,0.43,0.05,0.67
			C315.01,241.51,314.8,241.71,314.59,241.91z"/>
		<path class="st6" d="M314.77,243.72c0.21-0.2,0.42-0.39,0.62-0.59c0.2-0.2,0.39-0.16,0.57,0.03c0.18,0.18,0.43,0.38,0.17,0.65
			c-0.42,0.45-0.84,0.89-1.3,1.29c-0.25,0.22-0.49,0.03-0.66-0.18c-0.16-0.19-0.25-0.39-0.02-0.61
			C314.36,244.12,314.56,243.92,314.77,243.72z"/>
		<path class="st6" d="M312.71,240.1c0.29-0.19,0.51-0.36,0.76-0.48c0.34-0.17,0.67-0.09,0.94,0.17c0.19,0.18,0.24,0.37,0,0.58
			c-0.33,0.29-0.63,0.6-0.95,0.9c-0.33,0.31-0.48,0.29-0.79-0.12C312.95,240.86,313.2,240.54,312.71,240.1z"/>
	</g>
	<g>
		<path class="st6" d="M295.86,214.88c0.11-0.12,0.11-0.12-0.29-0.83c0.13-0.17,0.25-0.34,0.39-0.52c0.57,0.2,0.83-0.2,1.11-0.6
			c0.64,0.38,0.91-0.13,1.23-0.53c0.64,0.56,1.19,0.03,1.45-0.71c0.39,0.74,0.78,1.47,1.16,2.21c0.03,0.07,0,0.22-0.06,0.28
			c-0.8,0.81-1.61,1.62-2.33,2.34c-0.56-0.12-1-0.23-1.44-0.32c-0.67-0.13-1.34-0.23-2-0.38c-0.87-0.2-1.23-1.25-0.72-1.98
			c0.15-0.22,0.5-0.27,0.71-0.03C295.36,214.14,295.59,214.51,295.86,214.88z"/>
		<path class="st6" d="M297.15,211.07c0.18,0.18,0.36,0.37,0.55,0.55c0.28,0.26,0.2,0.5-0.03,0.74c-0.24,0.24-0.47,0.29-0.73,0.01
			c-0.35-0.38-0.72-0.74-1.09-1.1c-0.26-0.25-0.2-0.46,0.03-0.69c0.24-0.24,0.46-0.33,0.73-0.05
			C296.79,210.71,296.97,210.89,297.15,211.07z"/>
		<path class="st6" d="M295.94,211.62c0.19,0.19,0.38,0.38,0.57,0.57c0.25,0.24,0.15,0.47-0.05,0.67c-0.21,0.21-0.44,0.33-0.7,0.07
			c-0.39-0.39-0.79-0.78-1.18-1.18c-0.25-0.25-0.12-0.47,0.08-0.66c0.2-0.19,0.42-0.31,0.67-0.07
			C295.54,211.22,295.74,211.42,295.94,211.62z"/>
		<path class="st6" d="M297.75,211.41c-0.2-0.2-0.4-0.41-0.61-0.61c-0.2-0.2-0.16-0.39,0.01-0.57c0.18-0.18,0.37-0.44,0.65-0.19
			c0.46,0.41,0.91,0.82,1.32,1.27c0.23,0.25,0.04,0.49-0.17,0.67c-0.18,0.16-0.39,0.26-0.61,0.03
			C298.16,211.81,297.95,211.61,297.75,211.41z"/>
		<path class="st6" d="M294.18,213.55c-0.19-0.28-0.37-0.5-0.5-0.75c-0.17-0.34-0.11-0.67,0.15-0.94c0.18-0.19,0.36-0.25,0.58-0.02
			c0.29,0.32,0.62,0.62,0.92,0.93c0.32,0.32,0.3,0.47-0.1,0.8C294.93,213.28,294.6,213.04,294.18,213.55z"/>
	</g>
	<g>
		<g>
			<path class="st6" d="M303.18,205.96c0.17,0,0.17,0,0.4-0.78c0.21-0.02,0.42-0.05,0.65-0.08c0.24,0.55,0.72,0.46,1.2,0.39
				c0.16,0.72,0.72,0.57,1.23,0.53c0.04,0.85,0.8,0.88,1.52,0.56c-0.27,0.79-0.53,1.58-0.81,2.37c-0.03,0.07-0.16,0.15-0.25,0.15
				c-1.14-0.02-2.28-0.05-3.3-0.08c-0.29-0.49-0.52-0.88-0.76-1.27c-0.36-0.57-0.76-1.13-1.1-1.71c-0.45-0.77,0.05-1.75,0.94-1.89
				c0.27-0.04,0.54,0.17,0.51,0.49C303.37,205.09,303.26,205.52,303.18,205.96z"/>
			<path class="st6" d="M306.84,204.28c-0.01,0.26-0.02,0.52-0.02,0.77c0,0.38-0.23,0.49-0.56,0.48c-0.33-0.01-0.53-0.14-0.51-0.52
				c0.03-0.52,0.04-1.03,0.04-1.55c0-0.36,0.2-0.47,0.52-0.46c0.34,0.01,0.56,0.11,0.54,0.49
				C306.85,203.76,306.84,204.02,306.84,204.28z"/>
			<path class="st6" d="M305.6,203.78c-0.01,0.27-0.02,0.54-0.02,0.81c-0.01,0.35-0.24,0.43-0.52,0.42c-0.3,0-0.54-0.09-0.53-0.46
				c0.02-0.55,0.03-1.11,0.05-1.66c0.01-0.35,0.26-0.41,0.54-0.4c0.27,0.01,0.52,0.09,0.51,0.44
				C305.61,203.21,305.6,203.49,305.6,203.78z"/>
			<path class="st6" d="M307,204.94c0.01-0.29,0.02-0.57,0.02-0.86c0-0.28,0.17-0.38,0.42-0.38c0.26,0,0.57-0.04,0.58,0.34
				c0.02,0.61,0.03,1.23-0.01,1.83c-0.02,0.33-0.33,0.36-0.6,0.34c-0.25-0.02-0.45-0.1-0.44-0.42
				C306.99,205.51,306.99,205.23,307,204.94z"/>
			<path class="st6" d="M302.99,203.83c0.07-0.34,0.11-0.62,0.2-0.88c0.12-0.36,0.41-0.53,0.79-0.54c0.26,0,0.43,0.09,0.41,0.41
				c-0.03,0.43-0.02,0.87-0.04,1.31c-0.02,0.45-0.14,0.54-0.65,0.47C303.7,204.19,303.65,203.79,302.99,203.83z"/>
		</g>
	</g>
	<g>
		<g>
			<path class="st6" d="M326.88,226.76c0.16,0.1,0.16,0.1,0.85-0.47c0.21,0.11,0.42,0.21,0.64,0.33c-0.11,0.66,0.38,0.86,0.86,1.1
				c-0.29,0.76,0.31,0.97,0.8,1.24c-0.49,0.8,0.19,1.3,1.05,1.45c-0.73,0.56-1.45,1.13-2.19,1.68c-0.07,0.05-0.24,0.04-0.32-0.01
				c-1.04-0.72-2.06-1.45-2.99-2.1c0.03-0.63,0.07-1.13,0.08-1.63c0.02-0.75-0.01-1.5,0.04-2.25c0.06-0.98,1.12-1.58,2.02-1.16
				c0.27,0.13,0.39,0.49,0.17,0.77C327.6,226.08,327.23,226.4,326.88,226.76z"/>
			<path class="st6" d="M331.28,227.46c-0.16,0.23-0.33,0.46-0.49,0.7c-0.23,0.35-0.51,0.31-0.81,0.1c-0.3-0.21-0.4-0.46-0.15-0.79
				c0.34-0.46,0.67-0.92,0.99-1.4c0.22-0.33,0.47-0.31,0.76-0.1c0.3,0.21,0.44,0.44,0.2,0.78
				C331.6,226.99,331.44,227.23,331.28,227.46z"/>
			<path class="st6" d="M330.45,226.24c-0.17,0.24-0.35,0.49-0.52,0.73c-0.22,0.32-0.48,0.25-0.74,0.07
				c-0.27-0.19-0.44-0.42-0.2-0.75c0.35-0.5,0.71-1,1.06-1.5c0.23-0.32,0.49-0.22,0.74-0.04c0.24,0.18,0.42,0.4,0.2,0.71
				C330.81,225.73,330.63,225.98,330.45,226.24z"/>
			<path class="st6" d="M331.02,228.17c0.18-0.26,0.37-0.51,0.55-0.77c0.18-0.26,0.39-0.25,0.62-0.09c0.23,0.16,0.54,0.32,0.32,0.67
				c-0.36,0.57-0.72,1.14-1.13,1.68c-0.22,0.29-0.52,0.13-0.76-0.05c-0.21-0.17-0.35-0.37-0.15-0.65
				C330.66,228.69,330.84,228.43,331.02,228.17z"/>
			<path class="st6" d="M328.02,224.69c0.27-0.26,0.48-0.5,0.72-0.69c0.33-0.25,0.7-0.24,1.05-0.01c0.24,0.16,0.34,0.35,0.13,0.63
				c-0.29,0.38-0.56,0.79-0.84,1.18c-0.29,0.41-0.46,0.41-0.89,0.04C328.45,225.45,328.65,225.05,328.02,224.69z"/>
		</g>
	</g>
	<g>
		<path class="st6" d="M316.34,225.51c0.17,0.11,0.17,0.11,0.91-0.5c0.22,0.11,0.45,0.23,0.69,0.35c-0.12,0.71,0.41,0.93,0.93,1.18
			c-0.31,0.82,0.33,1.04,0.87,1.33c-0.53,0.86,0.21,1.4,1.13,1.56c-0.78,0.61-1.56,1.22-2.36,1.81c-0.07,0.05-0.26,0.04-0.34-0.01
			c-1.12-0.77-2.22-1.56-3.21-2.26c0.03-0.68,0.07-1.22,0.08-1.75c0.02-0.81-0.01-1.62,0.04-2.42c0.06-1.06,1.21-1.7,2.18-1.25
			c0.29,0.14,0.42,0.53,0.18,0.83C317.11,224.77,316.71,225.12,316.34,225.51z"/>
		<path class="st6" d="M321.06,226.26c-0.18,0.25-0.36,0.5-0.53,0.75c-0.25,0.38-0.55,0.34-0.87,0.11
			c-0.33-0.23-0.43-0.49-0.16-0.85c0.37-0.49,0.72-1,1.06-1.5c0.24-0.35,0.5-0.33,0.82-0.11c0.33,0.23,0.48,0.48,0.21,0.84
			C321.42,225.76,321.24,226.01,321.06,226.26z"/>
		<path class="st6" d="M320.17,224.95c-0.19,0.26-0.37,0.52-0.56,0.79c-0.24,0.34-0.52,0.26-0.79,0.07
			c-0.29-0.2-0.47-0.45-0.22-0.81c0.38-0.54,0.76-1.08,1.14-1.62c0.24-0.34,0.53-0.23,0.79-0.04c0.26,0.19,0.45,0.43,0.22,0.77
			C320.56,224.39,320.37,224.67,320.17,224.95z"/>
		<path class="st6" d="M320.79,227.02c0.2-0.28,0.4-0.55,0.59-0.83c0.19-0.28,0.42-0.27,0.67-0.1c0.25,0.17,0.58,0.34,0.35,0.72
			c-0.39,0.62-0.78,1.23-1.22,1.81c-0.24,0.32-0.56,0.14-0.81-0.06c-0.23-0.18-0.38-0.4-0.16-0.7
			C320.4,227.58,320.59,227.3,320.79,227.02z"/>
		<path class="st6" d="M317.56,223.27c0.29-0.28,0.52-0.54,0.78-0.74c0.36-0.27,0.76-0.26,1.13-0.01c0.26,0.17,0.37,0.38,0.14,0.68
			c-0.32,0.41-0.6,0.85-0.9,1.27c-0.32,0.44-0.49,0.45-0.95,0.04C318.02,224.1,318.24,223.67,317.56,223.27z"/>
	</g>
	<g>
		<g>
			<path class="st6" d="M312.44,216.71c0.16,0.05,0.16,0.05,0.62-0.62c0.21,0.04,0.41,0.08,0.64,0.12c0.07,0.6,0.55,0.65,1.03,0.74
				c-0.06,0.74,0.51,0.77,1.01,0.87c-0.22,0.82,0.5,1.08,1.28,1c-0.49,0.67-0.98,1.35-1.48,2.01c-0.05,0.06-0.2,0.1-0.28,0.07
				c-1.08-0.36-2.16-0.74-3.13-1.07c-0.13-0.56-0.23-1-0.34-1.44c-0.17-0.66-0.38-1.3-0.54-1.97c-0.2-0.87,0.58-1.65,1.47-1.52
				c0.27,0.04,0.46,0.33,0.34,0.63C312.89,215.93,312.65,216.31,312.44,216.71z"/>
			<path class="st6" d="M316.43,216.21c-0.08,0.24-0.17,0.49-0.25,0.73c-0.11,0.36-0.37,0.4-0.68,0.29
				c-0.32-0.11-0.47-0.29-0.33-0.65c0.18-0.48,0.35-0.97,0.51-1.46c0.11-0.34,0.33-0.38,0.64-0.28c0.32,0.11,0.5,0.27,0.37,0.63
				C316.6,215.72,316.52,215.96,316.43,216.21z"/>
			<path class="st6" d="M315.4,215.35c-0.09,0.26-0.18,0.51-0.26,0.77c-0.11,0.33-0.36,0.34-0.62,0.25
				c-0.28-0.09-0.49-0.25-0.37-0.6c0.18-0.52,0.36-1.05,0.54-1.57c0.12-0.33,0.37-0.31,0.63-0.22c0.26,0.09,0.47,0.24,0.35,0.57
				C315.59,214.82,315.5,215.08,315.4,215.35z"/>
			<path class="st6" d="M316.39,216.89c0.09-0.27,0.19-0.54,0.28-0.81c0.09-0.27,0.27-0.32,0.52-0.24c0.24,0.08,0.55,0.14,0.45,0.5
				c-0.17,0.59-0.34,1.18-0.56,1.75c-0.12,0.31-0.42,0.25-0.67,0.14c-0.23-0.09-0.4-0.24-0.29-0.53
				C316.21,217.43,316.3,217.16,316.39,216.89z"/>
			<path class="st6" d="M312.9,214.61c0.17-0.3,0.29-0.56,0.46-0.78c0.23-0.3,0.55-0.39,0.91-0.28c0.25,0.08,0.39,0.22,0.27,0.51
				c-0.16,0.41-0.28,0.82-0.43,1.23c-0.15,0.43-0.29,0.48-0.76,0.26C313.47,215.17,313.54,214.78,312.9,214.61z"/>
		</g>
	</g>
	<g>
		<path class="st6" d="M303.07,217.4c0.16,0.05,0.16,0.05,0.62-0.62c0.21,0.04,0.41,0.08,0.64,0.12c0.07,0.6,0.55,0.65,1.03,0.74
			c-0.06,0.74,0.51,0.77,1.01,0.87c-0.22,0.82,0.5,1.08,1.28,1c-0.49,0.67-0.98,1.35-1.48,2.01c-0.05,0.06-0.2,0.1-0.28,0.07
			c-1.08-0.36-2.16-0.74-3.13-1.07c-0.13-0.56-0.23-1-0.34-1.44c-0.17-0.66-0.38-1.3-0.54-1.97c-0.2-0.87,0.58-1.65,1.47-1.52
			c0.27,0.04,0.46,0.33,0.34,0.63C303.52,216.62,303.29,217,303.07,217.4z"/>
		<path class="st6" d="M307.07,216.9c-0.08,0.24-0.17,0.49-0.25,0.73c-0.11,0.36-0.37,0.4-0.68,0.29c-0.32-0.11-0.47-0.29-0.33-0.65
			c0.18-0.48,0.35-0.97,0.51-1.46c0.11-0.34,0.33-0.38,0.64-0.28c0.32,0.11,0.5,0.27,0.37,0.63
			C307.23,216.41,307.15,216.65,307.07,216.9z"/>
		<path class="st6" d="M306.04,216.04c-0.09,0.26-0.18,0.51-0.26,0.77c-0.11,0.33-0.36,0.34-0.62,0.25
			c-0.28-0.09-0.49-0.25-0.37-0.6c0.18-0.52,0.36-1.05,0.54-1.57c0.12-0.33,0.37-0.31,0.63-0.22c0.26,0.09,0.47,0.24,0.35,0.57
			C306.23,215.51,306.13,215.77,306.04,216.04z"/>
		<path class="st6" d="M307.03,217.58c0.09-0.27,0.19-0.54,0.28-0.81c0.09-0.27,0.27-0.32,0.52-0.24c0.24,0.08,0.55,0.14,0.45,0.5
			c-0.17,0.59-0.34,1.18-0.56,1.75c-0.12,0.31-0.42,0.25-0.67,0.14c-0.23-0.09-0.4-0.24-0.29-0.53
			C306.84,218.12,306.93,217.85,307.03,217.58z"/>
		<path class="st6" d="M303.54,215.3c0.17-0.3,0.29-0.56,0.46-0.78c0.23-0.3,0.55-0.39,0.91-0.28c0.25,0.08,0.39,0.22,0.27,0.51
			c-0.16,0.41-0.28,0.82-0.43,1.23c-0.15,0.43-0.29,0.48-0.76,0.26C304.1,215.86,304.18,215.46,303.54,215.3z"/>
	</g>
	<g>
		<g>
			<path class="st6" d="M303.43,229.06c0.13-0.11,0.13-0.11-0.16-0.86c0.15-0.15,0.3-0.3,0.46-0.46c0.53,0.29,0.85-0.08,1.19-0.43
				c0.57,0.47,0.92,0.01,1.29-0.33c0.55,0.65,1.17,0.21,1.55-0.48c0.27,0.79,0.55,1.57,0.81,2.36c0.02,0.07-0.04,0.22-0.1,0.27
				c-0.92,0.68-1.84,1.36-2.66,1.96c-0.53-0.21-0.95-0.38-1.38-0.54c-0.64-0.23-1.29-0.43-1.92-0.68c-0.83-0.33-1.03-1.42-0.41-2.07
				c0.19-0.2,0.53-0.19,0.71,0.08C303.05,228.25,303.22,228.66,303.43,229.06z"/>
			<path class="st6" d="M305.29,225.49c0.15,0.21,0.3,0.42,0.46,0.62c0.23,0.3,0.12,0.53-0.14,0.72c-0.27,0.2-0.51,0.21-0.72-0.1
				c-0.29-0.43-0.6-0.84-0.91-1.25c-0.22-0.29-0.13-0.49,0.14-0.68c0.27-0.2,0.51-0.25,0.73,0.06
				C304.99,225.08,305.14,225.28,305.29,225.49z"/>
			<path class="st6" d="M304.01,225.85c0.16,0.22,0.32,0.44,0.48,0.65c0.21,0.28,0.07,0.48-0.15,0.65c-0.24,0.18-0.48,0.26-0.7-0.04
				c-0.33-0.45-0.66-0.89-0.98-1.34c-0.21-0.29-0.05-0.48,0.18-0.64c0.22-0.16,0.46-0.25,0.67,0.03
				C303.67,225.39,303.84,225.62,304.01,225.85z"/>
			<path class="st6" d="M305.83,225.91c-0.17-0.23-0.34-0.46-0.51-0.69c-0.17-0.22-0.1-0.41,0.1-0.56c0.2-0.15,0.43-0.38,0.67-0.08
				c0.39,0.47,0.77,0.95,1.11,1.46c0.19,0.28-0.04,0.49-0.26,0.63c-0.21,0.13-0.42,0.2-0.6-0.06
				C306.17,226.37,306,226.14,305.83,225.91z"/>
			<path class="st6" d="M301.97,227.48c-0.15-0.31-0.29-0.56-0.38-0.82c-0.12-0.36,0-0.67,0.29-0.91c0.2-0.16,0.4-0.19,0.58,0.07
				c0.24,0.36,0.51,0.7,0.77,1.06c0.26,0.37,0.22,0.51-0.22,0.77C302.75,227.34,302.47,227.05,301.97,227.48z"/>
		</g>
	</g>
</g>
<rect x="510.81" y="323.55" class="st7" width="162.37" height="18.73"/>
<text transform="matrix(1 0 0 1 510.8089 336.3333)" class="st5 st8 st9">Cameroun</text>
<g id="Capitole">
	<g>
		<g>
			<polygon class="st10" points="303.27,291.85 299.85,289.42 296.47,291.92 297.53,287.9 294.3,285.47 298.32,285.32 
				299.76,281.42 301.27,285.29 305.3,285.36 302.13,287.84 			"/>
		</g>
	</g>
</g>
</svg>
