<?xml version="1.0" encoding="utf-8"?>
<!-- Generator: Adobe Illustrator 24.0.1, SVG Export Plug-In . SVG Version: 6.00 Build 0)  -->
<svg version="1.1" id="Calque_1" xmlns="http://www.w3.org/2000/svg" xmlns:xlink="http://www.w3.org/1999/xlink" x="0px" y="0px"
	 viewBox="0 0 841.89 595.28" style="enable-background:new 0 0 841.89 595.28;" xml:space="preserve">
<style type="text/css">
	.st0{fill-rule:evenodd;clip-rule:evenodd;fill:#047B5F;}
	.st1{fill-rule:evenodd;clip-rule:evenodd;fill:#CE1327;}
	.st2{fill-rule:evenodd;clip-rule:evenodd;fill:#E52329;}
	.st3{fill-rule:evenodd;clip-rule:evenodd;fill:#FAEB4B;}
	.st4{fill:#CE1327;}
	.st5{fill:#047B5F;}
	.st6{fill-rule:evenodd;clip-rule:evenodd;fill:#FDD218;}
	.st7{fill:none;}
	.st8{font-family:'MyriadPro-Regular';}
	.st9{font-size:18px;}
	.st10{fill:#FDD218;}
</style>
<path class="st0" d="M330.34,194.47c0.48-3.1,0.61-6.02,1.41-8.75c2.01-6.91,6.66-11.55,13.46-13.77c1.95-0.64,2.66-1.61,3.16-3.44
	c3.32-12.16,14.64-18.63,26.85-15.47c7.96,2.06,13.32,9.18,13.58,19.19c0.39,15.02,0.39,30.06,0.44,45.09
	c0.11,35.84,0.16,71.69,0.19,107.54c0,2.65-0.21,5.31-0.5,7.95c-0.83,7.57-3.85,11.06-10.45,12.25c-6.32,1.14-12.83-1.96-15.79-7.57
	c-0.53-1-0.96-2.06-1.42-3.07c-15.08,4.39-24.97-7.45-22.68-19.79c-8.41,2.13-15.95,0.94-21.65-6c-5.6-6.82-5.57-14.34-1.74-22.25
	c-5.72,0.34-10.44-1.04-13.75-5.6c-3.85-5.29-3.73-11.88,0.55-16.95c1.41-1.67,1.52-2.89,0.66-4.84
	c-5.74-13.01-2.46-27.09,8.21-36.53c0.91-0.8,1.7-2.45,1.58-3.6C311.01,205.73,317.31,197.04,330.34,194.47z M352.26,247.65
	c0.27-0.29,0.53-0.58,0.8-0.87c7.79,9.16,18.27,10.86,29.77,11.18c0-4.38,0.25-8.42-0.09-12.4c-0.19-2.28-0.88-4.78-2.12-6.67
	c-5.03-7.62-12.39-11.88-21.26-13.68c-0.63-0.13-1.23-0.46-1.84-0.71c0.06-0.28,0.12-0.56,0.19-0.85c4.06,0.24,8.12,0.47,11.84,0.68
	c-0.91-2.92-1.88-6.01-3.12-9.99c5.55,7.25,10.44,13.64,15.33,20.03c0.35-0.19,0.7-0.38,1.05-0.56c0-4.82-0.14-9.65,0.06-14.46
	c0.1-2.48-0.68-3.93-2.81-5.29c-5.8-3.7-8.76-9.27-9.67-16c3.43,4.66,6.08,10.04,12.14,12.52c0-13.44,0.51-26.5-0.17-39.51
	c-0.47-9.01-6.56-13.42-15.03-12.36c-6.18,0.77-10.35,4.25-12.41,10.16c-2.04,5.84-1.34,11.53,1,17.23
	c-1.86-2.23-3.53-4.52-4.77-7.03c-0.8-1.6-1.6-1.89-3.21-1.46c-6.63,1.78-11.4,8.3-10.67,15.13c0.29,2.71,1.24,5.35,1.95,8.3
	c-1.26-0.86-2.28-1.57-2.69-1.85c-2.54,0.71-4.47,1.42-6.45,1.78c-6.68,1.21-11.41,6.82-11.49,13.63c-0.06,4.98,2.1,8.97,5.04,12.95
	c-1.74-0.97-3.48-1.93-5.18-2.87c-15.48,12.77-16.45,26.25-2.62,41.8c-1.62-0.48-2.79-0.6-3.72-1.15c-1.78-1.04-2.88-0.36-4.19,0.91
	c-2.86,2.78-3.28,6.05-2.15,9.57c1.15,3.59,4.02,5.53,7.59,5.61c4.21,0.09,8.43-0.53,11.94-0.79c-1.63,3.2-4.05,6.88-5.43,10.91
	c-2.73,7.99,1.13,15.31,8.64,17.2c4.97,1.25,9.63,0.29,13.9-2.48c1.9-1.23,3.7-2.6,5.95-4.2c-1.03,2.96-2.08,5.37-2.68,7.89
	c-0.61,2.56-1.15,5.24-1.09,7.85c0.2,8.48,6.57,13.01,14.32,10.25c1.14-0.41,2.12-1.76,2.77-2.9c1.23-2.17,2.17-4.5,3.24-6.77
	c0.35,0.13,0.7,0.27,1.05,0.4c0,1.93-0.23,3.9,0.05,5.79c0.44,2.94,0.91,5.95,1.93,8.73c1.57,4.26,5.01,6,9.36,5.31
	c3.71-0.59,5.39-2.51,5.58-7.52c0.25-6.7,0.09-13.41,0.11-20.12c0-1.8,0-3.6,0-5.6c-6.59,0.7-7.75,5.79-10.06,10.94
	c-0.17-5.64,1.26-10.13,4.5-13.12c5.41-4.99,6.19-10.88,5.48-17.51c-0.09-0.8-0.01-1.61-0.01-2.43c-0.01-5.18-0.9-5.81-6.15-4.94
	c-5.39,0.9-9.08,4.34-13.03,7.81c1.03-1.93,2.06-3.86,2.92-5.47c-5.15,0-10.23,0-15.32,0c1.94-0.48,4.01-0.3,5.81-0.91
	c8.16-2.8,16.25-5.78,24.32-8.82c0.64-0.24,1.29-1.33,1.34-2.07c0.17-2.38,0.06-4.78,0.06-7.34c-10.08-0.74-19.77-1.46-29.58-2.18
	c1.87-0.88,3.77-1.77,5.57-2.62C356.62,253.66,354.44,250.66,352.26,247.65z"/>
<path class="st1" d="M404.87,232.44c2.7-16.68,8.84-31.97,17.35-46.47c-1.77,6.9-3.62,13.78-5.28,20.71
	c-1.68,7.03-3.17,14.11-4.26,21.5c7.7-7.03,16.04-12.4,26.96-14.84c-1,0.78-1.32,1.12-1.72,1.33
	c-17.02,8.63-27.17,22.44-31.07,41.01c-1.24,5.92-2.51,11.83-3.45,17.88c9.14-20.46,23.71-35.4,44.11-44.63
	c-21.06,14.37-32.92,34.55-38.08,59.38c10.86-5.11,15.06-8.68,23.45-19.79c0.49,5.65-2.58,11.69-8.21,16.05
	c-2.56,1.98-5.11,3.98-7.77,5.82c-9.77,6.78-11.76,16.41-10.59,27.48c0.99,9.41,3.26,18.33,8.71,26.65c-7.93,0-15.29,0-23.02,0
	c3.95-5.4,3.78-11.52,3.78-17.62c-0.01-18.27-0.08-36.55,0.08-54.82c0.04-4.22,0.46-8.54,1.47-12.62
	c2.26-9.19,1.58-18.28,0.55-27.53c-1.21-10.77-1.74-21.62-1.98-32.52C401.79,209.66,398.57,222.25,404.87,232.44z"/>
<g>
	<path class="st0" d="M481.73,379.8c-0.34,0.98-1,1.57-1.89,2.04c0.28,0.03,0.47,0.05,0.66,0.08c2.41,0.45,3.79,2.8,3.03,5.17
		c-0.38,1.19-1.08,2.19-1.92,3.1c-1.71,1.86-3.68,3.39-6.04,4.35c-3.27,1.34-6.58,1.59-9.9,0.2c-2.7-1.14-4.72-3.08-6.15-5.62
		c-2.03-3.63-2.63-7.49-1.67-11.56c0.01-0.04,0.02-0.08,0.02-0.12c0-0.01-0.01-0.02-0.03-0.06c-1.26,0.65-2.56,0.59-3.92,0.17
		c-0.13,0.57-0.26,1.1-0.37,1.64c-0.62,2.8-1.24,5.6-1.87,8.4c-0.3,1.33-0.57,2.66-0.9,3.98c-0.35,1.38-1.12,2.49-2.45,3.1
		c-2.45,1.14-5.28-0.32-5.84-2.98c-0.16-0.75-0.16-1.5-0.02-2.25c0.02-0.09,0.02-0.18-0.02-0.29c-0.11,0.25-0.21,0.5-0.33,0.74
		c-1.14,2.32-2.99,3.87-5.34,4.85c-2.94,1.22-5.96,1.3-9.02,0.46c-0.89-0.24-1.74-0.6-2.5-1.14c-1.43-1.02-1.97-2.51-1.54-4.22
		c0.24-0.95,0.65-1.8,1.44-2.4c0.91-0.7,1.97-0.89,3.07-0.71c1,0.17,1.97,0.46,2.96,0.7c0.91,0.22,1.81,0.21,2.69-0.12
		c0.1-0.04,0.2-0.07,0.29-0.12c0.26-0.15,0.51-0.33,0.47-0.68c-0.04-0.32-0.33-0.37-0.56-0.41c-1.07-0.21-2.14-0.4-3.21-0.57
		c-1.93-0.3-3.84-0.66-5.57-1.63c-1.86-1.03-3.06-2.57-3.55-4.65c-0.02-0.08-0.04-0.16-0.07-0.24c-0.02-0.05-0.05-0.09-0.1-0.19
		c0.07,1.23,0.13,2.39,0.19,3.56c0.14,2.69,0.29,5.38,0.42,8.06c0.06,1.32-0.29,2.51-1.13,3.57c-1.43,1.79-5.27,2.24-6.85-0.86
		c-0.44-0.86-0.55-1.77-0.6-2.71c-0.24-4.81-0.48-9.62-0.71-14.44c-0.02-0.42-0.05-0.85-0.14-1.29c-0.06,0.16-0.1,0.32-0.17,0.47
		c-0.48,1.05-0.96,2.09-1.45,3.13c-2.18,4.57-4.36,9.15-6.53,13.72c-0.41,0.87-0.9,1.67-1.61,2.34c-1.69,1.58-5.33,1.48-6.78-1.26
		c-0.54-1.01-0.78-2.12-1.09-3.2c-1.42-5.02-2.84-10.05-4.25-15.07c-0.1-0.34-0.19-0.68-0.35-1c0.02,0.51,0.04,1.02,0.07,1.52
		c0.24,4.55,0.49,9.1,0.73,13.65c0.05,0.98,0.15,1.96-0.05,2.94c-0.58,2.75-3.54,4.28-6,3.05c-1.47-0.73-2.22-2.03-2.37-3.62
		c-0.15-1.56-0.19-3.14-0.27-4.7c-0.16-3.21-0.32-6.42-0.48-9.63c-0.04-0.8-0.08-1.61-0.17-2.42c-0.02,0.06-0.04,0.11-0.06,0.17
		c-0.31,1.34-0.96,2.42-2.35,2.86c-0.94,0.3-1.9,0.25-2.85-0.01c-0.12-0.03-0.24-0.06-0.39-0.1c-0.16,0.71-0.31,1.4-0.47,2.08
		c-0.59,2.64-1.17,5.27-1.76,7.91c-0.3,1.34-0.57,2.68-0.91,4.01c-0.37,1.42-1.16,2.56-2.55,3.16c-2.21,0.96-4.73-0.14-5.56-2.41
		c-0.05-0.13-0.1-0.27-0.16-0.45c-0.15,0.18-0.26,0.32-0.38,0.46c-0.74,0.85-1.69,1.43-2.68,1.95c-3.36,1.74-6.81,1.92-10.31,0.48
		c-2.25-0.93-3.96-2.57-5.3-4.57c-1.94-2.89-2.63-6.11-2.41-9.54c0.25-3.98,1.88-7.33,4.87-9.97c2.49-2.2,5.47-2.99,8.75-2.7
		c1.45,0.13,2.84,0.5,4.17,1.1c1.31,0.6,2.44,1.38,2.96,2.84c0.08-0.5,0.13-0.98,0.24-1.45c0.51-2.11,2.5-3.33,4.61-2.82
		c0.25,0.06,0.3-0.03,0.35-0.24c0.25-1.06,0.44-2.14,0.78-3.17c0.45-1.36,1.33-2.4,2.73-2.87c1.88-0.63,4.8,0.27,5.38,3.24
		c0.22,1.1,0.06,2.17-0.21,3.23c-0.13,0.54-0.24,1.08-0.38,1.62c-0.06,0.24,0.03,0.3,0.25,0.35c0.52,0.13,1.04,0.25,1.53,0.46
		c1.07,0.46,1.6,1.1,2.02,2.28c0.39-2.56,1.65-4.24,4.37-4.26c2.16-0.02,3.35,1.32,4.05,3.32c0.04-0.16,0.06-0.24,0.07-0.32
		c0.23-2.14,1.89-3.4,3.76-3.61c0.67-0.07,1.34-0.01,1.98,0.21c1.42,0.5,2.16,1.59,2.48,2.97c0.71,3.11,1.38,6.23,2.06,9.35
		c0.09,0.43,0.19,0.86,0.3,1.36c0.07-0.13,0.11-0.2,0.14-0.26c1.24-3.22,2.46-6.45,3.71-9.67c0.37-0.95,0.9-1.77,1.82-2.29
		c1.63-0.91,4.9-0.5,6.03,2.25c0.03,0.08,0.07,0.16,0.1,0.24c0.19-0.47,0.32-0.95,0.56-1.37c0.92-1.65,2.36-2.37,4.21-2.17
		c1.73,0.19,2.81,1.26,3.39,2.84c0.19,0.52,0.27,1.1,0.32,1.66c0.08,0.87,0.09,1.76,0.14,2.64c0.01,0.15,0.03,0.3,0.11,0.45
		c0.06-0.29,0.1-0.59,0.17-0.88c0.51-2.11,1.76-3.69,3.5-4.93c2.43-1.73,5.15-2.33,8.09-2.07c1.53,0.13,2.96,0.55,4.26,1.37
		c2.67,1.67,2.35,5.33,0.22,6.86c-0.85,0.61-1.79,0.65-2.77,0.47c-0.96-0.18-1.91-0.37-2.87-0.53c-0.59-0.1-1.19-0.1-1.77,0.11
		c-0.15,0.05-0.29,0.13-0.41,0.22c-0.35,0.28-0.3,0.73,0.12,0.85c0.66,0.19,1.34,0.35,2.02,0.44c1.97,0.28,3.94,0.55,5.82,1.26
		c2.16,0.82,3.77,2.23,4.55,4.46c0.4,1.15,0.56,2.34,0.45,3.56c-0.01,0.11-0.02,0.23,0.03,0.35c0.19-0.85,0.38-1.7,0.57-2.55
		c0.68-3.01,1.35-6.03,2.03-9.04c0.05-0.23,0.01-0.29-0.23-0.35c-1.29-0.3-2.38-0.9-2.81-2.23c-0.51-1.6-0.32-3.13,0.78-4.43
		c0.97-1.15,2.27-1.47,3.72-1.19c0.09,0.02,0.18,0.04,0.31,0.07c0.12-0.5,0.21-0.99,0.34-1.47c0.21-0.81,0.37-1.64,0.69-2.41
		c0.58-1.35,1.56-2.3,3.06-2.57c1.87-0.33,4.31,0.65,4.87,3.32c0.23,1.1,0.07,2.17-0.19,3.23c-0.13,0.54-0.24,1.08-0.38,1.62
		c-0.06,0.25-0.01,0.33,0.26,0.4c0.57,0.15,1.16,0.3,1.69,0.55c1.18,0.55,1.8,1.53,1.93,2.81c0.01,0.08,0.02,0.16,0.02,0.24
		c0.03,0.02,0.05,0.04,0.08,0.06c0.03-0.06,0.05-0.13,0.09-0.18c2.81-3.89,6.62-5.59,11.38-5.06c2.3,0.25,4.29,1.29,6.09,2.71
		c1.73,1.37,3.1,3.02,3.96,5.07c0.02,0.05,0.05,0.09,0.11,0.22c0.07-0.37,0.11-0.66,0.17-0.94c0.36-1.87,1.33-3.37,2.76-4.59
		c2.51-2.14,5.44-2.96,8.69-2.72c1.58,0.11,3.06,0.52,4.43,1.36c2.7,1.67,2.4,5.34,0.27,6.88c-0.86,0.62-1.8,0.66-2.79,0.47
		c-0.96-0.18-1.91-0.37-2.87-0.52c-0.58-0.1-1.17-0.09-1.74,0.11c-0.15,0.05-0.29,0.12-0.41,0.22c-0.37,0.28-0.32,0.74,0.12,0.86
		c0.66,0.19,1.34,0.34,2.02,0.44c1.97,0.28,3.94,0.55,5.81,1.27c2.19,0.84,3.86,2.27,4.57,4.56c1.09,3.49,0.26,6.54-2.4,9.05
		c-1.94,1.83-4.3,2.75-6.93,3.02c-1.81,0.19-3.6,0.07-5.35-0.45c-0.88-0.26-1.73-0.59-2.48-1.12c-1.47-1.03-2.02-2.49-1.6-4.23
		c0.16-0.69,0.44-1.33,0.89-1.88c0.94-1.15,2.21-1.45,3.59-1.26c1.01,0.14,2,0.46,2.99,0.7c0.91,0.22,1.81,0.21,2.69-0.12
		c0.06-0.02,0.12-0.04,0.17-0.07c0.3-0.15,0.6-0.31,0.58-0.7c-0.02-0.39-0.39-0.42-0.66-0.47c-1.04-0.2-2.08-0.38-3.12-0.54
		c-1.93-0.3-3.84-0.66-5.57-1.63c-1.57-0.87-2.7-2.12-3.31-3.83C481.83,380,481.79,379.94,481.73,379.8z M364.74,373.01
		c-0.01,0.06-0.03,0.11-0.03,0.17c-0.01,0.69-0.19,1.35-0.49,1.96c-0.46,0.92-1.09,1.66-2.12,1.97c-0.74,0.23-1.47,0.1-2.2-0.09
		c-0.87-0.23-1.73-0.52-2.6-0.71c-1.72-0.38-3.28,0.35-4.15,1.88c-0.51,0.89-0.75,1.86-0.79,2.88c-0.08,1.81,0.29,3.48,1.49,4.9
		c0.93,1.1,2.12,1.58,3.54,1.22c0.7-0.18,1.36-0.54,2.04-0.8c0.64-0.24,1.28-0.58,1.95-0.67c1.61-0.22,2.77,0.57,3.62,1.88
		c0.06,0.09,0.12,0.17,0.21,0.3c0.12-0.55,0.23-1.03,0.34-1.51c0.79-3.52,1.58-7.05,2.38-10.57c0.06-0.24-0.01-0.3-0.23-0.34
		c-0.74-0.16-1.41-0.45-1.98-0.96C365.24,374.09,364.95,373.58,364.74,373.01z M477.86,382.64c-0.01-0.02-0.02-0.04-0.03-0.06
		c-3.34,1.2-6.67,2.41-10.05,3.63c0.57,0.6,1.2,0.95,1.94,1.09c1.78,0.33,3.4-0.1,4.74-1.28
		C475.65,384.96,476.73,383.77,477.86,382.64z M472.35,377.48c-0.64-1.37-2.73-1.99-4.38-1.37c-1.76,0.66-2.6,2.3-2.43,3.8
		C467.81,379.1,470.07,378.29,472.35,377.48z"/>
	<path class="st0" d="M318.55,371.06c0.63-1.78,1.83-2.88,3.69-3.04c1.75-0.15,3.34,0.25,4.35,1.93c1.22-1.27,2.74-1.58,4.39-1.35
		c1.74,0.24,2.81,1.31,3.38,2.97c0.17-0.4,0.29-0.78,0.48-1.12c0.88-1.61,2.46-2.4,4.31-2.18c1.53,0.18,2.95,1.44,3.39,3.07
		c0.15,0.56,0.23,1.15,0.26,1.73c0.21,3.71,0.4,7.43,0.6,11.14c0.11,2.1,0.23,4.2,0.32,6.31c0.05,1.3-0.31,2.46-1.14,3.5
		c-1.42,1.77-5.26,2.24-6.85-0.89c-0.37-0.73-0.53-1.52-0.57-2.33c-0.15-3.12-0.31-6.23-0.46-9.35c-0.11-2.22-0.22-4.43-0.34-6.65
		c0-0.05-0.02-0.09-0.05-0.2c-0.45,0.98-1.16,1.62-2.1,1.99c-0.67,0.27-1.36,0.49-2.03,0.74c-0.69,0.26-1.41,0.49-2.06,0.83
		c-1.11,0.57-1.67,1.5-1.74,2.78c-0.12,2.42-0.3,4.83-0.47,7.24c-0.06,0.96-0.09,1.93-0.22,2.88c-0.24,1.71-1.04,3.09-2.69,3.78
		c-2.3,0.96-4.88-0.35-5.59-2.76c-0.29-0.98-0.22-1.97-0.15-2.96c0.2-2.99,0.4-5.98,0.6-8.97c0.1-1.44,0.2-2.88,0.29-4.33
		c0.01-0.13,0.02-0.27,0.03-0.44c-0.06,0.03-0.11,0.03-0.13,0.06c-0.91,1.12-2.13,1.49-3.52,1.47c-0.31-0.01-0.63-0.02-0.94-0.04
		c-0.2-0.01-0.28,0.04-0.29,0.25c-0.2,3-0.4,6-0.62,9c-0.13,1.84-0.23,3.68-0.43,5.51c-0.19,1.74-1.52,3.27-3.09,3.64
		c-1.92,0.45-3.99-0.21-4.94-2.45c-0.04-0.09-0.07-0.17-0.14-0.34c-0.07,0.33-0.11,0.58-0.18,0.83c-0.55,2.08-2.56,3.37-4.68,3.02
		c-2-0.33-3.11-1.42-3.63-3.56c-0.25-1.04-0.5-2.08-0.72-3.12c-0.06-0.3-0.18-0.43-0.5-0.46c-1.4-0.11-2.8-0.25-4.19-0.37
		c-1.91-0.17-3.82-0.34-5.73-0.52c-0.24-0.02-0.35,0.04-0.44,0.26c-0.48,1.16-0.95,2.33-1.47,3.47c-0.52,1.13-1.33,1.98-2.56,2.33
		c-2.47,0.71-5.08-0.85-5.59-3.37c-0.2-1-0.03-1.98,0.39-2.91c2.5-5.52,5-11.04,7.5-16.56c1.16-2.57,2.31-5.13,3.48-7.69
		c0.69-1.51,1.73-2.72,3.23-3.48c2.78-1.41,6.22-0.17,7.6,2.7c0.5,1.05,0.74,2.18,1.02,3.29c1.25,4.9,2.5,9.79,3.75,14.69
		c0.78,3.05,1.55,6.11,2.33,9.16c0.01,0.05,0.03,0.09,0.12,0.14c0.01-0.1,0.04-0.2,0.04-0.31c0.15-2.31,0.31-4.62,0.46-6.93
		c0.14-2.16,0.28-4.33,0.43-6.49c0.02-0.29-0.05-0.38-0.35-0.41c-2.21-0.21-3.53-1.7-3.52-3.92c0-1.47,0.53-2.67,1.77-3.51
		c0.7-0.47,1.49-0.67,2.33-0.59c0.28,0.02,0.34-0.06,0.36-0.31c0.11-1.2,0.18-2.4,0.37-3.59c0.26-1.61,0.93-3.06,2.08-4.25
		c1.43-1.5,3.21-2.19,5.27-2.18c1.18,0.01,2.34,0.14,3.45,0.56c1.79,0.67,2.71,2.13,2.5,4.03c-0.05,0.5-0.13,1-0.29,1.47
		c-0.46,1.38-1.48,2.1-2.96,2.14c-0.27,0.01-0.54-0.01-0.82-0.01c-0.44,0.01-0.79,0.21-0.87,0.63c-0.12,0.66-0.14,1.33-0.19,1.99
		c0,0.05,0.14,0.14,0.22,0.15c0.53,0.08,1.06,0.11,1.59,0.2C317.06,369.26,317.64,369.69,318.55,371.06z M287.53,379.94
		c1.76,0.15,3.51,0.3,5.3,0.45c-0.68-3.06-1.34-6.03-2.01-9.06C289.72,374.24,288.63,377.06,287.53,379.94z"/>
</g>
<path class="st2" d="M338.08,358.33c2.52,0.04,4.7,2.28,4.62,4.88c-0.06,1.96-0.92,3.52-2.69,4.4c-1.72,0.86-3.83,0.65-5.37-1.14
	c-2.67-3.11-0.86-6.8,1.94-7.82C337.06,358.47,337.58,358.43,338.08,358.33z"/>
<path class="st3" d="M385.74,358.32c2.66,0.04,4.87,2.53,4.6,5.23c-0.19,1.82-1.03,3.24-2.68,4.06c-1.68,0.84-3.77,0.65-5.31-1.08
	c-2.67-3.01-1.06-6.78,1.86-7.88C384.7,358.47,385.23,358.43,385.74,358.32z"/>
<path class="st2" d="M416.55,358.32c2.66,0.05,4.87,2.55,4.59,5.24c-0.19,1.82-1.04,3.24-2.69,4.05c-1.64,0.81-3.71,0.67-5.26-1.05
	c-2.74-3.02-1.1-6.83,1.84-7.92C415.51,358.47,416.05,358.43,416.55,358.32z"/>
<g>
	<path class="st4" d="M299.15,432.16c-0.02,0.15-0.06,0.56-0.13,1.23c-0.07,0.67-0.14,1.41-0.21,2.2c-0.13,0-0.27,0-0.43,0
		c-0.15,0-0.3,0-0.43,0c-3.96,0-7.48-0.5-10.57-1.5c-3.08-1-5.62-2.45-7.6-4.35c-1.38-1.32-2.47-2.89-3.28-4.72
		c-0.8-1.83-1.21-3.93-1.21-6.28c0-2.11,0.4-4.04,1.19-5.78c0.8-1.74,1.83-3.27,3.12-4.57c1.87-1.88,4.37-3.38,7.52-4.48
		c3.15-1.1,6.52-1.66,10.11-1.66c0.18,0,0.38,0,0.61,0c0.23,0,0.39,0,0.49,0c0.02,0.29,0.05,0.76,0.1,1.4
		c0.05,0.64,0.11,1.34,0.17,2.08c-0.16,0-0.3,0-0.41,0c-0.11,0-0.25,0-0.41,0c-2.03,0-4.14,0.22-6.32,0.67
		c-2.18,0.45-4.06,1.12-5.63,2.01c-2.05,1.17-3.62,2.67-4.73,4.49c-1.11,1.83-1.66,3.79-1.66,5.91c0,2.19,0.5,4.19,1.49,5.98
		c0.99,1.79,2.56,3.3,4.71,4.52c1.76,1.01,3.72,1.74,5.89,2.19c2.17,0.45,4.33,0.68,6.47,0.68c0.1,0,0.25,0,0.46,0
		C298.68,432.19,298.9,432.18,299.15,432.16z"/>
	<path class="st4" d="M309.45,405.79h-4.29v-4.19h4.29V405.79z M309.23,435.16h-3.85c0.02-0.26,0.04-1.86,0.06-4.8
		c0.02-2.94,0.04-5.37,0.04-7.28c0-1.67,0-3.51-0.01-5.52c-0.01-2.01-0.04-4.35-0.09-7.05h3.85c-0.03,2.34-0.06,4.53-0.09,6.56
		c-0.02,2.04-0.04,3.85-0.04,5.44c0,3.78,0.02,6.82,0.06,9.11C309.21,433.92,309.23,435.09,309.23,435.16z"/>
	<path class="st4" d="M331.78,432.14l-0.44,3.09c-0.11,0.02-0.39,0.03-0.84,0.05c-0.45,0.02-0.83,0.02-1.16,0.02
		c-3.33,0-5.84-0.69-7.55-2.08c-1.7-1.39-2.56-3.52-2.56-6.39c0-1.8,0.01-3.73,0.04-5.8c0.02-2.06,0.04-4.62,0.04-7.67h-4.09v-2.85
		h4.31v-5.77h3.53v5.77h8.72v2.85h-8.72c0,0.34-0.01,1.36-0.04,3.04c-0.02,1.69-0.04,2.94-0.04,3.75c0,0.68,0,1.52,0,2.51
		c0,0.99,0,2.17,0,3.53c0,2.11,0.57,3.63,1.7,4.57c1.14,0.93,2.89,1.4,5.26,1.4c0.29,0,0.64,0,1.05-0.01
		C331.41,432.14,331.67,432.14,331.78,432.14z"/>
	<path class="st4" d="M342.27,405.79h-4.29v-4.19h4.29V405.79z M342.06,435.16h-3.85c0.02-0.26,0.04-1.86,0.06-4.8
		c0.02-2.94,0.04-5.37,0.04-7.28c0-1.67,0-3.51-0.01-5.52c-0.01-2.01-0.04-4.35-0.09-7.05h3.85c-0.03,2.34-0.06,4.53-0.09,6.56
		c-0.02,2.04-0.04,3.85-0.04,5.44c0,3.78,0.02,6.82,0.06,9.11C342.04,433.92,342.06,435.09,342.06,435.16z"/>
	<path class="st4" d="M368.94,435.01c-0.08,0-1.45,0-4.1-0.01c-2.65-0.01-4.61-0.01-5.88-0.01c-1.62,0-3.58,0-5.88,0.01
		c-2.3,0.01-3.5,0.01-3.62,0.01l-0.8-2.29c1.61-2.06,3.75-4.83,6.44-8.29c2.69-3.47,5.42-7.01,8.19-10.63l-0.02-0.05
		c-0.7,0-1.41,0-2.13-0.01c-0.72-0.01-1.42-0.01-2.08-0.01c-1.56,0-3.54,0.01-5.95,0.04c-2.41,0.02-3.68,0.04-3.81,0.04v-3.04
		c0.15,0,1.47,0,3.97,0.01c2.5,0.01,4.03,0.01,4.6,0.01c1.14,0,2.9,0,5.3-0.01c2.39-0.01,3.7-0.01,3.91-0.01l1.24,2.29
		c-2.78,3.46-5.76,7.29-8.96,11.48c-3.2,4.2-5.07,6.64-5.63,7.34l0.02,0.05c0.62,0,1.42,0,2.42,0.01c1,0.01,2.07,0.01,3.23,0.01
		c3.28,0,5.67-0.01,7.16-0.04c1.49-0.02,2.29-0.04,2.39-0.04V435.01z"/>
	<path class="st4" d="M394,421.93h-17.61c0.02,1.72,0.38,3.3,1.1,4.74c0.71,1.44,1.81,2.63,3.29,3.57c0.94,0.6,2.01,1.05,3.21,1.35
		c1.2,0.3,2.65,0.45,4.33,0.45c0.93,0,1.77-0.02,2.54-0.07c0.77-0.05,1.25-0.08,1.42-0.1l-0.44,3.24c-0.13,0.02-0.56,0.04-1.29,0.09
		c-0.73,0.04-1.59,0.06-2.58,0.06c-2.6,0-4.86-0.34-6.78-1.01c-1.92-0.67-3.5-1.6-4.74-2.79c-1.06-0.99-1.95-2.26-2.69-3.8
		c-0.74-1.54-1.11-3.25-1.11-5.14c0-1.85,0.28-3.52,0.83-5.02c0.55-1.49,1.38-2.88,2.48-4.16c0.96-1.1,2.15-1.96,3.57-2.56
		c1.42-0.6,2.89-0.9,4.42-0.9c1.51,0,2.85,0.23,4.02,0.68c1.17,0.45,2.18,1.14,3.04,2.07c0.96,1.04,1.69,2.32,2.19,3.84
		C393.72,417.99,393.98,419.81,394,421.93z M390.22,419.21c-0.26-2.01-0.95-3.59-2.06-4.74c-1.11-1.14-2.58-1.72-4.4-1.72
		c-1.82,0-3.34,0.58-4.55,1.74c-1.22,1.16-2.06,2.73-2.53,4.71H390.22z"/>
	<path class="st4" d="M420.64,435.16h-3.85c0.02-0.45,0.04-1.96,0.06-4.5c0.02-2.55,0.04-4.12,0.04-4.72c0-0.84,0-2.09-0.01-3.74
		c-0.01-1.65-0.02-2.85-0.04-3.62c-0.05-1.87-0.41-3.21-1.07-4.02c-0.67-0.81-1.82-1.22-3.46-1.22c-0.99,0-2.22,0.29-3.68,0.88
		c-1.46,0.58-2.94,1.33-4.43,2.24c0,0.18-0.01,1.14-0.02,2.9c-0.02,1.75-0.02,3.35-0.02,4.8c0,1.88,0.02,4.16,0.06,6.82
		c0.04,2.66,0.06,4.06,0.06,4.19h-3.85c0-0.11,0.02-1.11,0.05-2.98c0.03-1.88,0.05-4.66,0.05-8.36c0-1.7,0-3.7-0.01-5.99
		c-0.01-2.29-0.04-4.72-0.08-7.31h3.8l-0.02,2.8l0.02,0.05c2.27-1.3,4.17-2.2,5.69-2.71c1.52-0.51,2.78-0.77,3.79-0.77
		c2.08,0,3.75,0.65,5,1.96c1.26,1.31,1.89,3.1,1.89,5.37c0,2.05-0.01,3.81-0.04,5.3c-0.02,1.49-0.04,2.69-0.04,3.62
		c0,1.48,0.02,3.32,0.06,5.54C420.62,433.88,420.64,435.04,420.64,435.16z"/>
</g>
<g>
	<path class="st5" d="M450.59,435.11c-0.19,0-1.22-0.01-3.08-0.02c-1.86-0.02-4.23-0.02-7.12-0.02c-1.9,0-3.71,0.01-5.42,0.02
		c-1.71,0.02-3.16,0.02-4.35,0.02c0.03-2.79,0.06-5.62,0.08-8.49c0.02-2.87,0.04-5.68,0.04-8.44c0-4.61-0.02-8.13-0.05-10.54
		c-0.03-2.42-0.06-4.12-0.07-5.09h4.02c-0.03,2.09-0.06,4.51-0.07,7.25c-0.02,2.74-0.02,4.99-0.02,6.74c0,4.27,0.01,7.83,0.02,10.68
		c0.02,2.85,0.02,4.36,0.02,4.53c0.67,0,1.47,0,2.41,0.01c0.94,0.01,1.79,0.01,2.56,0.01c2.91,0,5.43-0.01,7.59-0.04
		c2.15-0.02,3.3-0.04,3.45-0.04V435.11z"/>
	<path class="st5" d="M473.21,421.28c0,4.03-0.01,7.31-0.02,9.84c-0.02,2.53-0.02,3.9-0.02,4.09c-0.16,0.02-0.92,0.08-2.26,0.18
		c-1.35,0.11-3.08,0.16-5.21,0.16c-1.33,0-2.67-0.12-4.02-0.37c-1.35-0.24-2.51-0.59-3.48-1.05c-1.3-0.6-2.35-1.42-3.15-2.46
		c-0.8-1.04-1.21-2.29-1.21-3.75c0-1.54,0.47-2.88,1.42-4.01c0.95-1.13,2.27-2.04,3.96-2.74c1.06-0.44,2.46-0.83,4.22-1.18
		c1.76-0.35,3.77-0.61,6.03-0.79c-0.1-1.27-0.41-2.31-0.95-3.12c-0.54-0.81-1.32-1.43-2.36-1.85c-0.71-0.29-1.51-0.5-2.39-0.62
		c-0.88-0.12-1.9-0.18-3.07-0.18c-0.73,0-1.35,0.02-1.86,0.05c-0.51,0.03-1.21,0.07-2.08,0.12l0.39-3.24
		c0.24-0.02,0.73-0.04,1.45-0.09c0.72-0.04,1.71-0.06,2.96-0.06c1.92,0,3.62,0.2,5.13,0.6c1.5,0.4,2.75,1.04,3.74,1.94
		c0.93,0.84,1.62,1.89,2.09,3.13C472.98,417.13,473.21,418.92,473.21,421.28z M469.49,427.15c0-0.55,0-1.25,0-2.09
		c0-0.84-0.01-1.82-0.02-2.92c-0.71,0.03-1.96,0.17-3.75,0.43c-1.79,0.25-3.29,0.61-4.51,1.08c-0.91,0.34-1.72,0.85-2.42,1.53
		c-0.71,0.68-1.06,1.53-1.06,2.53c0,1.1,0.3,1.99,0.9,2.67c0.6,0.67,1.42,1.19,2.46,1.55c0.8,0.28,1.68,0.47,2.64,0.6
		c0.97,0.12,1.99,0.18,3.06,0.18c0.32,0,0.72-0.01,1.19-0.02c0.47-0.02,0.97-0.03,1.49-0.05c0-0.11,0-0.65,0.01-1.61
		C469.48,430.06,469.49,428.77,469.49,427.15z"/>
	<path class="st5" d="M502.95,422.63c0,2.66-0.65,4.95-1.96,6.86c-1.31,1.91-3.07,3.34-5.3,4.28c-1.45,0.62-3.09,1.07-4.94,1.35
		c-1.85,0.28-4.08,0.43-6.67,0.43c-0.36,0-0.72,0-1.1,0c-0.37,0-0.73,0-1.07,0c0.02-1.25,0.04-3.57,0.06-6.96
		c0.02-3.39,0.04-7.47,0.04-12.24c0-2.92-0.01-5.75-0.02-8.49c-0.02-2.74-0.04-5.54-0.07-8.4h3.85l-0.07,11.23
		c3.33,0.03,5.99,0.33,8,0.89c2.01,0.56,3.67,1.32,5,2.27c1.38,0.99,2.44,2.23,3.17,3.71C502.58,419.04,502.95,420.73,502.95,422.63
		z M499.05,422.73c0-1.96-0.56-3.61-1.67-4.94c-1.11-1.33-2.54-2.29-4.3-2.89c-0.91-0.31-1.89-0.55-2.95-0.72
		c-1.06-0.17-2.14-0.26-3.26-0.26c-0.21,0-0.43,0-0.65,0c-0.22,0-0.4,0-0.55,0c0,0.36,0,1.65-0.01,3.88
		c-0.01,2.23-0.01,4.07-0.01,5.51c0,2.71,0.01,4.62,0.02,5.74c0.02,1.12,0.02,2.25,0.02,3.4c1.79,0,3.42-0.13,4.89-0.4
		c1.48-0.27,2.75-0.68,3.82-1.25c1.56-0.83,2.72-1.92,3.48-3.27S499.05,424.58,499.05,422.73z"/>
</g>
<g>
	<g>
		<path class="st6" d="M394.59,182.21c0.27-0.01,0.27-0.01,0.61-1.26c0.33-0.05,0.67-0.1,1.03-0.15c0.41,0.88,1.17,0.71,1.95,0.58
			c0.29,1.15,1.18,0.89,1.99,0.79c0.09,1.36,1.32,1.38,2.46,0.84c-0.39,1.28-0.78,2.56-1.19,3.83c-0.04,0.12-0.25,0.25-0.39,0.25
			c-1.83,0.02-3.66,0.01-5.3,0.01c-0.49-0.77-0.87-1.4-1.28-2c-0.61-0.91-1.27-1.78-1.84-2.7c-0.75-1.21,0.01-2.81,1.43-3.07
			c0.43-0.08,0.87,0.26,0.84,0.77C394.87,180.8,394.71,181.49,394.59,182.21z"/>
		<path class="st6" d="M400.39,179.36c0,0.41-0.01,0.83,0,1.24c0.02,0.61-0.35,0.8-0.87,0.8c-0.54,0-0.86-0.2-0.84-0.81
			c0.03-0.83,0.02-1.66,0-2.48c-0.01-0.58,0.3-0.75,0.82-0.75c0.54,0,0.9,0.15,0.89,0.77C400.39,178.53,400.39,178.94,400.39,179.36
			z"/>
		<path class="st6" d="M398.38,178.6c0,0.43,0,0.87,0,1.3c0.01,0.56-0.37,0.7-0.82,0.7c-0.48,0.01-0.87-0.12-0.87-0.72
			c0-0.89,0-1.78,0-2.67c0-0.57,0.4-0.67,0.85-0.66c0.44,0.01,0.83,0.12,0.84,0.68C398.39,177.69,398.38,178.14,398.38,178.6z"/>
		<path class="st6" d="M400.68,180.41c0-0.46,0-0.92,0-1.38c-0.01-0.45,0.25-0.62,0.66-0.63c0.41-0.01,0.91-0.08,0.94,0.52
			c0.06,0.98,0.1,1.97,0.06,2.94c-0.02,0.54-0.51,0.6-0.94,0.57c-0.4-0.02-0.73-0.15-0.72-0.65
			C400.69,181.33,400.68,180.87,400.68,180.41z"/>
		<path class="st6" d="M394.2,178.79c0.1-0.54,0.15-1,0.29-1.42c0.19-0.58,0.64-0.87,1.24-0.9c0.42-0.02,0.7,0.13,0.68,0.64
			c-0.03,0.7,0,1.4-0.01,2.1c-0.01,0.73-0.2,0.88-1.02,0.79C395.35,179.34,395.26,178.7,394.2,178.79z"/>
	</g>
	<g>
		<path class="st6" d="M423.8,150.49c0.27,0.05,0.27,0.05,0.89-1.09c0.34,0.03,0.67,0.06,1.04,0.1c0.2,0.95,0.97,0.96,1.76,1.02
			c0.02,1.19,0.94,1.14,1.75,1.24c-0.23,1.35,0.96,1.65,2.19,1.39c-0.68,1.15-1.36,2.31-2.05,3.45c-0.06,0.11-0.31,0.18-0.44,0.15
			c-1.79-0.41-3.57-0.84-5.16-1.23c-0.3-0.87-0.52-1.56-0.77-2.24c-0.38-1.02-0.82-2.02-1.16-3.06c-0.45-1.36,0.67-2.73,2.11-2.65
			c0.44,0.02,0.79,0.45,0.64,0.95C424.4,149.19,424.08,149.82,423.8,150.49z"/>
		<path class="st6" d="M430.1,149.07c-0.1,0.4-0.2,0.8-0.29,1.21c-0.13,0.6-0.52,0.69-1.04,0.57c-0.52-0.12-0.79-0.4-0.63-0.99
			c0.22-0.8,0.4-1.61,0.58-2.41c0.13-0.56,0.46-0.66,0.97-0.54c0.52,0.12,0.84,0.36,0.68,0.95
			C430.29,148.27,430.2,148.67,430.1,149.07z"/>
		<path class="st6" d="M428.33,147.87c-0.1,0.42-0.21,0.84-0.3,1.27c-0.12,0.55-0.52,0.59-0.96,0.49c-0.46-0.11-0.82-0.33-0.68-0.9
			c0.21-0.87,0.41-1.73,0.63-2.6c0.14-0.55,0.55-0.56,0.98-0.45c0.43,0.11,0.78,0.31,0.66,0.86
			C428.54,146.98,428.43,147.43,428.33,147.87z"/>
		<path class="st6" d="M430.14,150.17c0.11-0.45,0.22-0.89,0.32-1.34c0.1-0.44,0.39-0.55,0.79-0.46c0.4,0.09,0.9,0.13,0.8,0.73
			c-0.17,0.97-0.36,1.93-0.63,2.88c-0.14,0.52-0.63,0.46-1.05,0.33c-0.38-0.12-0.68-0.32-0.55-0.8
			C429.94,151.06,430.03,150.61,430.14,150.17z"/>
		<path class="st6" d="M424.22,147.07c0.23-0.5,0.38-0.93,0.61-1.32c0.32-0.52,0.82-0.7,1.41-0.58c0.41,0.08,0.65,0.29,0.51,0.78
			c-0.19,0.67-0.33,1.36-0.5,2.04c-0.18,0.71-0.4,0.81-1.18,0.53C425.2,147.88,425.26,147.23,424.22,147.07z"/>
	</g>
	<g>
		<path class="st6" d="M437.78,155.08c0.24,0.12,0.24,0.12,1.15-0.8c0.31,0.12,0.63,0.25,0.97,0.38c-0.07,0.97,0.67,1.19,1.41,1.46
			c-0.31,1.14,0.59,1.36,1.34,1.67c-0.59,1.23,0.47,1.85,1.73,1.94c-0.97,0.92-1.94,1.84-2.92,2.75c-0.09,0.08-0.34,0.09-0.46,0.03
			c-1.6-0.89-3.2-1.79-4.62-2.6c-0.05-0.92-0.07-1.64-0.13-2.37c-0.08-1.09-0.23-2.17-0.27-3.26c-0.06-1.43,1.4-2.44,2.76-1.97
			c0.41,0.14,0.63,0.65,0.36,1.09C438.72,153.99,438.24,154.51,437.78,155.08z"/>
		<path class="st6" d="M444.23,155.45c-0.2,0.36-0.42,0.72-0.61,1.08c-0.29,0.54-0.69,0.52-1.15,0.27c-0.47-0.26-0.65-0.6-0.33-1.12
			c0.43-0.71,0.83-1.43,1.22-2.16c0.28-0.51,0.63-0.51,1.09-0.25c0.47,0.26,0.71,0.58,0.4,1.11
			C444.64,154.72,444.44,155.09,444.23,155.45z"/>
		<path class="st6" d="M442.86,153.8c-0.21,0.38-0.43,0.75-0.64,1.14c-0.27,0.49-0.66,0.43-1.05,0.21c-0.42-0.23-0.7-0.54-0.4-1.05
			c0.44-0.77,0.87-1.55,1.32-2.33c0.28-0.49,0.68-0.39,1.06-0.16c0.38,0.22,0.67,0.51,0.39,1
			C443.31,153.01,443.08,153.4,442.86,153.8z"/>
		<path class="st6" d="M443.97,156.51c0.23-0.4,0.46-0.8,0.68-1.2c0.22-0.4,0.53-0.42,0.88-0.22c0.36,0.2,0.83,0.38,0.56,0.92
			c-0.43,0.88-0.88,1.76-1.4,2.59c-0.28,0.46-0.74,0.27-1.1,0.03c-0.33-0.22-0.57-0.49-0.31-0.92
			C443.53,157.31,443.74,156.91,443.97,156.51z"/>
		<path class="st6" d="M439.13,151.91c0.36-0.42,0.62-0.79,0.95-1.1c0.45-0.41,0.98-0.45,1.52-0.17c0.37,0.19,0.55,0.45,0.28,0.89
			c-0.37,0.59-0.69,1.22-1.04,1.82c-0.36,0.63-0.6,0.67-1.28,0.18C439.85,152.95,440.09,152.35,439.13,151.91z"/>
	</g>
	<g>
		<path class="st6" d="M451.74,163.66c0.22,0.16,0.22,0.16,1.26-0.62c0.29,0.17,0.59,0.33,0.91,0.51c-0.21,0.95,0.49,1.28,1.18,1.65
			c-0.47,1.09,0.39,1.43,1.09,1.85c-0.76,1.13,0.2,1.9,1.43,2.17c-1.1,0.77-2.18,1.54-3.29,2.3c-0.1,0.07-0.35,0.04-0.46-0.04
			c-1.46-1.11-2.9-2.24-4.2-3.24c0.09-0.91,0.17-1.64,0.22-2.36c0.08-1.09,0.09-2.18,0.2-3.27c0.15-1.42,1.74-2.21,3.01-1.55
			c0.39,0.2,0.53,0.74,0.19,1.13C452.82,162.71,452.27,163.16,451.74,163.66z"/>
		<path class="st6" d="M458.07,164.96c-0.25,0.33-0.51,0.65-0.76,0.98c-0.36,0.49-0.76,0.42-1.18,0.1
			c-0.42-0.33-0.56-0.69-0.17-1.16c0.53-0.64,1.03-1.3,1.53-1.96c0.35-0.46,0.7-0.41,1.11-0.09c0.43,0.33,0.61,0.67,0.23,1.15
			C458.58,164.3,458.33,164.63,458.07,164.96z"/>
		<path class="st6" d="M456.95,163.13c-0.27,0.34-0.54,0.68-0.8,1.03c-0.34,0.45-0.72,0.33-1.07,0.05c-0.38-0.29-0.61-0.63-0.25-1.1
			c0.55-0.7,1.09-1.41,1.64-2.11c0.35-0.45,0.73-0.28,1.07,0c0.34,0.28,0.58,0.6,0.24,1.05
			C457.51,162.41,457.23,162.77,456.95,163.13z"/>
		<path class="st6" d="M457.66,165.97c0.28-0.36,0.57-0.72,0.84-1.09c0.27-0.36,0.58-0.34,0.91-0.09c0.33,0.25,0.77,0.49,0.42,0.99
			c-0.56,0.81-1.13,1.61-1.76,2.36c-0.34,0.41-0.77,0.16-1.09-0.13c-0.3-0.26-0.49-0.57-0.17-0.96
			C457.1,166.7,457.38,166.33,457.66,165.97z"/>
		<path class="st6" d="M453.53,160.72c0.41-0.36,0.73-0.69,1.1-0.95c0.5-0.34,1.04-0.3,1.53,0.05c0.34,0.24,0.47,0.53,0.15,0.92
			c-0.45,0.53-0.86,1.1-1.29,1.65c-0.45,0.57-0.69,0.57-1.29,0C454.1,161.86,454.42,161.29,453.53,160.72z"/>
	</g>
	<g>
		<path class="st6" d="M461.88,176.19c0.22,0.16,0.22,0.16,1.26-0.62c0.29,0.17,0.59,0.33,0.91,0.51c-0.21,0.95,0.49,1.28,1.18,1.65
			c-0.47,1.09,0.39,1.43,1.09,1.85c-0.76,1.13,0.2,1.9,1.43,2.17c-1.1,0.77-2.18,1.54-3.29,2.3c-0.1,0.07-0.35,0.04-0.46-0.04
			c-1.46-1.11-2.9-2.24-4.2-3.24c0.09-0.91,0.17-1.64,0.22-2.36c0.07-1.09,0.09-2.18,0.2-3.27c0.15-1.42,1.74-2.21,3.01-1.55
			c0.39,0.2,0.53,0.74,0.19,1.13C462.97,175.24,462.42,175.69,461.88,176.19z"/>
		<path class="st6" d="M468.22,177.49c-0.25,0.33-0.51,0.65-0.76,0.98c-0.36,0.49-0.76,0.42-1.18,0.1
			c-0.42-0.33-0.56-0.69-0.17-1.16c0.53-0.64,1.03-1.3,1.53-1.96c0.35-0.46,0.7-0.41,1.11-0.09c0.43,0.33,0.61,0.67,0.23,1.15
			C468.72,176.83,468.47,177.16,468.22,177.49z"/>
		<path class="st6" d="M467.09,175.66c-0.27,0.34-0.54,0.68-0.8,1.03c-0.34,0.45-0.72,0.33-1.07,0.05c-0.38-0.29-0.61-0.63-0.25-1.1
			c0.55-0.7,1.09-1.41,1.64-2.11c0.35-0.45,0.73-0.28,1.07,0c0.34,0.28,0.58,0.6,0.24,1.05
			C467.65,174.94,467.37,175.3,467.09,175.66z"/>
		<path class="st6" d="M467.8,178.5c0.28-0.36,0.57-0.72,0.84-1.09c0.27-0.36,0.58-0.34,0.91-0.09c0.33,0.25,0.77,0.49,0.42,0.99
			c-0.56,0.81-1.13,1.61-1.76,2.36c-0.34,0.41-0.77,0.16-1.09-0.13c-0.3-0.26-0.49-0.57-0.17-0.96
			C467.24,179.23,467.52,178.86,467.8,178.5z"/>
		<path class="st6" d="M463.68,173.24c0.41-0.36,0.73-0.69,1.1-0.95c0.5-0.34,1.04-0.3,1.53,0.05c0.34,0.24,0.47,0.53,0.15,0.92
			c-0.45,0.53-0.86,1.1-1.29,1.65c-0.45,0.57-0.69,0.57-1.29,0C464.24,174.38,464.56,173.82,463.68,173.24z"/>
	</g>
	<g>
		<g>
			<path class="st6" d="M473.04,199.04c0.18,0.21,0.18,0.21,1.37-0.29c0.24,0.23,0.49,0.47,0.75,0.73
				c-0.44,0.86,0.16,1.36,0.73,1.89c-0.73,0.94,0.02,1.48,0.59,2.06c-1.02,0.91-0.28,1.89,0.84,2.46c-1.25,0.47-2.5,0.95-3.76,1.4
				c-0.12,0.04-0.35-0.05-0.44-0.15c-1.13-1.44-2.25-2.89-3.25-4.19c0.31-0.86,0.57-1.54,0.8-2.23c0.35-1.03,0.63-2.09,1.01-3.11
				c0.5-1.34,2.24-1.71,3.31-0.74c0.32,0.29,0.33,0.85-0.09,1.14C474.33,198.4,473.68,198.69,473.04,199.04z"/>
			<path class="st6" d="M478.84,201.88c-0.33,0.25-0.66,0.5-0.98,0.76c-0.47,0.39-0.84,0.21-1.17-0.2
				c-0.33-0.42-0.37-0.81,0.13-1.16c0.67-0.49,1.32-1,1.97-1.52c0.45-0.36,0.78-0.23,1.1,0.19c0.33,0.43,0.43,0.8-0.06,1.17
				C479.5,201.37,479.17,201.63,478.84,201.88z"/>
			<path class="st6" d="M478.21,199.83c-0.34,0.27-0.69,0.53-1.03,0.8c-0.44,0.35-0.77,0.14-1.05-0.22
				c-0.29-0.37-0.43-0.77,0.04-1.13c0.71-0.54,1.41-1.09,2.12-1.63c0.45-0.34,0.77-0.09,1.04,0.26c0.26,0.35,0.41,0.73-0.03,1.08
				C478.94,199.28,478.58,199.56,478.21,199.83z"/>
			<path class="st6" d="M478.19,202.76c0.36-0.28,0.73-0.56,1.09-0.84c0.35-0.28,0.65-0.18,0.9,0.14c0.26,0.32,0.62,0.67,0.16,1.07
				c-0.74,0.64-1.5,1.28-2.29,1.85c-0.44,0.31-0.78-0.04-1.03-0.4c-0.22-0.33-0.33-0.67,0.08-0.97
				C477.47,203.33,477.83,203.04,478.19,202.76z"/>
			<path class="st6" d="M475.51,196.64c0.49-0.25,0.88-0.49,1.3-0.64c0.57-0.21,1.08-0.03,1.47,0.43c0.27,0.32,0.33,0.63-0.09,0.93
				c-0.57,0.4-1.11,0.85-1.66,1.28c-0.58,0.44-0.81,0.38-1.25-0.33C475.77,197.88,476.23,197.42,475.51,196.64z"/>
		</g>
	</g>
	<g>
		<g>
			<path class="st6" d="M471.77,228.57c0.06,0.26,0.06,0.26,1.36,0.35c0.11,0.32,0.23,0.64,0.35,0.98
				c-0.78,0.58-0.47,1.29-0.19,2.02c-1.07,0.51-0.65,1.33-0.39,2.11c-1.32,0.36-1.1,1.56-0.35,2.58c-1.33-0.14-2.66-0.27-3.99-0.43
				c-0.12-0.01-0.29-0.2-0.32-0.33c-0.37-1.79-0.72-3.59-1.04-5.2c0.66-0.63,1.2-1.12,1.71-1.64c0.77-0.77,1.5-1.59,2.29-2.33
				c1.04-0.98,2.76-0.53,3.29,0.81c0.16,0.41-0.08,0.9-0.59,0.98C473.2,228.57,472.5,228.55,471.77,228.57z"/>
			<path class="st6" d="M475.69,233.71c-0.41,0.08-0.81,0.15-1.22,0.25c-0.6,0.14-0.85-0.18-0.95-0.7
				c-0.11-0.53,0.03-0.88,0.63-0.98c0.82-0.14,1.63-0.31,2.44-0.48c0.56-0.12,0.8,0.14,0.9,0.66c0.11,0.53,0.02,0.91-0.58,1.02
				C476.51,233.54,476.1,233.63,475.69,233.71z"/>
			<path class="st6" d="M476.04,231.59c-0.43,0.08-0.85,0.17-1.28,0.25c-0.55,0.12-0.75-0.22-0.84-0.66
				c-0.1-0.47-0.05-0.88,0.54-0.99c0.87-0.17,1.75-0.35,2.62-0.52c0.56-0.11,0.73,0.26,0.81,0.7c0.08,0.43,0.04,0.84-0.5,0.95
				C476.94,231.42,476.49,231.5,476.04,231.59z"/>
			<path class="st6" d="M474.72,234.2c0.45-0.09,0.9-0.17,1.35-0.27c0.44-0.09,0.66,0.12,0.75,0.52c0.09,0.4,0.26,0.88-0.33,1.03
				c-0.95,0.25-1.91,0.48-2.88,0.63c-0.53,0.08-0.68-0.38-0.74-0.82c-0.05-0.39,0-0.75,0.5-0.83
				C473.82,234.39,474.27,234.29,474.72,234.2z"/>
			<path class="st6" d="M475.05,227.53c0.55,0,1.01-0.05,1.45,0c0.6,0.07,0.98,0.45,1.12,1.04c0.1,0.41,0.01,0.71-0.49,0.79
				c-0.69,0.11-1.37,0.27-2.06,0.4c-0.72,0.13-0.9-0.02-0.97-0.85C474.73,228.76,475.34,228.54,475.05,227.53z"/>
		</g>
	</g>
	<g>
		<path class="st6" d="M461.97,189.74c0.2,0.19,0.2,0.19,1.34-0.43c0.27,0.21,0.53,0.42,0.82,0.64c-0.35,0.9,0.3,1.34,0.93,1.81
			c-0.63,1.01,0.17,1.47,0.8,1.99c-0.92,1.01-0.08,1.91,1.09,2.36c-1.2,0.6-2.39,1.2-3.59,1.78c-0.11,0.05-0.36-0.01-0.45-0.11
			c-1.28-1.31-2.54-2.64-3.67-3.83c0.22-0.89,0.41-1.59,0.57-2.3c0.24-1.06,0.41-2.14,0.68-3.2c0.36-1.38,2.04-1.93,3.21-1.09
			c0.35,0.26,0.42,0.81,0.03,1.14C463.18,188.96,462.57,189.32,461.97,189.74z"/>
		<path class="st6" d="M468.04,191.96c-0.3,0.29-0.61,0.57-0.9,0.86c-0.43,0.43-0.82,0.3-1.18-0.08c-0.37-0.39-0.45-0.76,0.01-1.17
			c0.62-0.55,1.21-1.13,1.8-1.71c0.41-0.4,0.75-0.31,1.11,0.07c0.37,0.39,0.51,0.76,0.06,1.17
			C468.63,191.39,468.34,191.68,468.04,191.96z"/>
		<path class="st6" d="M467.19,189.99c-0.31,0.3-0.63,0.6-0.94,0.9c-0.4,0.39-0.76,0.22-1.07-0.11c-0.33-0.34-0.51-0.72-0.08-1.13
			c0.64-0.61,1.29-1.23,1.94-1.84c0.41-0.39,0.76-0.17,1.06,0.15c0.3,0.32,0.49,0.68,0.09,1.08
			C467.86,189.36,467.52,189.67,467.19,189.99z"/>
		<path class="st6" d="M467.48,192.9c0.33-0.32,0.67-0.63,1-0.95c0.32-0.32,0.62-0.25,0.91,0.04c0.29,0.29,0.69,0.6,0.27,1.04
			c-0.67,0.72-1.35,1.43-2.09,2.08c-0.4,0.36-0.78,0.04-1.06-0.29c-0.26-0.3-0.4-0.63-0.02-0.97
			C466.82,193.54,467.14,193.22,467.48,192.9z"/>
		<path class="st6" d="M464.17,187.09c0.46-0.3,0.82-0.58,1.22-0.77c0.55-0.27,1.07-0.14,1.51,0.28c0.3,0.29,0.39,0.59,0.01,0.93
			c-0.52,0.46-1.01,0.96-1.52,1.44c-0.53,0.5-0.77,0.46-1.27-0.19C464.56,188.31,464.96,187.8,464.17,187.09z"/>
	</g>
	<g>
		<path class="st6" d="M448.02,202.57c0.2,0.19,0.2,0.19,1.34-0.43c0.27,0.21,0.53,0.42,0.82,0.64c-0.35,0.9,0.3,1.34,0.93,1.81
			c-0.63,1.01,0.17,1.47,0.8,1.99c-0.92,1.01-0.08,1.91,1.09,2.36c-1.2,0.6-2.39,1.2-3.59,1.78c-0.11,0.05-0.36-0.01-0.45-0.11
			c-1.28-1.31-2.54-2.64-3.67-3.83c0.22-0.89,0.41-1.59,0.57-2.3c0.24-1.06,0.41-2.14,0.68-3.2c0.36-1.38,2.04-1.93,3.21-1.09
			c0.35,0.26,0.42,0.81,0.03,1.14C449.23,201.8,448.62,202.15,448.02,202.57z"/>
		<path class="st6" d="M454.09,204.79c-0.3,0.29-0.61,0.57-0.9,0.86c-0.43,0.43-0.82,0.3-1.18-0.08c-0.37-0.39-0.45-0.76,0.01-1.17
			c0.62-0.55,1.21-1.13,1.8-1.71c0.41-0.4,0.75-0.31,1.11,0.07c0.37,0.39,0.51,0.76,0.06,1.17
			C454.68,204.22,454.38,204.51,454.09,204.79z"/>
		<path class="st6" d="M453.24,202.82c-0.31,0.3-0.63,0.6-0.94,0.9c-0.4,0.39-0.76,0.22-1.07-0.11c-0.33-0.34-0.51-0.72-0.08-1.13
			c0.64-0.61,1.29-1.23,1.94-1.84c0.41-0.39,0.76-0.17,1.06,0.15c0.3,0.32,0.49,0.68,0.09,1.08
			C453.91,202.19,453.57,202.5,453.24,202.82z"/>
		<path class="st6" d="M453.53,205.73c0.33-0.32,0.67-0.63,1-0.95c0.32-0.32,0.62-0.25,0.91,0.04c0.29,0.29,0.69,0.6,0.27,1.04
			c-0.67,0.72-1.35,1.43-2.09,2.08c-0.4,0.36-0.78,0.04-1.06-0.29c-0.26-0.3-0.4-0.63-0.02-0.97
			C452.87,206.37,453.19,206.05,453.53,205.73z"/>
		<path class="st6" d="M450.22,199.92c0.46-0.3,0.82-0.58,1.22-0.77c0.55-0.27,1.07-0.14,1.51,0.28c0.3,0.29,0.39,0.59,0.01,0.93
			c-0.52,0.46-1.01,0.97-1.52,1.44c-0.53,0.5-0.77,0.46-1.27-0.19C450.61,201.14,451.01,200.63,450.22,199.92z"/>
	</g>
	<g>
		<path class="st6" d="M473.06,214.42c0.11,0.18,0.11,0.18,1.09-0.04c0.15,0.21,0.31,0.43,0.48,0.66c-0.45,0.6-0.06,1.06,0.31,1.55
			c-0.68,0.62-0.18,1.14,0.18,1.66c-0.91,0.56-0.47,1.41,0.31,2c-1.02,0.19-2.05,0.39-3.07,0.57c-0.1,0.02-0.26-0.08-0.31-0.18
			c-0.68-1.26-1.34-2.52-1.94-3.65c0.35-0.62,0.65-1.11,0.91-1.6c0.4-0.75,0.76-1.52,1.19-2.25c0.56-0.96,1.94-1.01,2.64-0.13
			c0.21,0.27,0.14,0.69-0.22,0.86C474.13,214.1,473.59,214.24,473.06,214.42z"/>
		<path class="st6" d="M477.13,217.38c-0.28,0.15-0.57,0.29-0.85,0.45c-0.41,0.23-0.67,0.05-0.87-0.31
			c-0.2-0.37-0.17-0.67,0.25-0.88c0.58-0.28,1.15-0.59,1.71-0.9c0.39-0.22,0.63-0.07,0.82,0.29c0.2,0.37,0.22,0.67-0.21,0.89
			C477.7,217.08,477.41,217.23,477.13,217.38z"/>
		<path class="st6" d="M476.92,215.72c-0.3,0.16-0.6,0.31-0.9,0.47c-0.38,0.21-0.61,0-0.78-0.31c-0.18-0.33-0.23-0.65,0.18-0.86
			c0.61-0.32,1.23-0.65,1.84-0.97c0.39-0.2,0.61,0.03,0.76,0.34c0.15,0.31,0.22,0.62-0.16,0.82
			C477.55,215.39,477.23,215.56,476.92,215.72z"/>
		<path class="st6" d="M476.51,217.96c0.32-0.17,0.63-0.33,0.95-0.5c0.31-0.17,0.52-0.05,0.67,0.22c0.15,0.28,0.39,0.6-0.02,0.84
			c-0.65,0.39-1.32,0.78-2.01,1.11c-0.38,0.18-0.6-0.13-0.73-0.44c-0.13-0.28-0.16-0.56,0.19-0.73
			C475.88,218.3,476.19,218.13,476.51,217.96z"/>
		<path class="st6" d="M475.27,212.91c0.41-0.12,0.74-0.26,1.08-0.32c0.47-0.08,0.83,0.12,1.07,0.53c0.16,0.28,0.17,0.53-0.19,0.7
			c-0.49,0.23-0.96,0.51-1.45,0.76c-0.5,0.26-0.68,0.18-0.91-0.42C475.31,213.9,475.72,213.6,475.27,212.91z"/>
	</g>
	<g>
		<path class="st6" d="M467.2,242.68c0.05,0.21,0.05,0.21,1.05,0.3c0.08,0.25,0.16,0.5,0.25,0.77c-0.62,0.44-0.39,0.99-0.18,1.57
			c-0.84,0.38-0.52,1.03-0.34,1.64c-1.03,0.25-0.88,1.2-0.32,2c-1.03-0.13-2.07-0.25-3.1-0.4c-0.1-0.01-0.23-0.16-0.25-0.26
			c-0.26-1.4-0.5-2.81-0.72-4.07c0.53-0.48,0.95-0.85,1.36-1.25c0.61-0.59,1.19-1.21,1.83-1.78c0.83-0.74,2.16-0.37,2.55,0.69
			c0.12,0.32-0.08,0.7-0.48,0.75C468.32,242.71,467.77,242.67,467.2,242.68z"/>
		<path class="st6" d="M470.16,246.75c-0.32,0.06-0.64,0.1-0.95,0.17c-0.47,0.1-0.66-0.16-0.73-0.56c-0.07-0.41,0.04-0.69,0.51-0.76
			c0.64-0.09,1.27-0.21,1.91-0.33c0.44-0.08,0.62,0.13,0.69,0.53c0.07,0.41,0,0.71-0.47,0.78
			C470.8,246.63,470.48,246.69,470.16,246.75z"/>
		<path class="st6" d="M470.47,245.11c-0.33,0.06-0.67,0.11-1,0.18c-0.43,0.08-0.58-0.19-0.65-0.53c-0.07-0.36-0.02-0.69,0.43-0.76
			c0.68-0.12,1.37-0.24,2.05-0.36c0.43-0.07,0.57,0.22,0.62,0.56c0.05,0.34,0.02,0.65-0.41,0.73
			C471.17,244.99,470.82,245.04,470.47,245.11z"/>
		<path class="st6" d="M469.39,247.11c0.35-0.06,0.71-0.12,1.06-0.19c0.34-0.07,0.51,0.11,0.57,0.42c0.06,0.32,0.18,0.69-0.28,0.79
			c-0.74,0.17-1.49,0.34-2.25,0.44c-0.41,0.06-0.53-0.31-0.56-0.65c-0.03-0.31,0.02-0.58,0.4-0.64
			C468.69,247.24,469.04,247.17,469.39,247.11z"/>
		<path class="st6" d="M469.77,241.93c0.43,0.01,0.78-0.02,1.13,0.03c0.47,0.06,0.76,0.37,0.86,0.83c0.07,0.32,0,0.55-0.4,0.61
			c-0.54,0.07-1.07,0.19-1.61,0.28c-0.56,0.09-0.7-0.03-0.74-0.68C469.5,242.88,469.98,242.72,469.77,241.93z"/>
	</g>
	<g>
		<path class="st6" d="M456.23,268c-0.05,0.21-0.05,0.21,0.82,0.73c-0.03,0.26-0.07,0.52-0.11,0.81c-0.74,0.13-0.78,0.73-0.84,1.34
			c-0.92-0.02-0.92,0.7-1.02,1.33c-1.04-0.22-1.31,0.7-1.15,1.67c-0.87-0.56-1.75-1.12-2.62-1.7c-0.08-0.05-0.13-0.24-0.11-0.34
			c0.37-1.38,0.76-2.75,1.11-3.98c0.68-0.21,1.23-0.36,1.77-0.53c0.81-0.26,1.6-0.57,2.41-0.81c1.07-0.31,2.11,0.6,2,1.72
			c-0.03,0.34-0.38,0.6-0.76,0.47C457.23,268.51,456.74,268.24,456.23,268z"/>
		<path class="st6" d="M457.14,272.95c-0.31-0.09-0.62-0.18-0.93-0.26c-0.46-0.12-0.52-0.43-0.41-0.82c0.11-0.4,0.33-0.6,0.79-0.46
			c0.61,0.19,1.24,0.36,1.86,0.53c0.43,0.12,0.5,0.38,0.39,0.77c-0.11,0.4-0.3,0.64-0.76,0.5
			C457.76,273.12,457.45,273.04,457.14,272.95z"/>
		<path class="st6" d="M458.13,271.6c-0.32-0.09-0.65-0.19-0.98-0.27c-0.42-0.11-0.44-0.42-0.35-0.76c0.1-0.36,0.28-0.63,0.72-0.5
			c0.67,0.19,1.34,0.37,2,0.57c0.42,0.12,0.42,0.44,0.32,0.77c-0.1,0.33-0.27,0.6-0.69,0.48C458.81,271.8,458.47,271.7,458.13,271.6
			z"/>
		<path class="st6" d="M456.29,272.95c0.34,0.1,0.69,0.2,1.03,0.29c0.34,0.09,0.42,0.32,0.33,0.63c-0.08,0.31-0.13,0.7-0.59,0.6
			c-0.75-0.16-1.49-0.34-2.22-0.58c-0.4-0.13-0.34-0.51-0.23-0.83c0.1-0.29,0.27-0.52,0.64-0.4
			C455.6,272.76,455.95,272.85,456.29,272.95z"/>
		<path class="st6" d="M458.87,268.43c0.38,0.19,0.71,0.32,1,0.51c0.39,0.26,0.52,0.66,0.41,1.12c-0.08,0.32-0.24,0.5-0.62,0.37
			c-0.52-0.17-1.05-0.3-1.57-0.45c-0.54-0.16-0.62-0.33-0.37-0.93C458.22,269.18,458.72,269.24,458.87,268.43z"/>
	</g>
	<g>
		<path class="st6" d="M463.13,255.2c-0.05,0.21-0.05,0.21,0.82,0.73c-0.03,0.26-0.07,0.52-0.11,0.81
			c-0.74,0.13-0.78,0.73-0.84,1.34c-0.92-0.02-0.92,0.7-1.02,1.33c-1.04-0.22-1.31,0.7-1.15,1.67c-0.87-0.56-1.75-1.12-2.62-1.7
			c-0.08-0.05-0.13-0.24-0.11-0.34c0.37-1.38,0.76-2.75,1.11-3.98c0.68-0.21,1.23-0.36,1.77-0.53c0.81-0.26,1.6-0.57,2.41-0.81
			c1.07-0.31,2.11,0.6,2,1.72c-0.03,0.34-0.38,0.6-0.76,0.47C464.13,255.7,463.65,255.43,463.13,255.2z"/>
		<path class="st6" d="M464.05,260.14c-0.31-0.09-0.62-0.18-0.93-0.26c-0.46-0.12-0.52-0.43-0.41-0.82c0.11-0.4,0.33-0.6,0.79-0.46
			c0.61,0.19,1.24,0.36,1.86,0.53c0.43,0.12,0.5,0.38,0.39,0.77c-0.11,0.4-0.3,0.64-0.76,0.5
			C464.67,260.32,464.36,260.23,464.05,260.14z"/>
		<path class="st6" d="M465.04,258.8c-0.33-0.09-0.65-0.19-0.98-0.27c-0.42-0.11-0.44-0.42-0.35-0.76c0.1-0.36,0.28-0.63,0.72-0.5
			c0.67,0.19,1.34,0.37,2,0.57c0.42,0.12,0.42,0.44,0.32,0.77c-0.1,0.33-0.26,0.6-0.69,0.48
			C465.72,258.99,465.38,258.9,465.04,258.8z"/>
		<path class="st6" d="M463.19,260.14c0.35,0.1,0.69,0.2,1.03,0.29c0.34,0.09,0.42,0.32,0.33,0.63c-0.08,0.31-0.13,0.7-0.59,0.6
			c-0.75-0.16-1.49-0.34-2.22-0.58c-0.4-0.13-0.34-0.51-0.23-0.83c0.1-0.29,0.27-0.52,0.64-0.4
			C462.51,259.95,462.85,260.05,463.19,260.14z"/>
		<path class="st6" d="M465.78,255.63c0.38,0.19,0.71,0.32,1,0.51c0.39,0.26,0.52,0.66,0.41,1.12c-0.08,0.31-0.24,0.5-0.62,0.37
			c-0.52-0.17-1.05-0.3-1.57-0.45c-0.54-0.16-0.62-0.33-0.37-0.93C465.12,256.37,465.62,256.43,465.78,255.63z"/>
	</g>
	<g>
		<path class="st6" d="M459.79,222.75c0.09,0.15,0.09,0.15,0.91-0.03c0.13,0.18,0.26,0.35,0.4,0.55c-0.38,0.5-0.05,0.88,0.26,1.29
			c-0.57,0.52-0.15,0.95,0.15,1.38c-0.75,0.46-0.39,1.17,0.26,1.66c-0.85,0.16-1.7,0.33-2.55,0.47c-0.08,0.01-0.22-0.07-0.26-0.15
			c-0.56-1.04-1.11-2.09-1.61-3.03c0.29-0.52,0.54-0.92,0.76-1.33c0.33-0.62,0.64-1.26,0.99-1.87c0.47-0.8,1.61-0.84,2.19-0.11
			c0.17,0.22,0.12,0.58-0.19,0.72C460.69,222.48,460.24,222.6,459.79,222.75z"/>
		<path class="st6" d="M463.18,225.21c-0.24,0.12-0.48,0.25-0.71,0.38c-0.34,0.19-0.56,0.04-0.72-0.26
			c-0.16-0.31-0.14-0.55,0.21-0.73c0.48-0.24,0.95-0.49,1.42-0.75c0.33-0.18,0.52-0.06,0.68,0.24c0.16,0.31,0.18,0.56-0.17,0.74
			C463.65,224.95,463.42,225.08,463.18,225.21z"/>
		<path class="st6" d="M463,223.83c-0.25,0.13-0.5,0.26-0.75,0.39c-0.32,0.17-0.51,0-0.65-0.26c-0.15-0.27-0.19-0.54,0.15-0.72
			c0.51-0.27,1.02-0.54,1.53-0.81c0.32-0.17,0.5,0.03,0.63,0.28c0.13,0.25,0.18,0.51-0.14,0.68
			C463.53,223.56,463.27,223.69,463,223.83z"/>
		<path class="st6" d="M462.66,225.69c0.26-0.14,0.53-0.28,0.79-0.42c0.26-0.14,0.43-0.05,0.56,0.19c0.13,0.23,0.32,0.5-0.01,0.7
			c-0.54,0.33-1.1,0.65-1.67,0.92c-0.31,0.15-0.49-0.11-0.61-0.37c-0.11-0.23-0.14-0.46,0.16-0.61
			C462.14,225.98,462.4,225.83,462.66,225.69z"/>
		<path class="st6" d="M461.64,221.49c0.34-0.1,0.62-0.21,0.9-0.27c0.39-0.07,0.69,0.1,0.89,0.44c0.13,0.23,0.14,0.44-0.16,0.58
			c-0.41,0.19-0.8,0.42-1.2,0.63c-0.42,0.22-0.56,0.15-0.76-0.35C461.67,222.32,462.01,222.07,461.64,221.49z"/>
	</g>
	<g>
		<path class="st6" d="M441.68,170.3c0.15,0.15,0.15,0.15,1.02-0.31c0.2,0.16,0.4,0.32,0.62,0.5c-0.28,0.68,0.21,1.02,0.68,1.39
			c-0.49,0.76,0.11,1.12,0.58,1.52c-0.72,0.75-0.09,1.45,0.79,1.81c-0.92,0.44-1.83,0.88-2.76,1.3c-0.09,0.04-0.27-0.01-0.34-0.09
			c-0.95-1.02-1.89-2.05-2.74-2.96c0.18-0.67,0.33-1.21,0.46-1.74c0.19-0.81,0.34-1.62,0.57-2.42c0.29-1.05,1.58-1.44,2.46-0.78
			c0.26,0.2,0.3,0.62,0,0.87C442.61,169.73,442.14,169.99,441.68,170.3z"/>
		<path class="st6" d="M446.26,172.08c-0.23,0.21-0.47,0.42-0.69,0.64c-0.33,0.32-0.62,0.22-0.9-0.08c-0.28-0.3-0.33-0.59,0.02-0.89
			c0.48-0.41,0.94-0.84,1.39-1.28c0.32-0.3,0.58-0.22,0.85,0.07c0.28,0.3,0.37,0.58,0.03,0.89
			C446.72,171.65,446.49,171.87,446.26,172.08z"/>
		<path class="st6" d="M445.65,170.57c-0.24,0.22-0.49,0.44-0.73,0.67c-0.31,0.29-0.58,0.15-0.81-0.1
			c-0.25-0.26-0.38-0.55-0.05-0.86c0.5-0.46,1-0.92,1.5-1.37c0.32-0.29,0.58-0.12,0.8,0.13c0.22,0.25,0.36,0.53,0.05,0.82
			C446.17,170.1,445.91,170.33,445.65,170.57z"/>
		<path class="st6" d="M445.82,172.78c0.26-0.24,0.52-0.47,0.77-0.71c0.25-0.24,0.48-0.18,0.69,0.04c0.22,0.23,0.51,0.47,0.19,0.8
			c-0.52,0.54-1.05,1.07-1.62,1.55c-0.31,0.26-0.59,0.02-0.8-0.24c-0.19-0.23-0.29-0.49-0.01-0.74
			C445.31,173.26,445.57,173.02,445.82,172.78z"/>
		<path class="st6" d="M443.4,168.32c0.36-0.22,0.63-0.43,0.94-0.57c0.42-0.19,0.82-0.09,1.14,0.23c0.22,0.23,0.29,0.46-0.01,0.71
			c-0.41,0.34-0.78,0.72-1.18,1.08c-0.41,0.37-0.59,0.34-0.97-0.17C443.68,169.25,443.99,168.87,443.4,168.32z"/>
	</g>
	<g>
		<path class="st6" d="M461.62,209.69c0.11,0.18,0.11,0.18,1.09-0.04c0.15,0.21,0.31,0.43,0.48,0.66c-0.45,0.6-0.06,1.06,0.31,1.55
			c-0.68,0.62-0.18,1.14,0.18,1.66c-0.91,0.56-0.47,1.41,0.31,2c-1.02,0.19-2.05,0.39-3.07,0.57c-0.1,0.02-0.26-0.08-0.31-0.18
			c-0.68-1.26-1.34-2.52-1.94-3.65c0.35-0.62,0.65-1.11,0.91-1.6c0.4-0.75,0.76-1.52,1.19-2.25c0.56-0.96,1.94-1.01,2.64-0.13
			c0.21,0.27,0.14,0.69-0.22,0.86C462.7,209.36,462.16,209.5,461.62,209.69z"/>
		<path class="st6" d="M465.7,212.64c-0.28,0.15-0.57,0.29-0.85,0.45c-0.41,0.23-0.67,0.05-0.87-0.31c-0.2-0.37-0.17-0.67,0.25-0.88
			c0.58-0.28,1.15-0.59,1.71-0.9c0.39-0.22,0.63-0.07,0.82,0.29c0.2,0.37,0.22,0.67-0.21,0.89
			C466.27,212.34,465.98,212.49,465.7,212.64z"/>
		<path class="st6" d="M465.49,210.99c-0.3,0.16-0.6,0.31-0.9,0.47c-0.38,0.21-0.61,0-0.78-0.31c-0.18-0.33-0.23-0.65,0.18-0.86
			c0.61-0.32,1.23-0.65,1.84-0.97c0.39-0.2,0.61,0.03,0.76,0.34c0.15,0.31,0.22,0.62-0.16,0.82
			C466.12,210.66,465.8,210.82,465.49,210.99z"/>
		<path class="st6" d="M465.08,213.23c0.32-0.17,0.63-0.33,0.95-0.5c0.31-0.17,0.52-0.05,0.67,0.22c0.15,0.28,0.39,0.6-0.02,0.84
			c-0.65,0.39-1.32,0.78-2.01,1.11c-0.38,0.18-0.6-0.13-0.73-0.44c-0.13-0.28-0.16-0.56,0.19-0.73
			C464.45,213.57,464.76,213.39,465.08,213.23z"/>
		<path class="st6" d="M463.84,208.17c0.41-0.12,0.74-0.26,1.08-0.32c0.47-0.08,0.83,0.12,1.07,0.53c0.16,0.28,0.17,0.53-0.19,0.7
			c-0.49,0.23-0.96,0.51-1.45,0.76c-0.5,0.26-0.68,0.18-0.91-0.42C463.88,209.16,464.28,208.87,463.84,208.17z"/>
	</g>
	<g>
		<path class="st6" d="M448.49,217.51c0.11,0.18,0.11,0.18,1.09-0.04c0.15,0.21,0.31,0.43,0.48,0.66c-0.45,0.6-0.06,1.06,0.31,1.55
			c-0.68,0.62-0.18,1.14,0.18,1.66c-0.91,0.56-0.47,1.41,0.31,2c-1.02,0.19-2.05,0.39-3.07,0.57c-0.1,0.02-0.26-0.08-0.31-0.18
			c-0.68-1.26-1.34-2.52-1.94-3.65c0.35-0.62,0.65-1.11,0.91-1.6c0.4-0.75,0.76-1.52,1.19-2.25c0.56-0.96,1.94-1.01,2.64-0.13
			c0.21,0.27,0.14,0.69-0.22,0.86C449.56,217.19,449.03,217.33,448.49,217.51z"/>
		<path class="st6" d="M452.56,220.47c-0.28,0.15-0.57,0.3-0.85,0.45c-0.41,0.23-0.67,0.05-0.87-0.31c-0.2-0.37-0.17-0.67,0.25-0.88
			c0.58-0.28,1.15-0.59,1.71-0.9c0.39-0.22,0.63-0.07,0.82,0.29c0.2,0.37,0.22,0.67-0.21,0.89
			C453.13,220.16,452.85,220.32,452.56,220.47z"/>
		<path class="st6" d="M452.35,218.81c-0.3,0.16-0.6,0.31-0.9,0.47c-0.38,0.21-0.61,0-0.78-0.31c-0.18-0.33-0.23-0.65,0.18-0.86
			c0.61-0.32,1.23-0.65,1.84-0.97c0.39-0.2,0.61,0.03,0.76,0.34c0.15,0.31,0.22,0.62-0.16,0.82
			C452.98,218.48,452.67,218.64,452.35,218.81z"/>
		<path class="st6" d="M451.94,221.05c0.32-0.17,0.63-0.33,0.95-0.5c0.31-0.17,0.52-0.05,0.67,0.22c0.15,0.28,0.39,0.6-0.02,0.84
			c-0.65,0.39-1.32,0.78-2.01,1.11c-0.38,0.18-0.6-0.13-0.73-0.44c-0.13-0.28-0.16-0.56,0.19-0.73
			C451.31,221.39,451.63,221.22,451.94,221.05z"/>
		<path class="st6" d="M450.71,216c0.41-0.12,0.74-0.26,1.08-0.32c0.47-0.08,0.83,0.12,1.07,0.53c0.16,0.28,0.17,0.53-0.19,0.7
			c-0.49,0.23-0.96,0.51-1.45,0.76c-0.5,0.26-0.68,0.18-0.91-0.42C450.74,216.99,451.15,216.69,450.71,216z"/>
	</g>
	<g>
		<path class="st6" d="M437.5,242.79c0.05,0.21,0.05,0.21,1.05,0.3c0.08,0.25,0.17,0.5,0.25,0.77c-0.62,0.44-0.38,0.99-0.18,1.57
			c-0.84,0.38-0.52,1.03-0.34,1.64c-1.03,0.26-0.88,1.2-0.31,2c-1.03-0.13-2.07-0.25-3.1-0.4c-0.1-0.01-0.23-0.16-0.25-0.26
			c-0.26-1.4-0.51-2.81-0.73-4.07c0.53-0.48,0.95-0.86,1.36-1.25c0.61-0.59,1.19-1.21,1.82-1.78c0.83-0.74,2.16-0.37,2.55,0.68
			c0.12,0.32-0.08,0.7-0.48,0.75C438.62,242.81,438.07,242.78,437.5,242.79z"/>
		<path class="st6" d="M440.47,246.85c-0.32,0.06-0.64,0.11-0.95,0.17c-0.47,0.1-0.66-0.16-0.73-0.56
			c-0.07-0.41,0.04-0.69,0.51-0.76c0.64-0.09,1.27-0.21,1.9-0.33c0.44-0.08,0.62,0.12,0.69,0.53c0.07,0.41,0,0.71-0.47,0.79
			C441.1,246.74,440.79,246.8,440.47,246.85z"/>
		<path class="st6" d="M440.78,245.21c-0.33,0.06-0.67,0.11-1,0.18c-0.43,0.08-0.58-0.19-0.65-0.53c-0.07-0.36-0.02-0.69,0.43-0.77
			c0.68-0.12,1.37-0.24,2.05-0.36c0.43-0.07,0.57,0.22,0.62,0.56c0.05,0.34,0.02,0.65-0.41,0.73
			C441.48,245.09,441.13,245.15,440.78,245.21z"/>
		<path class="st6" d="M439.7,247.22c0.35-0.06,0.71-0.12,1.06-0.19c0.34-0.07,0.51,0.11,0.57,0.42c0.06,0.32,0.18,0.69-0.27,0.79
			c-0.74,0.18-1.49,0.34-2.25,0.45c-0.41,0.06-0.53-0.31-0.56-0.65c-0.03-0.31,0.01-0.58,0.4-0.64
			C439,247.35,439.35,247.28,439.7,247.22z"/>
		<path class="st6" d="M440.07,242.03c0.43,0.01,0.78-0.02,1.13,0.03c0.47,0.06,0.76,0.37,0.86,0.83c0.07,0.32,0,0.55-0.4,0.61
			c-0.54,0.07-1.07,0.19-1.61,0.28c-0.56,0.09-0.7-0.03-0.74-0.68C439.8,242.98,440.28,242.83,440.07,242.03z"/>
	</g>
	<g>
		<path class="st6" d="M423.41,267.22c0.04,0.17,0.04,0.17,0.88,0.25c0.07,0.21,0.14,0.42,0.21,0.64c-0.51,0.36-0.32,0.83-0.15,1.31
			c-0.7,0.32-0.44,0.86-0.28,1.37c-0.86,0.21-0.73,1-0.26,1.67c-0.86-0.11-1.73-0.21-2.59-0.33c-0.08-0.01-0.19-0.13-0.21-0.22
			c-0.22-1.17-0.42-2.35-0.61-3.4c0.44-0.4,0.8-0.72,1.14-1.04c0.51-0.49,1-1.01,1.52-1.49c0.69-0.62,1.81-0.31,2.13,0.57
			c0.1,0.27-0.07,0.59-0.4,0.63C424.35,267.24,423.89,267.21,423.41,267.22z"/>
		<path class="st6" d="M425.9,270.61c-0.26,0.05-0.53,0.09-0.8,0.14c-0.39,0.08-0.55-0.13-0.61-0.47c-0.06-0.34,0.03-0.57,0.43-0.63
			c0.53-0.08,1.06-0.18,1.59-0.28c0.37-0.07,0.52,0.1,0.58,0.44c0.06,0.35,0,0.59-0.39,0.66
			C426.43,270.52,426.17,270.57,425.9,270.61z"/>
		<path class="st6" d="M426.16,269.24c-0.28,0.05-0.56,0.1-0.84,0.15c-0.36,0.07-0.49-0.16-0.54-0.44c-0.06-0.3-0.02-0.57,0.36-0.64
			c0.57-0.1,1.14-0.2,1.71-0.3c0.36-0.06,0.47,0.18,0.52,0.47c0.04,0.28,0.02,0.55-0.34,0.61
			C426.74,269.14,426.45,269.19,426.16,269.24z"/>
		<path class="st6" d="M425.26,270.92c0.29-0.05,0.59-0.1,0.88-0.16c0.29-0.06,0.43,0.09,0.48,0.35c0.05,0.26,0.15,0.57-0.23,0.66
			c-0.62,0.15-1.25,0.29-1.88,0.37c-0.35,0.05-0.44-0.26-0.47-0.54c-0.03-0.26,0.01-0.49,0.34-0.54
			C424.67,271.03,424.96,270.97,425.26,270.92z"/>
		<path class="st6" d="M425.57,266.58c0.36,0.01,0.66-0.02,0.94,0.02c0.39,0.05,0.63,0.31,0.72,0.69c0.06,0.27,0,0.46-0.33,0.51
			c-0.45,0.06-0.9,0.16-1.34,0.23c-0.47,0.08-0.58-0.03-0.62-0.57C425.34,267.38,425.74,267.25,425.57,266.58z"/>
	</g>
	<g>
		<path class="st6" d="M449.82,247.74c0.03,0.21,0.03,0.21,1.02,0.39c0.06,0.25,0.12,0.51,0.19,0.79c-0.65,0.38-0.47,0.96-0.32,1.55
			c-0.87,0.31-0.61,0.98-0.48,1.6c-1.05,0.16-0.98,1.12-0.49,1.96c-1.02-0.22-2.04-0.43-3.05-0.67c-0.09-0.02-0.21-0.18-0.22-0.28
			c-0.14-1.42-0.26-2.84-0.37-4.11c0.57-0.43,1.02-0.77,1.47-1.12c0.66-0.53,1.29-1.1,1.97-1.61c0.89-0.67,2.18-0.18,2.48,0.9
			c0.09,0.33-0.14,0.69-0.54,0.71C450.93,247.86,450.39,247.78,449.82,247.74z"/>
		<path class="st6" d="M452.43,252.05c-0.32,0.03-0.64,0.05-0.96,0.09c-0.47,0.05-0.64-0.21-0.68-0.62
			c-0.04-0.42,0.1-0.68,0.57-0.71c0.64-0.04,1.29-0.1,1.93-0.16c0.45-0.05,0.61,0.18,0.64,0.59c0.04,0.42-0.06,0.71-0.54,0.74
			C453.07,251.99,452.75,252.02,452.43,252.05z"/>
		<path class="st6" d="M452.87,250.44c-0.34,0.03-0.67,0.06-1.01,0.09c-0.43,0.04-0.56-0.24-0.6-0.59c-0.04-0.37,0.04-0.68,0.5-0.72
			c0.69-0.06,1.38-0.12,2.07-0.18c0.44-0.04,0.55,0.26,0.57,0.61c0.02,0.34-0.04,0.65-0.47,0.69
			C453.58,250.38,453.23,250.41,452.87,250.44z"/>
		<path class="st6" d="M451.63,252.35c0.36-0.03,0.71-0.06,1.07-0.09c0.35-0.04,0.5,0.15,0.53,0.47c0.03,0.32,0.12,0.7-0.34,0.77
			c-0.76,0.11-1.52,0.21-2.28,0.25c-0.42,0.02-0.5-0.35-0.5-0.69c-0.01-0.31,0.07-0.58,0.46-0.6
			C450.92,252.42,451.27,252.38,451.63,252.35z"/>
		<path class="st6" d="M452.45,247.21c0.43,0.04,0.78,0.05,1.12,0.13c0.46,0.1,0.72,0.43,0.78,0.9c0.04,0.32-0.05,0.55-0.45,0.57
			c-0.54,0.02-1.08,0.09-1.63,0.14c-0.57,0.04-0.69-0.09-0.68-0.74C452.1,248.14,452.59,248.02,452.45,247.21z"/>
	</g>
	<g>
		<path class="st6" d="M447.76,258.81c0.03,0.21,0.03,0.21,1.02,0.39c0.06,0.25,0.12,0.51,0.19,0.79c-0.65,0.38-0.47,0.96-0.32,1.55
			c-0.87,0.31-0.61,0.98-0.48,1.6c-1.05,0.16-0.98,1.12-0.49,1.96c-1.02-0.22-2.04-0.43-3.05-0.67c-0.09-0.02-0.21-0.18-0.22-0.28
			c-0.14-1.42-0.26-2.84-0.37-4.11c0.57-0.43,1.02-0.77,1.47-1.12c0.66-0.53,1.29-1.1,1.97-1.61c0.89-0.67,2.18-0.18,2.48,0.9
			c0.09,0.33-0.14,0.69-0.54,0.71C448.88,258.93,448.33,258.85,447.76,258.81z"/>
		<path class="st6" d="M450.37,263.12c-0.32,0.03-0.64,0.05-0.96,0.09c-0.47,0.05-0.64-0.21-0.68-0.62
			c-0.04-0.42,0.1-0.68,0.57-0.71c0.64-0.04,1.29-0.1,1.93-0.16c0.45-0.05,0.61,0.18,0.64,0.59c0.04,0.42-0.06,0.71-0.54,0.74
			C451.01,263.06,450.69,263.09,450.37,263.12z"/>
		<path class="st6" d="M450.82,261.51c-0.34,0.03-0.67,0.06-1.01,0.09c-0.43,0.04-0.56-0.24-0.6-0.59c-0.04-0.37,0.04-0.68,0.5-0.72
			c0.69-0.06,1.38-0.12,2.07-0.18c0.44-0.04,0.55,0.26,0.57,0.61c0.02,0.34-0.04,0.65-0.47,0.7
			C451.53,261.45,451.17,261.48,450.82,261.51z"/>
		<path class="st6" d="M449.57,263.42c0.36-0.03,0.71-0.06,1.07-0.09c0.35-0.04,0.5,0.15,0.53,0.47c0.03,0.32,0.12,0.7-0.34,0.77
			c-0.76,0.11-1.52,0.21-2.28,0.25c-0.42,0.02-0.5-0.35-0.5-0.69c-0.01-0.31,0.07-0.58,0.46-0.6
			C448.86,263.49,449.21,263.45,449.57,263.42z"/>
		<path class="st6" d="M450.39,258.28c0.43,0.04,0.78,0.05,1.12,0.13c0.46,0.1,0.72,0.43,0.78,0.9c0.04,0.32-0.05,0.55-0.45,0.57
			c-0.54,0.02-1.08,0.09-1.63,0.14c-0.57,0.04-0.69-0.09-0.68-0.74C450.04,259.21,450.53,259.09,450.39,258.28z"/>
	</g>
	<g>
		<path class="st6" d="M434.88,282.38c-0.05,0.21-0.05,0.21,0.83,0.72c-0.03,0.26-0.06,0.52-0.1,0.81
			c-0.74,0.14-0.77,0.74-0.83,1.35c-0.92-0.01-0.91,0.71-1,1.34c-1.04-0.2-1.3,0.72-1.13,1.68c-0.88-0.55-1.77-1.1-2.64-1.67
			c-0.08-0.05-0.14-0.24-0.11-0.34c0.36-1.38,0.73-2.76,1.06-3.99c0.68-0.21,1.23-0.37,1.76-0.56c0.8-0.27,1.59-0.59,2.4-0.84
			c1.06-0.32,2.11,0.58,2.02,1.7c-0.03,0.34-0.37,0.6-0.75,0.48C435.89,282.87,435.4,282.61,434.88,282.38z"/>
		<path class="st6" d="M435.86,287.32c-0.31-0.08-0.62-0.17-0.93-0.25c-0.46-0.11-0.53-0.42-0.42-0.82c0.11-0.4,0.33-0.61,0.78-0.47
			c0.62,0.19,1.24,0.35,1.87,0.5c0.44,0.11,0.51,0.37,0.4,0.77c-0.11,0.41-0.3,0.64-0.76,0.51
			C436.49,287.48,436.17,287.4,435.86,287.32z"/>
		<path class="st6" d="M436.83,285.96c-0.33-0.09-0.65-0.18-0.98-0.26c-0.42-0.11-0.45-0.42-0.36-0.75
			c0.09-0.36,0.27-0.63,0.72-0.51c0.67,0.18,1.34,0.36,2.01,0.54c0.42,0.12,0.42,0.43,0.33,0.77c-0.1,0.33-0.26,0.6-0.68,0.49
			C437.52,286.15,437.18,286.05,436.83,285.96z"/>
		<path class="st6" d="M435.01,287.33c0.35,0.09,0.69,0.19,1.04,0.28c0.34,0.09,0.42,0.31,0.34,0.62c-0.08,0.31-0.12,0.7-0.58,0.6
			c-0.75-0.16-1.5-0.32-2.23-0.55c-0.4-0.12-0.35-0.5-0.24-0.82c0.1-0.29,0.26-0.52,0.64-0.41
			C434.32,287.15,434.66,287.23,435.01,287.33z"/>
		<path class="st6" d="M437.54,282.78c0.39,0.19,0.72,0.31,1.01,0.5c0.4,0.26,0.53,0.66,0.43,1.11c-0.07,0.32-0.24,0.5-0.62,0.38
			c-0.52-0.16-1.05-0.28-1.58-0.43c-0.55-0.15-0.62-0.33-0.39-0.93C436.89,283.53,437.39,283.59,437.54,282.78z"/>
	</g>
	<g>
		<path class="st6" d="M425.71,291.24c-0.05,0.21-0.05,0.21,0.83,0.72c-0.03,0.26-0.06,0.52-0.1,0.81
			c-0.74,0.14-0.77,0.74-0.83,1.35c-0.92-0.01-0.91,0.71-1,1.34c-1.04-0.21-1.3,0.71-1.13,1.68c-0.88-0.55-1.77-1.1-2.64-1.67
			c-0.08-0.05-0.14-0.24-0.11-0.34c0.36-1.38,0.73-2.76,1.06-3.99c0.68-0.21,1.23-0.37,1.76-0.56c0.8-0.27,1.59-0.59,2.4-0.84
			c1.06-0.32,2.11,0.58,2.02,1.7c-0.03,0.34-0.37,0.6-0.75,0.48C426.71,291.73,426.23,291.47,425.71,291.24z"/>
		<path class="st6" d="M426.69,296.18c-0.31-0.08-0.62-0.17-0.93-0.25c-0.46-0.11-0.53-0.42-0.42-0.82c0.11-0.4,0.33-0.61,0.78-0.47
			c0.62,0.19,1.24,0.35,1.87,0.5c0.44,0.11,0.51,0.37,0.4,0.77c-0.11,0.41-0.3,0.64-0.76,0.51
			C427.31,296.34,427,296.26,426.69,296.18z"/>
		<path class="st6" d="M427.66,294.82c-0.33-0.09-0.65-0.18-0.98-0.26c-0.42-0.11-0.45-0.42-0.36-0.75
			c0.09-0.36,0.27-0.63,0.72-0.51c0.67,0.18,1.34,0.36,2.01,0.54c0.42,0.12,0.42,0.43,0.33,0.77c-0.1,0.33-0.26,0.6-0.68,0.49
			C428.35,295,428,294.91,427.66,294.82z"/>
		<path class="st6" d="M425.84,296.18c0.35,0.09,0.69,0.19,1.04,0.28c0.34,0.09,0.42,0.31,0.34,0.62c-0.08,0.31-0.12,0.7-0.58,0.6
			c-0.75-0.16-1.5-0.32-2.23-0.55c-0.4-0.12-0.35-0.5-0.24-0.82c0.1-0.29,0.26-0.52,0.64-0.41
			C425.14,296.01,425.49,296.09,425.84,296.18z"/>
		<path class="st6" d="M428.36,291.64c0.39,0.19,0.72,0.31,1.01,0.5c0.4,0.26,0.53,0.66,0.43,1.11c-0.07,0.32-0.24,0.5-0.62,0.38
			c-0.52-0.16-1.05-0.28-1.58-0.43c-0.55-0.15-0.62-0.33-0.39-0.93C427.71,292.39,428.22,292.45,428.36,291.64z"/>
	</g>
	<g>
		<path class="st6" d="M442.65,271.77c-0.03,0.21-0.03,0.21,0.9,0.63c0,0.26-0.01,0.53-0.01,0.81c-0.72,0.21-0.69,0.81-0.69,1.42
			c-0.92,0.08-0.83,0.8-0.86,1.43c-1.06-0.1-1.22,0.84-0.95,1.79c-0.93-0.46-1.87-0.92-2.79-1.39c-0.09-0.04-0.16-0.23-0.15-0.33
			c0.22-1.41,0.45-2.82,0.65-4.08c0.66-0.28,1.18-0.49,1.7-0.73c0.77-0.35,1.52-0.75,2.31-1.08c1.03-0.43,2.16,0.36,2.18,1.48
			c0.01,0.34-0.31,0.64-0.7,0.55C443.7,272.16,443.19,271.95,442.65,271.77z"/>
		<path class="st6" d="M444.12,276.58c-0.32-0.05-0.64-0.11-0.96-0.15c-0.47-0.06-0.57-0.36-0.5-0.77c0.07-0.41,0.26-0.64,0.73-0.55
			c0.63,0.12,1.27,0.22,1.91,0.31c0.44,0.07,0.54,0.32,0.48,0.72c-0.07,0.41-0.23,0.67-0.7,0.59
			C444.75,276.68,444.43,276.64,444.12,276.58z"/>
		<path class="st6" d="M444.95,275.14c-0.33-0.05-0.67-0.11-1-0.16c-0.43-0.06-0.49-0.37-0.44-0.71c0.06-0.37,0.21-0.65,0.66-0.58
			c0.68,0.11,1.37,0.22,2.05,0.34c0.43,0.07,0.46,0.39,0.4,0.73c-0.06,0.34-0.2,0.62-0.63,0.56
			C445.65,275.25,445.3,275.19,444.95,275.14z"/>
		<path class="st6" d="M443.27,276.68c0.35,0.06,0.71,0.12,1.06,0.17c0.35,0.05,0.45,0.27,0.4,0.58c-0.05,0.32-0.05,0.71-0.52,0.66
			c-0.76-0.08-1.52-0.17-2.27-0.32c-0.41-0.08-0.4-0.46-0.32-0.8c0.07-0.3,0.21-0.55,0.59-0.47
			C442.56,276.57,442.92,276.62,443.27,276.68z"/>
		<path class="st6" d="M445.33,271.9c0.4,0.15,0.75,0.24,1.06,0.4c0.42,0.21,0.59,0.6,0.54,1.07c-0.04,0.32-0.18,0.52-0.57,0.44
			c-0.53-0.11-1.07-0.18-1.61-0.27c-0.56-0.1-0.65-0.26-0.48-0.88C444.76,272.71,445.26,272.72,445.33,271.9z"/>
	</g>
	<g>
		<path class="st6" d="M434.09,257.32c0.03,0.21,0.03,0.21,1.02,0.39c0.06,0.25,0.12,0.51,0.19,0.79c-0.65,0.38-0.47,0.96-0.32,1.55
			c-0.87,0.31-0.61,0.98-0.48,1.6c-1.05,0.16-0.98,1.12-0.49,1.96c-1.02-0.22-2.04-0.43-3.05-0.67c-0.09-0.02-0.21-0.18-0.22-0.28
			c-0.14-1.42-0.26-2.84-0.37-4.11c0.57-0.43,1.02-0.77,1.47-1.12c0.66-0.53,1.29-1.1,1.97-1.61c0.89-0.67,2.18-0.18,2.48,0.9
			c0.09,0.33-0.14,0.69-0.54,0.71C435.21,257.44,434.66,257.36,434.09,257.32z"/>
		<path class="st6" d="M436.7,261.63c-0.32,0.03-0.64,0.05-0.96,0.09c-0.47,0.05-0.64-0.21-0.68-0.62c-0.04-0.42,0.1-0.68,0.57-0.71
			c0.64-0.04,1.29-0.1,1.93-0.16c0.45-0.05,0.61,0.18,0.64,0.59c0.04,0.42-0.06,0.71-0.54,0.74
			C437.34,261.57,437.02,261.6,436.7,261.63z"/>
		<path class="st6" d="M437.15,260.02c-0.34,0.03-0.67,0.06-1.01,0.09c-0.43,0.04-0.56-0.24-0.6-0.59c-0.04-0.37,0.04-0.68,0.5-0.72
			c0.69-0.06,1.38-0.12,2.07-0.18c0.44-0.04,0.55,0.26,0.57,0.61c0.02,0.34-0.04,0.65-0.47,0.7
			C437.86,259.96,437.5,259.99,437.15,260.02z"/>
		<path class="st6" d="M435.9,261.93c0.36-0.03,0.71-0.06,1.07-0.09c0.35-0.04,0.5,0.15,0.53,0.47c0.03,0.32,0.12,0.7-0.34,0.77
			c-0.76,0.11-1.52,0.21-2.28,0.24c-0.42,0.02-0.5-0.35-0.5-0.69c-0.01-0.31,0.07-0.58,0.46-0.6
			C435.19,262,435.54,261.96,435.9,261.93z"/>
		<path class="st6" d="M436.72,256.79c0.43,0.04,0.78,0.05,1.12,0.13c0.46,0.1,0.72,0.43,0.78,0.9c0.04,0.32-0.05,0.55-0.45,0.57
			c-0.54,0.02-1.08,0.09-1.63,0.14c-0.57,0.04-0.69-0.09-0.68-0.74C436.37,257.72,436.86,257.6,436.72,256.79z"/>
	</g>
	<g>
		<path class="st6" d="M451.82,234.04c0.08,0.24,0.08,0.24,1.27,0.21c0.13,0.28,0.26,0.56,0.4,0.87c-0.66,0.59-0.32,1.21-0.01,1.86
			c-0.93,0.55-0.48,1.26-0.19,1.95c-1.17,0.43-0.87,1.51-0.11,2.37c-1.22-0.02-2.45-0.03-3.67-0.07c-0.11,0-0.28-0.16-0.32-0.28
			c-0.48-1.6-0.95-3.21-1.37-4.65c0.55-0.63,1-1.12,1.43-1.63c0.64-0.76,1.24-1.57,1.9-2.31c0.87-0.97,2.47-0.71,3.06,0.47
			c0.18,0.36,0,0.83-0.46,0.94C453.13,233.92,452.48,233.95,451.82,234.04z"/>
		<path class="st6" d="M455.81,238.4c-0.36,0.11-0.73,0.2-1.09,0.32c-0.53,0.17-0.79-0.1-0.92-0.56c-0.14-0.47-0.04-0.81,0.5-0.95
			c0.73-0.19,1.46-0.41,2.18-0.63c0.5-0.16,0.74,0.07,0.87,0.53c0.14,0.47,0.09,0.83-0.45,0.98
			C456.54,238.18,456.17,238.29,455.81,238.4z"/>
		<path class="st6" d="M455.96,236.44c-0.38,0.11-0.76,0.22-1.14,0.33c-0.49,0.15-0.7-0.14-0.82-0.54c-0.13-0.42-0.11-0.8,0.41-0.95
			c0.78-0.23,1.56-0.46,2.35-0.68c0.5-0.14,0.69,0.18,0.8,0.57c0.1,0.39,0.11,0.76-0.38,0.91
			C456.76,236.21,456.36,236.32,455.96,236.44z"/>
		<path class="st6" d="M454.96,238.92c0.4-0.12,0.81-0.23,1.21-0.35c0.39-0.12,0.61,0.06,0.72,0.42c0.11,0.36,0.3,0.78-0.22,0.96
			c-0.85,0.3-1.7,0.59-2.57,0.81c-0.47,0.12-0.65-0.29-0.74-0.68c-0.08-0.35-0.06-0.68,0.39-0.8
			C454.15,239.16,454.56,239.04,454.96,238.92z"/>
		<path class="st6" d="M454.73,232.82c0.5-0.05,0.91-0.12,1.32-0.11c0.56,0.01,0.93,0.33,1.11,0.86c0.12,0.36,0.07,0.65-0.39,0.76
			c-0.62,0.15-1.23,0.36-1.84,0.53c-0.64,0.18-0.82,0.05-0.95-0.69C454.53,233.97,455.07,233.72,454.73,232.82z"/>
	</g>
	<g>
		<path class="st6" d="M436.56,222.06c0.14,0.16,0.14,0.16,1.06-0.27c0.2,0.17,0.39,0.35,0.61,0.54c-0.31,0.69,0.16,1.05,0.63,1.45
			c-0.54,0.75,0.06,1.15,0.52,1.59c-0.77,0.74-0.16,1.48,0.73,1.89c-0.96,0.41-1.92,0.82-2.88,1.21c-0.09,0.04-0.28-0.03-0.34-0.11
			c-0.93-1.08-1.84-2.18-2.66-3.16c0.21-0.68,0.4-1.22,0.55-1.76c0.24-0.82,0.43-1.65,0.69-2.45c0.35-1.06,1.68-1.4,2.55-0.68
			c0.26,0.22,0.28,0.65-0.04,0.89C437.54,221.51,437.04,221.76,436.56,222.06z"/>
		<path class="st6" d="M441.16,224.08c-0.25,0.21-0.5,0.41-0.74,0.62c-0.36,0.32-0.65,0.19-0.91-0.12
			c-0.27-0.32-0.31-0.61,0.06-0.91c0.51-0.4,1-0.82,1.48-1.24c0.34-0.29,0.6-0.2,0.86,0.11c0.27,0.32,0.36,0.61-0.01,0.91
			C441.65,223.67,441.41,223.88,441.16,224.08z"/>
		<path class="st6" d="M440.61,222.51c-0.26,0.22-0.52,0.43-0.78,0.65c-0.33,0.28-0.6,0.13-0.83-0.14
			c-0.24-0.28-0.36-0.58-0.01-0.88c0.53-0.45,1.06-0.89,1.6-1.34c0.34-0.28,0.6-0.1,0.82,0.17c0.22,0.27,0.35,0.56,0.01,0.84
			C441.15,222.05,440.88,222.28,440.61,222.51z"/>
		<path class="st6" d="M440.68,224.79c0.27-0.23,0.55-0.46,0.82-0.69c0.27-0.23,0.5-0.16,0.7,0.08c0.21,0.24,0.5,0.5,0.16,0.83
			c-0.56,0.52-1.12,1.04-1.73,1.51c-0.33,0.26-0.61,0-0.81-0.28c-0.18-0.25-0.28-0.51,0.03-0.76
			C440.14,225.25,440.41,225.02,440.68,224.79z"/>
		<path class="st6" d="M438.4,220.11c0.38-0.21,0.67-0.41,0.99-0.54c0.44-0.18,0.84-0.06,1.16,0.29c0.22,0.24,0.27,0.48-0.04,0.72
			c-0.43,0.33-0.83,0.7-1.25,1.05c-0.44,0.36-0.62,0.32-0.98-0.21C438.65,221.07,438.98,220.69,438.4,220.11z"/>
	</g>
	<g>
		<path class="st6" d="M426.34,229.84c0.14,0.16,0.14,0.16,1.06-0.27c0.2,0.17,0.39,0.35,0.61,0.54c-0.31,0.69,0.16,1.05,0.63,1.45
			c-0.54,0.75,0.06,1.15,0.52,1.59c-0.77,0.74-0.16,1.48,0.73,1.89c-0.96,0.41-1.92,0.82-2.88,1.21c-0.09,0.04-0.28-0.03-0.34-0.11
			c-0.93-1.08-1.84-2.18-2.66-3.16c0.21-0.68,0.4-1.22,0.55-1.76c0.24-0.82,0.43-1.65,0.69-2.45c0.35-1.06,1.68-1.4,2.55-0.68
			c0.26,0.22,0.28,0.65-0.04,0.89C427.33,229.29,426.83,229.54,426.34,229.84z"/>
		<path class="st6" d="M430.95,231.87c-0.25,0.21-0.5,0.41-0.74,0.62c-0.36,0.32-0.65,0.19-0.91-0.12
			c-0.27-0.32-0.31-0.61,0.06-0.91c0.51-0.4,1-0.82,1.48-1.24c0.34-0.29,0.6-0.2,0.86,0.11c0.27,0.32,0.36,0.61-0.01,0.91
			C431.44,231.45,431.2,231.66,430.95,231.87z"/>
		<path class="st6" d="M430.39,230.29c-0.26,0.22-0.52,0.43-0.78,0.65c-0.33,0.28-0.6,0.13-0.83-0.14
			c-0.24-0.28-0.36-0.58-0.01-0.88c0.53-0.45,1.06-0.89,1.6-1.34c0.34-0.28,0.6-0.1,0.82,0.17c0.22,0.27,0.35,0.56,0.01,0.84
			C430.94,229.84,430.67,230.06,430.39,230.29z"/>
		<path class="st6" d="M430.47,232.57c0.27-0.23,0.55-0.46,0.82-0.69c0.27-0.23,0.5-0.16,0.7,0.08c0.21,0.24,0.5,0.5,0.16,0.83
			c-0.56,0.52-1.12,1.04-1.73,1.51c-0.33,0.26-0.61,0-0.81-0.28c-0.18-0.25-0.28-0.51,0.03-0.76
			C429.93,233.03,430.2,232.8,430.47,232.57z"/>
		<path class="st6" d="M428.19,227.89c0.37-0.21,0.67-0.41,0.99-0.54c0.44-0.18,0.84-0.06,1.16,0.29c0.22,0.24,0.27,0.48-0.04,0.72
			c-0.43,0.33-0.83,0.7-1.25,1.05c-0.44,0.36-0.62,0.32-0.98-0.21C428.44,228.85,428.77,228.47,428.19,227.89z"/>
	</g>
	<g>
		<path class="st6" d="M434.3,196.95c0.2,0.19,0.2,0.19,1.34-0.43c0.27,0.21,0.53,0.42,0.82,0.64c-0.35,0.9,0.3,1.34,0.93,1.81
			c-0.63,1.01,0.17,1.47,0.8,1.99c-0.92,1.01-0.08,1.91,1.09,2.36c-1.2,0.6-2.39,1.2-3.59,1.78c-0.11,0.05-0.36-0.01-0.45-0.11
			c-1.28-1.31-2.54-2.64-3.67-3.83c0.22-0.89,0.41-1.59,0.57-2.3c0.24-1.06,0.41-2.14,0.68-3.2c0.36-1.38,2.04-1.93,3.21-1.09
			c0.35,0.26,0.42,0.81,0.03,1.14C435.51,196.17,434.9,196.53,434.3,196.95z"/>
		<path class="st6" d="M440.37,199.17c-0.3,0.29-0.61,0.57-0.9,0.86c-0.43,0.43-0.82,0.3-1.18-0.08c-0.37-0.39-0.45-0.76,0.01-1.17
			c0.62-0.55,1.21-1.13,1.8-1.71c0.41-0.4,0.75-0.31,1.11,0.07c0.37,0.39,0.51,0.76,0.06,1.17
			C440.96,198.59,440.67,198.88,440.37,199.17z"/>
		<path class="st6" d="M439.53,197.2c-0.31,0.3-0.63,0.6-0.94,0.9c-0.4,0.39-0.76,0.22-1.07-0.11c-0.33-0.34-0.51-0.72-0.08-1.13
			c0.64-0.61,1.29-1.23,1.94-1.84c0.41-0.39,0.76-0.17,1.06,0.15c0.3,0.32,0.49,0.68,0.09,1.08
			C440.19,196.57,439.86,196.88,439.53,197.2z"/>
		<path class="st6" d="M439.81,200.11c0.33-0.32,0.67-0.63,1-0.95c0.32-0.32,0.62-0.25,0.91,0.04c0.29,0.29,0.69,0.6,0.27,1.04
			c-0.67,0.72-1.35,1.43-2.09,2.08c-0.4,0.36-0.78,0.04-1.06-0.29c-0.26-0.3-0.4-0.63-0.03-0.97
			C439.15,200.75,439.48,200.42,439.81,200.11z"/>
		<path class="st6" d="M436.51,194.3c0.46-0.3,0.82-0.58,1.22-0.77c0.55-0.27,1.07-0.14,1.51,0.28c0.3,0.29,0.39,0.59,0.01,0.93
			c-0.52,0.46-1.01,0.97-1.52,1.44c-0.53,0.5-0.77,0.46-1.27-0.19C436.9,195.51,437.3,195,436.51,194.3z"/>
	</g>
	<g>
		<path class="st6" d="M422.36,207.11c0.2,0.19,0.2,0.19,1.34-0.43c0.27,0.21,0.53,0.42,0.82,0.64c-0.35,0.9,0.3,1.34,0.93,1.81
			c-0.63,1.01,0.17,1.47,0.8,1.99c-0.92,1.01-0.08,1.91,1.09,2.36c-1.2,0.6-2.39,1.2-3.59,1.78c-0.11,0.05-0.36-0.01-0.45-0.11
			c-1.28-1.31-2.54-2.64-3.67-3.83c0.22-0.89,0.41-1.59,0.57-2.3c0.24-1.06,0.41-2.14,0.68-3.2c0.36-1.38,2.04-1.93,3.21-1.09
			c0.35,0.26,0.42,0.81,0.02,1.14C423.58,206.34,422.96,206.7,422.36,207.11z"/>
		<path class="st6" d="M428.43,209.34c-0.3,0.29-0.61,0.57-0.9,0.86c-0.43,0.43-0.82,0.3-1.18-0.08c-0.37-0.39-0.45-0.76,0.01-1.17
			c0.62-0.55,1.21-1.13,1.8-1.71c0.41-0.4,0.75-0.31,1.11,0.07c0.37,0.39,0.51,0.76,0.06,1.17
			C429.03,208.76,428.73,209.05,428.43,209.34z"/>
		<path class="st6" d="M427.59,207.36c-0.31,0.3-0.63,0.6-0.94,0.9c-0.4,0.39-0.76,0.22-1.07-0.11c-0.33-0.34-0.51-0.72-0.08-1.13
			c0.64-0.61,1.29-1.23,1.94-1.84c0.41-0.39,0.76-0.17,1.06,0.15c0.3,0.32,0.49,0.68,0.09,1.08
			C428.25,206.73,427.92,207.05,427.59,207.36z"/>
		<path class="st6" d="M427.87,210.28c0.33-0.32,0.67-0.63,1-0.95c0.32-0.32,0.62-0.25,0.91,0.04c0.29,0.29,0.69,0.6,0.27,1.04
			c-0.67,0.72-1.35,1.43-2.09,2.08c-0.4,0.36-0.78,0.04-1.06-0.29c-0.26-0.3-0.4-0.63-0.02-0.97
			C427.21,210.92,427.54,210.59,427.87,210.28z"/>
		<path class="st6" d="M424.57,204.47c0.46-0.3,0.82-0.58,1.22-0.77c0.55-0.27,1.07-0.14,1.51,0.28c0.3,0.29,0.39,0.59,0.01,0.93
			c-0.52,0.46-1.01,0.97-1.52,1.44c-0.53,0.5-0.77,0.46-1.27-0.19C424.96,205.68,425.36,205.17,424.57,204.47z"/>
	</g>
	<g>
		<path class="st6" d="M397.52,164c0.18-0.2,0.18-0.2-0.46-1.33c0.2-0.27,0.41-0.54,0.62-0.84c0.91,0.33,1.33-0.33,1.79-0.97
			c1.02,0.6,1.47-0.2,1.97-0.85c1.03,0.9,1.91,0.04,2.33-1.14c0.63,1.18,1.26,2.36,1.87,3.55c0.06,0.11,0,0.36-0.1,0.45
			c-1.28,1.31-2.58,2.6-3.74,3.76c-0.89-0.2-1.6-0.37-2.32-0.51c-1.07-0.21-2.15-0.36-3.21-0.61c-1.39-0.32-1.98-2-1.16-3.18
			c0.25-0.36,0.8-0.43,1.14-0.05C396.72,162.8,397.09,163.41,397.52,164z"/>
		<path class="st6" d="M399.61,157.88c0.29,0.29,0.58,0.59,0.88,0.88c0.44,0.42,0.32,0.81-0.05,1.18c-0.38,0.38-0.75,0.47-1.17,0.02
			c-0.57-0.6-1.16-1.18-1.75-1.76c-0.41-0.4-0.32-0.74,0.05-1.11c0.38-0.38,0.74-0.52,1.17-0.09
			C399.02,157.29,399.31,157.58,399.61,157.88z"/>
		<path class="st6" d="M397.65,158.76c0.31,0.31,0.61,0.62,0.92,0.92c0.4,0.39,0.23,0.75-0.08,1.07c-0.33,0.34-0.71,0.53-1.12,0.11
			c-0.63-0.63-1.26-1.26-1.89-1.89c-0.4-0.4-0.19-0.76,0.13-1.06c0.32-0.31,0.67-0.5,1.07-0.11
			C397.01,158.12,397.33,158.44,397.65,158.76z"/>
		<path class="st6" d="M400.56,158.42c-0.32-0.32-0.65-0.65-0.97-0.97c-0.32-0.31-0.26-0.62,0.02-0.91c0.29-0.3,0.59-0.7,1.04-0.3
			c0.73,0.65,1.46,1.32,2.12,2.04c0.37,0.39,0.06,0.78-0.27,1.07c-0.3,0.26-0.62,0.41-0.97,0.05
			C401.21,159.06,400.88,158.74,400.56,158.42z"/>
		<path class="st6" d="M394.83,161.85c-0.31-0.46-0.6-0.81-0.8-1.21c-0.28-0.54-0.17-1.07,0.24-1.51c0.28-0.3,0.58-0.4,0.93-0.03
			c0.47,0.51,0.99,0.99,1.48,1.49c0.51,0.52,0.48,0.76-0.17,1.28C396.03,161.43,395.51,161.04,394.83,161.85z"/>
	</g>
	<g>
		<g>
			<path class="st6" d="M409.27,149.68c0.27,0,0.27,0,0.64-1.25c0.33-0.04,0.67-0.08,1.04-0.12c0.39,0.89,1.15,0.74,1.93,0.63
				c0.26,1.16,1.16,0.92,1.97,0.85c0.06,1.37,1.28,1.41,2.44,0.91c-0.43,1.27-0.85,2.54-1.29,3.8c-0.04,0.12-0.26,0.24-0.4,0.24
				c-1.83-0.03-3.66-0.08-5.3-0.13c-0.47-0.79-0.83-1.42-1.22-2.03c-0.58-0.92-1.22-1.81-1.77-2.75c-0.72-1.23,0.09-2.81,1.51-3.03
				c0.43-0.07,0.86,0.28,0.82,0.79C409.58,148.28,409.4,148.96,409.27,149.68z"/>
			<path class="st6" d="M415.14,146.98c-0.01,0.41-0.03,0.83-0.03,1.24c0,0.61-0.37,0.79-0.89,0.78c-0.54-0.01-0.86-0.23-0.82-0.84
				c0.05-0.83,0.06-1.66,0.07-2.48c0.01-0.58,0.32-0.75,0.84-0.73c0.54,0.01,0.89,0.18,0.87,0.79
				C415.16,146.15,415.15,146.57,415.14,146.98z"/>
			<path class="st6" d="M413.16,146.18c-0.01,0.43-0.03,0.87-0.03,1.3c-0.01,0.56-0.38,0.69-0.83,0.68
				c-0.48-0.01-0.87-0.15-0.85-0.74c0.02-0.89,0.04-1.78,0.07-2.67c0.02-0.57,0.42-0.66,0.86-0.64c0.44,0.02,0.83,0.14,0.82,0.7
				C413.18,145.26,413.17,145.72,413.16,146.18z"/>
			<path class="st6" d="M415.41,148.04c0.01-0.46,0.03-0.92,0.04-1.38c0.01-0.45,0.27-0.62,0.67-0.61c0.41,0,0.91-0.06,0.93,0.55
				c0.03,0.98,0.05,1.97-0.02,2.94c-0.03,0.54-0.52,0.58-0.96,0.54c-0.39-0.03-0.73-0.17-0.7-0.67
				C415.39,148.96,415.4,148.5,415.41,148.04z"/>
			<path class="st6" d="M408.97,146.25c0.12-0.54,0.18-0.99,0.32-1.41c0.2-0.57,0.66-0.86,1.26-0.86c0.42,0,0.7,0.15,0.66,0.65
				c-0.05,0.7-0.04,1.4-0.06,2.1c-0.03,0.73-0.22,0.87-1.04,0.76C410.1,146.83,410.03,146.19,408.97,146.25z"/>
		</g>
	</g>
	<g>
		<g>
			<path class="st6" d="M447.32,183.06c0.25,0.16,0.25,0.16,1.36-0.75c0.33,0.17,0.67,0.34,1.03,0.52
				c-0.18,1.05,0.61,1.38,1.39,1.76c-0.47,1.22,0.5,1.56,1.29,1.99c-0.78,1.29,0.31,2.08,1.68,2.32c-1.17,0.9-2.33,1.81-3.52,2.7
				c-0.11,0.08-0.39,0.06-0.51-0.02c-1.66-1.15-3.31-2.32-4.79-3.37c0.05-1.01,0.1-1.81,0.12-2.62c0.03-1.2-0.01-2.41,0.06-3.61
				c0.09-1.57,1.81-2.53,3.25-1.86c0.44,0.2,0.62,0.79,0.27,1.23C448.47,181.97,447.88,182.49,447.32,183.06z"/>
			<path class="st6" d="M454.37,184.18c-0.26,0.37-0.53,0.74-0.79,1.12c-0.37,0.56-0.82,0.5-1.3,0.17
				c-0.49-0.34-0.65-0.73-0.24-1.27c0.55-0.73,1.07-1.48,1.58-2.24c0.36-0.53,0.75-0.49,1.22-0.16c0.49,0.34,0.71,0.71,0.31,1.26
				C454.89,183.43,454.63,183.81,454.37,184.18z"/>
			<path class="st6" d="M453.04,182.22c-0.28,0.39-0.56,0.78-0.83,1.18c-0.35,0.51-0.77,0.39-1.18,0.11
				c-0.43-0.3-0.71-0.67-0.33-1.2c0.57-0.8,1.13-1.61,1.7-2.41c0.36-0.51,0.79-0.35,1.18-0.06c0.39,0.29,0.68,0.64,0.32,1.15
				C453.62,181.4,453.33,181.81,453.04,182.22z"/>
			<path class="st6" d="M453.96,185.32c0.29-0.41,0.59-0.83,0.88-1.24c0.28-0.41,0.62-0.4,1-0.15c0.38,0.26,0.87,0.51,0.52,1.07
				c-0.57,0.92-1.16,1.83-1.82,2.69c-0.36,0.47-0.84,0.22-1.21-0.09c-0.34-0.27-0.57-0.6-0.23-1.05
				C453.38,186.15,453.67,185.73,453.96,185.32z"/>
			<path class="st6" d="M449.15,179.73c0.44-0.42,0.77-0.8,1.16-1.1c0.54-0.4,1.13-0.38,1.69-0.02c0.39,0.25,0.55,0.56,0.21,1.01
				c-0.47,0.61-0.89,1.26-1.34,1.89c-0.47,0.65-0.74,0.67-1.42,0.06C449.83,180.96,450.15,180.32,449.15,179.73z"/>
		</g>
	</g>
	<g>
		<path class="st6" d="M430.39,181.05c0.27,0.17,0.27,0.17,1.46-0.81c0.36,0.18,0.72,0.36,1.1,0.56c-0.2,1.13,0.65,1.49,1.49,1.9
			c-0.5,1.32,0.54,1.68,1.39,2.14c-0.84,1.39,0.34,2.24,1.81,2.5c-1.26,0.97-2.51,1.95-3.78,2.9c-0.12,0.09-0.42,0.07-0.55-0.02
			c-1.79-1.24-3.57-2.5-5.16-3.62c0.05-1.09,0.11-1.95,0.13-2.82c0.03-1.3-0.01-2.59,0.06-3.89c0.1-1.69,1.94-2.72,3.5-2
			c0.47,0.22,0.67,0.85,0.29,1.33C431.63,179.87,431,180.43,430.39,181.05z"/>
		<path class="st6" d="M437.98,182.25c-0.28,0.4-0.58,0.8-0.85,1.21c-0.4,0.6-0.88,0.54-1.39,0.18c-0.52-0.37-0.7-0.79-0.26-1.37
			c0.59-0.79,1.15-1.6,1.71-2.41c0.39-0.57,0.81-0.53,1.31-0.17c0.52,0.37,0.77,0.76,0.34,1.35
			C438.54,181.44,438.26,181.85,437.98,182.25z"/>
		<path class="st6" d="M436.54,180.15c-0.3,0.42-0.6,0.84-0.89,1.27c-0.38,0.55-0.83,0.42-1.27,0.12c-0.47-0.32-0.76-0.72-0.35-1.29
			c0.61-0.86,1.22-1.73,1.83-2.59c0.39-0.55,0.85-0.38,1.27-0.06c0.42,0.31,0.73,0.69,0.35,1.23
			C437.17,179.26,436.86,179.7,436.54,180.15z"/>
		<path class="st6" d="M437.54,183.48c0.32-0.45,0.63-0.89,0.94-1.34c0.3-0.44,0.67-0.43,1.07-0.16c0.4,0.28,0.94,0.55,0.56,1.16
			c-0.62,0.99-1.25,1.98-1.96,2.9c-0.39,0.51-0.9,0.23-1.31-0.09c-0.37-0.29-0.61-0.65-0.25-1.13
			C436.92,184.37,437.22,183.92,437.54,183.48z"/>
		<path class="st6" d="M432.36,177.46c0.47-0.45,0.83-0.86,1.25-1.18c0.58-0.43,1.22-0.41,1.82-0.02c0.41,0.27,0.59,0.6,0.22,1.08
			c-0.51,0.66-0.96,1.36-1.45,2.03c-0.51,0.7-0.79,0.72-1.53,0.06C433.09,178.78,433.44,178.1,432.36,177.46z"/>
	</g>
	<g>
		<g>
			<path class="st6" d="M424.13,166.93c0.26,0.08,0.26,0.08,0.99-1c0.33,0.06,0.67,0.13,1.02,0.2c0.11,0.96,0.88,1.05,1.65,1.18
				c-0.1,1.18,0.83,1.23,1.62,1.4c-0.36,1.32,0.8,1.73,2.05,1.6c-0.79,1.08-1.57,2.16-2.38,3.23c-0.07,0.1-0.32,0.15-0.45,0.11
				c-1.74-0.58-3.47-1.18-5.02-1.72c-0.21-0.89-0.37-1.6-0.55-2.31c-0.28-1.05-0.62-2.09-0.86-3.16c-0.32-1.39,0.93-2.66,2.36-2.44
				c0.43,0.07,0.74,0.53,0.55,1C424.85,165.68,424.48,166.28,424.13,166.93z"/>
			<path class="st6" d="M430.55,166.12c-0.13,0.39-0.28,0.78-0.4,1.18c-0.18,0.58-0.59,0.64-1.09,0.47
				c-0.51-0.17-0.75-0.47-0.53-1.04c0.29-0.77,0.56-1.56,0.81-2.35c0.18-0.55,0.53-0.62,1.02-0.45c0.51,0.17,0.8,0.44,0.59,1.02
				C430.81,165.33,430.68,165.73,430.55,166.12z"/>
			<path class="st6" d="M428.89,164.75c-0.14,0.41-0.29,0.82-0.42,1.23c-0.18,0.53-0.57,0.54-1,0.4c-0.45-0.15-0.78-0.4-0.59-0.96
				c0.29-0.84,0.58-1.69,0.87-2.53c0.19-0.53,0.6-0.5,1.01-0.35c0.41,0.15,0.75,0.38,0.57,0.92
				C429.19,163.89,429.04,164.32,428.89,164.75z"/>
			<path class="st6" d="M430.48,167.21c0.15-0.43,0.3-0.87,0.45-1.3c0.14-0.43,0.44-0.51,0.83-0.38c0.39,0.13,0.89,0.22,0.72,0.8
				c-0.27,0.94-0.55,1.89-0.9,2.8c-0.19,0.5-0.67,0.4-1.08,0.23c-0.37-0.15-0.65-0.38-0.47-0.85
				C430.19,168.08,430.33,167.64,430.48,167.21z"/>
			<path class="st6" d="M424.88,163.56c0.28-0.48,0.47-0.89,0.73-1.25c0.36-0.49,0.89-0.62,1.46-0.44c0.4,0.12,0.62,0.35,0.43,0.82
				c-0.25,0.65-0.46,1.32-0.69,1.98c-0.24,0.69-0.47,0.76-1.22,0.41C425.78,164.46,425.91,163.82,424.88,163.56z"/>
		</g>
	</g>
	<g>
		<path class="st6" d="M409.1,168.03c0.26,0.08,0.26,0.08,0.99-1c0.33,0.06,0.67,0.13,1.02,0.2c0.11,0.96,0.88,1.05,1.65,1.18
			c-0.1,1.18,0.83,1.23,1.62,1.4c-0.36,1.32,0.8,1.73,2.05,1.6c-0.79,1.08-1.57,2.16-2.38,3.23c-0.07,0.1-0.32,0.15-0.45,0.11
			c-1.74-0.58-3.47-1.18-5.02-1.72c-0.21-0.89-0.37-1.6-0.55-2.31c-0.28-1.05-0.62-2.09-0.86-3.16c-0.32-1.39,0.93-2.66,2.36-2.44
			c0.43,0.07,0.74,0.53,0.55,1C409.82,166.79,409.45,167.39,409.1,168.03z"/>
		<path class="st6" d="M415.52,167.23c-0.13,0.39-0.28,0.78-0.4,1.18c-0.18,0.58-0.59,0.64-1.09,0.47
			c-0.51-0.17-0.75-0.47-0.53-1.04c0.29-0.77,0.56-1.56,0.81-2.35c0.18-0.55,0.53-0.62,1.02-0.45c0.51,0.17,0.8,0.44,0.59,1.02
			C415.78,166.44,415.65,166.83,415.52,167.23z"/>
		<path class="st6" d="M413.86,165.86c-0.14,0.41-0.29,0.82-0.42,1.23c-0.18,0.53-0.57,0.54-1,0.4c-0.45-0.15-0.78-0.4-0.59-0.96
			c0.29-0.84,0.58-1.69,0.87-2.53c0.19-0.53,0.6-0.5,1.01-0.35c0.41,0.15,0.75,0.38,0.57,0.92
			C414.16,165,414.01,165.43,413.86,165.86z"/>
		<path class="st6" d="M415.45,168.32c0.15-0.43,0.3-0.87,0.45-1.3c0.14-0.43,0.44-0.51,0.83-0.38c0.39,0.13,0.89,0.22,0.72,0.8
			c-0.27,0.94-0.55,1.89-0.9,2.8c-0.19,0.5-0.67,0.4-1.08,0.23c-0.37-0.15-0.65-0.38-0.47-0.85
			C415.16,169.19,415.3,168.75,415.45,168.32z"/>
		<path class="st6" d="M409.85,164.67c0.28-0.48,0.47-0.89,0.73-1.25c0.36-0.49,0.89-0.62,1.46-0.44c0.4,0.12,0.62,0.35,0.43,0.82
			c-0.25,0.65-0.46,1.32-0.69,1.98c-0.24,0.69-0.47,0.76-1.22,0.41C410.75,165.57,410.88,164.93,409.85,164.67z"/>
	</g>
	<g>
		<g>
			<path class="st6" d="M409.68,186.75c0.21-0.17,0.21-0.17-0.25-1.38c0.24-0.24,0.48-0.48,0.74-0.73c0.85,0.46,1.36-0.12,1.91-0.68
				c0.92,0.75,1.48,0.02,2.08-0.54c0.88,1.04,1.88,0.33,2.48-0.77c0.44,1.26,0.88,2.52,1.3,3.8c0.04,0.12-0.06,0.35-0.16,0.43
				c-1.47,1.1-2.95,2.18-4.27,3.14c-0.85-0.33-1.53-0.61-2.21-0.86c-1.02-0.37-2.07-0.69-3.08-1.09c-1.32-0.53-1.65-2.28-0.66-3.32
				c0.3-0.32,0.85-0.31,1.14,0.12C409.07,185.45,409.34,186.1,409.68,186.75z"/>
			<path class="st6" d="M412.67,181.02c0.24,0.33,0.48,0.67,0.74,1c0.37,0.48,0.19,0.85-0.23,1.16c-0.43,0.32-0.81,0.34-1.16-0.16
				c-0.47-0.68-0.97-1.35-1.47-2.01c-0.35-0.46-0.21-0.78,0.22-1.09c0.43-0.32,0.81-0.41,1.17,0.09
				C412.18,180.36,412.42,180.69,412.67,181.02z"/>
			<path class="st6" d="M410.6,181.6c0.26,0.35,0.51,0.7,0.77,1.05c0.34,0.45,0.12,0.78-0.24,1.05c-0.38,0.29-0.78,0.41-1.13-0.07
				c-0.53-0.72-1.06-1.44-1.58-2.16c-0.33-0.46-0.07-0.78,0.29-1.03c0.36-0.25,0.74-0.4,1.08,0.05
				C410.07,180.86,410.33,181.23,410.6,181.6z"/>
			<path class="st6" d="M413.53,181.7c-0.27-0.37-0.54-0.74-0.81-1.11c-0.27-0.36-0.17-0.65,0.16-0.9c0.33-0.25,0.69-0.6,1.07-0.14
				c0.62,0.76,1.24,1.53,1.79,2.34c0.3,0.44-0.06,0.78-0.42,1.02c-0.33,0.21-0.68,0.32-0.97-0.1
				C414.08,182.43,413.8,182.07,413.53,181.7z"/>
			<path class="st6" d="M407.34,184.22c-0.23-0.5-0.47-0.89-0.61-1.31c-0.19-0.58,0-1.08,0.47-1.46c0.33-0.26,0.64-0.31,0.92,0.11
				c0.39,0.58,0.83,1.13,1.23,1.7c0.42,0.59,0.36,0.82-0.36,1.24C408.59,183.99,408.14,183.53,407.34,184.22z"/>
		</g>
	</g>
</g>
<rect x="429.56" y="440.81" class="st7" width="162.37" height="18.73"/>
<text transform="matrix(1 0 0 1 429.5602 453.5927)" class="st5 st8 st9">Cameroun</text>
<g id="Capitole">
	<g>
		<g>
			<polygon class="st10" points="409.41,287.51 403.93,283.62 398.5,287.62 400.2,281.18 395.03,277.28 401.48,277.04 
				403.79,270.77 406.22,276.99 412.68,277.1 407.6,281.09 			"/>
		</g>
	</g>
</g>
</svg>
